<?xml version="1.0" encoding="utf-8"?>
<!-- Generator: Adobe Illustrator 17.1.0, SVG Export Plug-In . SVG Version: 6.00 Build 0)  -->
<!DOCTYPE svg PUBLIC "-//W3C//DTD SVG 1.1//EN" "http://www.w3.org/Graphics/SVG/1.1/DTD/svg11.dtd">
<svg version="1.1" id="Layer_1" xmlns="http://www.w3.org/2000/svg" xmlns:xlink="http://www.w3.org/1999/xlink" x="0px" y="0px"
	 viewBox="0 0 960 540" enable-background="new 0 0 960 540" xml:space="preserve">
<path id="i1" opacity="0.4" fill="#F29525" enable-background="new    " d="M-585.7,454.2c71.8,6.3,1119.1,3.5,1267.7,2
	c13.9-147,21.4-678.9,34.9-797.7c-246.6-6.1-1131.1-2.3-1352.5-3.7C-622.4-294-585.7,454.2-585.7,454.2z"/>
<path id="i1.6" opacity="0.79" fill="#F46437" enable-background="new    " d="M-490.9,394c46.2-7,949-1.8,1075.2-2.8
	c11.1-111.6,25.5-515,15.2-605.8c-209.2-4.9-949.3-2.5-1137-3.5C-526.3-179.4-490.9,394-490.9,394z"/>
<path id="i1.5" opacity="0.6" fill="#F29525" enable-background="new    " d="M-475.2,382.5c44.9-6.3,920-3.4,1042.4-4.5
	c10.9-100.7,25-464.7,15.1-546.6c-202.9-4.2-920.2-0.6-1102.2-1.1C-509.2-134.8-475.2,382.5-475.2,382.5z"/>
<path id="i1.4" opacity="0.6" fill="#ED8700" enable-background="new    " d="M-437.4,367.4c53.6,5.9,618.2-5.8,700.4-5.9
	c9.5-83.5,11.1-373,8.5-443.2c-136.4-4.2-605.6-4.3-727.7-5.6C-449.5-58.9-437.4,367.4-437.4,367.4z"/>
<path id="i1.3" opacity="0.62" fill="#F9ED15" enable-background="new    " d="M-332.2,335c22.5-3.5,459.4-3.9,520.7-4.2
	c7.1-56.3,4.6-256.4,3.7-305.2c-101.3-3.2-446.5-4.2-537.4-5.3C-340.4,39.8-332.2,335-332.2,335z"/>
<path id="i1.2" opacity="0.8" fill="#40C1F4" enable-background="new    " d="M-255.9,306.2c14-1.6,284.8-1.1,322.6-0.2
	c5.4-35.1,4.4-151.7,0-191.1c-62.7-3.6-269.1-9.7-325.5-12.1C-256,115.2-255.9,306.2-255.9,306.2z"/>
<path id="i1.1" opacity="0.7" fill="#100BF4" enable-background="new    " d="M-79.3,278.5c4.2-1.4,86.7-4.6,98.3-4.5
	c1.7-24.6,1.9-106.2,0.8-133.6c-19.1-1.6-82-3.2-99-4.1C-78.6,144.9-79.3,278.5-79.3,278.5z"/>
</svg>
