<?xml version="1.0" encoding="utf-8"?>
<!-- Generator: Adobe Illustrator 17.1.0, SVG Export Plug-In . SVG Version: 6.00 Build 0)  -->
<!DOCTYPE svg PUBLIC "-//W3C//DTD SVG 1.1//EN" "http://www.w3.org/Graphics/SVG/1.1/DTD/svg11.dtd">
<svg version="1.1" id="Layer_1" xmlns="http://www.w3.org/2000/svg" xmlns:xlink="http://www.w3.org/1999/xlink" x="0px" y="0px"
	 viewBox="0 0 960 540" enable-background="new 0 0 960 540" xml:space="preserve">
<path id="i1" fill="#E6EDFC" d="M-6.9-90c-0.3,0-0.1-9.4-0.1-10.9c0.4,0,12.1,0,12.1,0.2C5-100,4.5-90.3,4.5-90
	C4.4-89.9-6.3-90-6.9-90z"/>
<path id="i1.1" fill="#FFFFFF" d="M-5.9-89.6c-0.3,0-0.1-9.4-0.1-10.9c0.4,0,12.1,0,12.1,0.2C6-99.6,5.5-89.9,5.5-89.6
	C5.4-89.5-5.3-89.5-5.9-89.6z"/>
<path id="i2" fill="#FFFFFF" d="M-54.5,84.1c-0.3,0-0.1-10.5-0.2-12.1c0.5,0,13.5,0,13.4,0.2c-0.1,0.8-0.6,11.5-0.6,11.8
	C-41.9,84.2-53.8,84.2-54.5,84.1z"/>
<path id="i3" fill="#FFFFFF" d="M112.5,2.8c-0.3,0-0.1-9.9-0.1-11.5c0.5,0,12.8,0,12.7,0.2c-0.1,0.7-0.6,10.9-0.6,11.2
	C124.5,2.8,113.2,2.8,112.5,2.8z"/>
<path id="i4" fill="#FFFFFF" d="M-33.2-5.9c-0.3,0-0.1-9.9-0.1-11.5c0.5,0,12.8,0,12.7,0.2c-0.1,0.7-0.6,10.9-0.6,11.2
	C-21.2-5.8-32.5-5.9-33.2-5.9z"/>
<path id="i5" fill="#FFFFFF" d="M34.9,79.4c-1.4,0-13,0.4-13.1,0.4c0-0.1-0.3-15.2-0.3-15.3c1.7-0.1,12.6-0.2,13.8-0.2
	C35.6,64.3,34.9,78.8,34.9,79.4z"/>
<path id="i6" fill="#FFFFFF" d="M59.5-14.8c0,1.2-1,15.3-1,16.8C57,2,44.6,2.5,43.2,2.5c-0.1-1.4-0.8-14.8-0.9-16.7
	C48.1-14.4,53.8-14.6,59.5-14.8z"/>
<path id="i7" fill="#FFFFFF" d="M178.9-20.3c0,1.2-1,15.3-1,16.8C176.4-3.5,164-3,162.5-3c-0.1-1.4-0.8-14.8-0.9-16.7
	C167.5-19.9,173.1-20.1,178.9-20.3z"/>
<path id="i8" fill="#FFFFFF" d="M64-80c0-2.3,0.5-11.1,0.6-12.5c1.3,0,10,0.2,11.4,0.3c-0.1,1.7-0.5,11.3-0.6,12.8
	C73.5-79.3,67.8-79.9,64-80z"/>
<path id="i9" fill="#FFFFFF" d="M-110,90.1c0-2.3,0.5-11.1,0.6-12.5c1.3,0,10,0.2,11.4,0.3c-0.1,1.7-0.5,11.3-0.6,12.8
	C-100.6,90.8-106.3,90.2-110,90.1z"/>
<path id="i10" fill="#FFFFFF" d="M48-50c-1.2,0-11.4,0.4-11.5,0.4c0-0.1-0.2-13.3-0.2-13.3c1.5-0.1,11-0.2,12.1-0.2
	C48.6-63.2,48-50.5,48-50z"/>
<path id="i11" fill="#FFFFFF" d="M-89.2,34.4c0,0.4-0.6,11.9-0.7,14.6c-3.3,0-13.9,0-13.9-0.2c0.1-0.6,0.2-14.3,0.2-14.8
	C-102.5,34-89.4,34.4-89.2,34.4z"/>
<path id="i12" fill="#FFFFFF" d="M77.8,25.4c0,0-0.2,11.7,0,14c-1.3,0.3-15.3,0.9-15.4,0.9c0-2.7-0.3-13.7-0.1-14.8
	C62.4,25.3,75.8,25.4,77.8,25.4z"/>
<path id="i13" fill="#FFFFFF" d="M-112.2-82.8c0,0-0.2,11.7,0,14c-1.3,0.3-15.3,0.9-15.4,0.9c0-2.7-0.3-13.7-0.1-14.8
	C-127.7-82.9-114.2-82.8-112.2-82.8z"/>
<path id="i14" fill="#FFFFFF" d="M-89-13.7c0,1-0.8,13.4-0.9,14.7c-1.3,0-12.1,0.4-13.4,0.4c-0.1-1.2-0.7-12.9-0.8-14.6
	C-99-13.3-94-13.5-89-13.7z"/>
<path id="i15" fill="#E6EDFC" d="M-61-88.4c0,0-0.2,10.2,0,12.3c-1.1,0.3-13.4,0.8-13.4,0.8c0-2.4-0.2-11.9-0.1-12.9
	C-74.5-88.5-62.8-88.4-61-88.4z"/>
<path id="i15.1" fill="#FFFFFF" d="M-59.8-87.1c0,0-0.2,10.2,0,12.3c-1.1,0.3-13.4,0.8-13.4,0.8c0-2.4-0.2-11.9-0.1-12.9
	C-73.3-87.2-61.5-87.1-59.8-87.1z"/>
<path id="i16" fill="#E6EDFC" d="M-148.1-38.2c0,0-0.2,10.2,0,12.3c-1.1,0.3-13.4,0.8-13.4,0.8c0-2.4-0.2-11.9-0.1-12.9
	C-161.7-38.3-149.9-38.2-148.1-38.2z"/>
<path id="i16.1" fill="#FFFFFF" d="M-146.6-37c0,0-0.2,10.2,0,12.3c-1.1,0.3-13.4,0.8-13.4,0.8c0-2.4-0.2-11.9-0.1-12.9
	C-160.2-37.1-148.4-37-146.6-37z"/>
<path id="i17" fill="#FFFFFF" d="M0-63.9c0,0-0.2,11.7,0,14C-1.3-49.6-15.3-49-15.4-49c0-2.7-0.3-13.7-0.1-14.8
	C-15.5-64.1-2-63.9,0-63.9z"/>
<path id="i18" fill="#FFFFFF" d="M-46.2-33.9c0,0-0.2,10.2,0,12.3c-1.1,0.3-13.4,0.8-13.4,0.8c0-2.4-0.2-11.9-0.1-12.9
	C-59.7-34-47.9-33.9-46.2-33.9z"/>
<path id="i19" fill="#E6EDFC" d="M-176.5,9.8c0,0-0.2,11.7,0,14c-1.3,0.3-15.3,0.9-15.4,0.9c0-2.7-0.3-13.7-0.1-14.8
	C-192,9.7-178.5,9.8-176.5,9.8z"/>
<path id="i19.1" fill="#FFFFFF" d="M-175,11c0,0-0.2,11.7,0,14c-1.3,0.3-15.3,0.9-15.4,0.9c0-2.7-0.3-13.7-0.1-14.8
	C-190.5,10.8-177,11-175,11z"/>
<path id="i20" fill="#E6EDFC" d="M132.9,34c0,0-0.2,11.7,0,14c-1.3,0.3-15.3,0.9-15.4,0.9c0-2.7-0.3-13.7-0.1-14.8
	C117.4,33.9,130.9,34,132.9,34z"/>
<path id="i20.1" fill="#FFFFFF" d="M134.3,33.3c0,0-0.2,11.7,0,14c-1.3,0.3-15.3,0.9-15.4,0.9c0-2.7-0.3-13.7-0.1-14.8
	C118.8,33.2,132.3,33.3,134.3,33.3z"/>
<path id="i21" fill="#E6EDFC" d="M41.8,120.5c-1.4,0-13,0.4-13.1,0.4c0-0.1-0.3-15.2-0.3-15.3c1.7-0.1,12.6-0.2,13.8-0.2
	C42.5,105.4,41.9,120,41.8,120.5z"/>
<path id="i21.1" fill="#FFFFFF" d="M42.7,121.6c-1.4,0-13,0.4-13.1,0.4c0-0.1-0.3-15.2-0.3-15.3c1.7-0.1,12.6-0.2,13.8-0.2
	C43.4,106.5,42.8,121,42.7,121.6z"/>
<path id="i22" fill="#FFFFFF" d="M12.4-16.6c-1.4,0-13,0.4-13.1,0.4c0-0.1-0.3-15.2-0.3-15.3c1.7-0.1,12.6-0.2,13.8-0.2
	C13-31.7,12.4-17.2,12.4-16.6z"/>
<path id="i23" fill="#FFFFFF" d="M-26.9,113.8c-1.4,0-13,0.4-13.1,0.4c0-0.1-0.3-15.2-0.3-15.3c1.7-0.1,12.6-0.2,13.8-0.2
	C-26.2,98.8-26.8,113.3-26.9,113.8z"/>
<path id="i24" fill="#FFFFFF" d="M-1.4,48.8c-1.4,0-13,0.4-13.1,0.4c0-0.1-0.3-15.2-0.3-15.3c1.7-0.1,12.6-0.2,13.8-0.2
	C-0.7,33.7-1.3,48.3-1.4,48.8z"/>
<path id="i25" fill="#E6EDFC" d="M-148.5,73c-1.4,0-13,0.4-13.1,0.4c0-0.1-0.3-15.2-0.3-15.3c1.7-0.1,12.6-0.2,13.8-0.2
	C-147.8,57.9-148.4,72.4-148.5,73z"/>
<path id="i25.1" fill="#FFFFFF" d="M-147,74c-1.4,0-13,0.4-13.1,0.4c0-0.1-0.3-15.2-0.3-15.3c1.7-0.1,12.6-0.2,13.8-0.2
	C-146.3,59-146.9,73.5-147,74z"/>
<path id="i26" fill="#E6EDFC" d="M190.6,39.3c-1.2,0-11.4,0.4-11.5,0.4c0-0.1-0.2-13.3-0.2-13.3c1.5-0.1,11-0.2,12.1-0.2
	C191.2,26.1,190.6,38.8,190.6,39.3z"/>
<path id="i26.1" fill="#FFFFFF" d="M191.6,40.4c-1.2,0-11.4,0.4-11.5,0.4c0-0.1-0.2-13.3-0.2-13.3c1.5-0.1,11-0.2,12.1-0.2
	C192.3,27.2,191.7,39.9,191.6,40.4z"/>
<path id="i27" fill="#E6EDFC" d="M132.1-57.5c-1.2,0-11.4,0.4-11.5,0.4c0-0.1-0.2-13.3-0.2-13.3c1.5-0.1,11-0.2,12.1-0.2
	C132.7-70.7,132.2-58,132.1-57.5z"/>
<path id="i27.1" fill="#FFFFFF" d="M133.4-56.8c-1.2,0-11.4,0.4-11.5,0.4c0-0.1-0.2-13.3-0.2-13.3c1.5-0.1,11-0.2,12.1-0.2
	C134-70,133.4-57.3,133.4-56.8z"/>
<path id="i28" fill="#E6EDFC" d="M78,84.5c-0.3,0-0.1-8.6-0.1-10c0.4,0,12.1,0,12.1,0.2c-0.1,0.6-0.6,9.5-0.6,9.8
	C89.4,84.5,78.6,84.5,78,84.5z"/>
<path id="i28.1" fill="#FFFFFF" d="M79,86.3c-0.3,0-0.1-9.4-0.1-10.9c0.4,0,12.1,0,12.1,0.2c-0.1,0.7-0.6,10.4-0.6,10.6
	C90.4,86.4,79.6,86.4,79,86.3z"/>
<path id="i29" fill="#FFFFFF" d="M78.6-16.3c-0.5,0-0.2-15.2-0.2-17.6c0.7,0,19.6,0,19.6,0.3C97.8-32.5,97-16.8,97-16.4
	C97-16.2,79.6-16.3,78.6-16.3z"/>
<path id="i30" fill="#FFFFFF" d="M-33.4,9.2c0,1.2-1,15.3-1,16.8c-1.5,0-13.9,0.4-15.3,0.5c-0.1-1.4-0.8-14.8-0.9-16.7
	C-44.7,9.6-39.1,9.4-33.4,9.2z"/>
<path id="i31" fill="#F6D9E8" d="M-4.1,13.1c-0.2,0-0.1-6.9-0.1-7.9c0.2,0,6.4,0,6.4,0.1c0,0.5-0.3,7.6-0.3,7.8
	C1.8,13.2-3.8,13.1-4.1,13.1z"/>
<path id="i31.1" fill="#FFFFFF" d="M3.5,14.3c-0.8,0-7,0.2-7.1,0.2c0-0.1-0.2-8.2-0.1-8.3C-2.9,6.2,3,6.2,3.7,6.1
	C3.8,6.1,3.5,14,3.5,14.3z"/>
</svg>
