<?xml version="1.0" encoding="utf-8"?>
<!-- Generator: Adobe Illustrator 17.1.0, SVG Export Plug-In . SVG Version: 6.00 Build 0)  -->
<!DOCTYPE svg PUBLIC "-//W3C//DTD SVG 1.1//EN" "http://www.w3.org/Graphics/SVG/1.1/DTD/svg11.dtd">
<svg version="1.1" id="Layer_1" xmlns="http://www.w3.org/2000/svg" xmlns:xlink="http://www.w3.org/1999/xlink" x="0px" y="0px"
	 viewBox="0 0 960 540" enable-background="new 0 0 960 540" xml:space="preserve">
<path id="i1" opacity="0.7" fill="#064431" enable-background="new    " d="M-655.3-336.7c0,312.3,2.9,577,2,658
	c0,0,514.6,20.1,923.3,27.2c6.4-143.5,13.5-579.7,4.8-704.7C267.4-350.7-655.3-336.7-655.3-336.7z"/>
<path id="i2" fill="#0C380C" d="M-447.4-167c0.3,6.8,1.4,19.7,1,27.6c6.9,0.4,24.4,1.6,31.1,1.4c0.8-5.2,0.2-21.5,0.8-28.7
	C-419.5-166.6-438.6-166.4-447.4-167z"/>
<path id="i3" fill="#0C380C" d="M-448.3-126.8c0.2,3.9,1.1,23.9,1,27.6c6.8,0.2,27.3,1.3,31.1,1.4c0.1-3.1,0.1-24,0.8-28.7
	C-418.5-126.6-442.9-126.6-448.3-126.8z"/>
<path id="i4" fill="#0C380C" d="M-446.9-55.7c2.3-0.2,25.6,1,27.6,1.6c0.6-3.4,4.2-27.8,4.3-30.8c-4.8,0-26.3-3.4-28.5-3.6
	C-443.7-86.8-447.5-56.7-446.9-55.7z"/>
<path id="i5" opacity="0.8" fill="#0C380C" enable-background="new    " d="M-445.9-45.1c0.1,2.2,0.9,24.8,1,27.6
	c2.1,0.1,29.1,1.7,31.1,1.4c0-2.5,0.8-25.7,0.8-28.7C-416.2-44.8-443-45.2-445.9-45.1z"/>
<path id="i6" opacity="0.8" fill="#0C380C" enable-background="new    " d="M-414.9-6.2c-2.7,0.1-24.4,1.1-27.6,0.8
	c-0.1,2.4-1.5,28.2-1.5,31.1c2.5,0.2,26.5,1,28.7,1C-415,23.2-415-3-414.9-6.2z"/>
<path id="i7" opacity="0.8" fill="#0C380C" enable-background="new    " d="M-446.7,35.7c0.1,2.3,0.8,25.1,1,27.6
	c2.4,0.1,29.6,1.4,31.1,1.4c0.2-3.8,1-24.7,0.8-28.7C-417.4,36.1-443.9,35.7-446.7,35.7z"/>
<path id="i8" opacity="0.7" fill="#0C380C" enable-background="new    " d="M-445.9,77.4c0.1,2.1,1.2,23.3,1,27.6
	c3.8,0.2,28.8,1.2,31.1,1.4c0.1-2.8,0.6-26.5,0.8-28.7C-415.4,77.7-440,77.3-445.9,77.4z"/>
<path id="i9" opacity="0.7" fill="#0C380C" enable-background="new    " d="M-414.8,114.4c-3.3,0.4-24.8,2.9-27.4,3.3
	c0,2.4,0.8,27,1.1,31.1c2.6-0.1,25.2-1.5,28.7-1.5C-412.5,143.7-414.4,118.2-414.8,114.4z"/>
<path id="i10" opacity="0.7" fill="#0C380C" enable-background="new    " d="M-443.6,159.8c0.1,2.3,0.9,24,1,27.6
	c2.7,0.2,28.2,1.5,31.1,1.4c0.2-2.4,1-25.6,0.8-28.7C-413.1,160.2-440.9,159.8-443.6,159.8z"/>
<path id="i11" opacity="0.6" fill="#0C380C" enable-background="new    " d="M-444.4,199.9c0.1,1.5,1,23.1,1,27.6
	c3.9,0.2,28.7,1.3,31.1,1.4c0.1-4.1,0.6-26.4,0.8-28.7C-412.4,200.1-441.5,200-444.4,199.9z"/>
<path id="i12" opacity="0.7" fill="#0C380C" enable-background="new    " d="M232.8-291.2c-2.1,17.5,0.8,174,0.7,198.5
	c0,0,150.5-0.8,270.9,1.4c1.9-43.2,2.1-126.6,2.3-194C492.9-287.4,232.8-291.2,232.8-291.2z"/>
<path id="i13" opacity="0.9" fill="#0C380C" enable-background="new    " d="M475.6-222.9c-1.6-1.9-16,0.8-18.3,0.7
	c0,0,0.8,141.9,1,255.4c4,1.8,11.7,1.9,17.8,2C476.3,22.2,475.6-222.9,475.6-222.9z"/>
<path id="i14" opacity="0.7" fill="#0C380C" enable-background="new    " d="M142.5,194c-3.2,26.8,1.4,266.8,0.9,304.3
	c0,0,232.1-1.3,417.7,2c2.8-66.4,3.2-194.1,3.4-297.5C543.5,199.8,142.5,194,142.5,194z"/>
<path id="i15" opacity="0.9" fill="#0C380C" enable-background="new    " d="M-89.1,121.3c2.8-2.4-1.4-23.8-0.9-27.2
	c0,0-211.3,1-380.5,1.6c-2.6,5.9-2.8,17.4-2.9,26.5C-454.3,122.4-89.1,121.3-89.1,121.3z"/>
<path id="i16" opacity="0.9" fill="#0C380C" enable-background="new    " d="M-14.3,119c0.5-2.4-0.3-23.8-0.2-27.2
	c0,0-27.8,0.2-50.1,0c-0.3,5.9-0.3,17.4-0.3,26.6C-62.5,118.7-14.3,119-14.3,119z"/>
<path id="i17" opacity="0.6" fill="#0C380C" enable-background="new    " d="M-443.6,241.5c0.1,2.2,0.9,23.8,1,27.6
	c2.1,0.2,29,1.4,31.1,1.4c0.3-3.7,0.8-24.9,0.8-28.7C-413.3,241.8-439.8,241.6-443.6,241.5z"/>
<path id="i18" opacity="0.6" fill="#0C380C" enable-background="new    " d="M-413.4,277.7c-2.3,0.4-24.5,4.7-27.1,4.9
	c0.2,3.3,2.4,27.4,2.9,31c3-0.2,25.2-2.8,28.5-3.2C-409.8,306.7-412.8,281.6-413.4,277.7z"/>
<path id="i19" opacity="0.5" fill="#0C380C" enable-background="new    " d="M-442,322.5c0.1,1.8,1.2,23.6,1,27.6
	c2.3,0.1,28,1.4,31.1,1.4c0.2-2.8,0.6-25.7,0.8-28.7C-413.4,322.7-437.8,322.3-442,322.5z"/>
<path id="i20" opacity="0.5" fill="#0C380C" enable-background="new    " d="M-442.8,362.6c0.1,1.9,0.6,23,1,27.6
	c5.4,0.3,25.9,1.2,31.1,1.4c0.2-3,0.6-25.2,0.8-28.7C-413,362.3-438.1,362.2-442.8,362.6z"/>
</svg>
