<?xml version="1.0" encoding="utf-8"?>
<!-- Generator: Adobe Illustrator 16.0.0, SVG Export Plug-In . SVG Version: 6.00 Build 0)  -->
<!DOCTYPE svg PUBLIC "-//W3C//DTD SVG 1.1//EN" "http://www.w3.org/Graphics/SVG/1.1/DTD/svg11.dtd">
<svg version="1.1" id="Layer_1" xmlns="http://www.w3.org/2000/svg" xmlns:xlink="http://www.w3.org/1999/xlink" x="0px" y="0px"
	 width="841.89px" height="595.28px" viewBox="0 0 841.89 595.28" enable-background="new 0 0 841.89 595.28" xml:space="preserve">
<path id="i13" fill-rule="evenodd" clip-rule="evenodd" fill="none" stroke="#000000" stroke-miterlimit="10" d="M729.457,337.954
	c-0.287,1.368-5.783,153.174-5.936,153.608c-2.686-1.153-137.342-6.222-142.947-7.236c-0.027-0.945,4.551-144.442,4.811-145.153
	C596.131,338.535,727.748,337.954,729.457,337.954z"/>
<path id="i15" fill-rule="evenodd" clip-rule="evenodd" fill="none" stroke="#000000" stroke-miterlimit="10" d="M283.879,370.088
	c-2.718,0-128.554-5.986-129.716-6.336c1.435-2.284,8.825-126.974,9.938-128.625c9.502,0.584,126.131,4.88,125.861,7.022
	C289.338,247.119,282.899,365.714,283.879,370.088z"/>
<path id="i3" fill-rule="evenodd" clip-rule="evenodd" fill="none" stroke="#000000" stroke-miterlimit="10" d="M452.371,272.986
	c0.066-0.052,0.131-0.113,0.199-0.156c0.029-0.356,5.715-106.934,5.018-107.185c-2.41,0.274-105.475-1.481-105.553-0.189
	c-0.123,2.039-2.835,97.298-2.565,100.655C350.484,266.191,451.881,272.92,452.371,272.986z"/>
<path id="i18" fill-rule="evenodd" clip-rule="evenodd" fill="none" stroke="#000000" stroke-miterlimit="10" d="M607.293,126.751
	c-13.416-1.228-82.699-4.784-94.98-5.24c-0.09-7.146,1.914-91.52,2.367-101.616c0,0,88.201,3.267,98.676,3.407
	C612.312,39.552,607.926,116.038,607.293,126.751z"/>
<path id="i5" fill-rule="evenodd" clip-rule="evenodd" fill="none" stroke="#000000" stroke-miterlimit="10" d="M385.931,281.721
	c-0.278,4.245-2.303,86.483-2.382,88.053c-0.072,1.403-91.722-3.76-91.722-3.76c-0.809-7.573-0.583-90.861,0.563-91.067
	C293.224,274.795,374.62,281.154,385.931,281.721z"/>
<path id="i17" fill-rule="evenodd" clip-rule="evenodd" fill="none" stroke="#000000" stroke-miterlimit="10" d="M674.502,245.47
	c-4.836-0.055-83.111-4.326-84.859-3.888c-0.469,0.117,0.459-84.562,0.688-85.911c29.758,2.017,59.512,3.84,89.582,2.496
	C680.189,158.862,675.043,245.475,674.502,245.47z"/>
<path id="i7" fill-rule="evenodd" clip-rule="evenodd" fill="none" stroke="#000000" stroke-miterlimit="10" d="M622.893,249.764
	c0.094,0.98-1.176,68.523-2.146,85.804c-29.406-1.169-81.793,2.633-81.793,2.633c-0.398-12.254-1.623-86.805,0.312-86.855
	C545.348,251.183,620.857,249.764,622.893,249.764z"/>
<path id="i23" fill-rule="evenodd" clip-rule="evenodd" fill="none" stroke="#000000" stroke-miterlimit="10" d="M181.993,146.141
	c-2.25-0.041-0.853-68.056-0.985-78.788c3.188,0.12,87.704-0.109,87.562,1.45c-0.442,4.899-4.156,75.058-4.188,77.003
	C264.368,146.703,186.55,146.223,181.993,146.141z"/>
<path id="i16" fill-rule="evenodd" clip-rule="evenodd" fill="none" stroke="#000000" stroke-miterlimit="10" d="M358.167,375.358
	c0.173,3.561,1.752,81.296,1.599,83.99c-0.396,0.066-86.232-3.008-86.132-5.008c0.192-3.808-0.803-77.938,0.625-77.954
	C275.278,376.375,357.187,375.358,358.167,375.358z"/>
<path id="i6" fill-rule="evenodd" clip-rule="evenodd" fill="none" stroke="#000000" stroke-miterlimit="10" d="M438.037,332.287
	c12.379-0.02,91.184,1.287,97.098,2.9c-0.564,6.851-9.125,80.375-9.949,87.416c-9.508-0.796-80.211-2.89-89.219-3.836
	C435.92,411.497,437.797,340.819,438.037,332.287z"/>
<path id="i1" fill-rule="evenodd" clip-rule="evenodd" fill="none" stroke="#000000" stroke-miterlimit="10" d="M453.889,323.972
	c0.035-14.627,3.324-69.066,4.021-78.018c9.23,0.181,68.709,1.521,78.348,2.128c-0.369,10.41-3.375,70.651-4.307,80
	C518.691,328.082,479.518,324.855,453.889,323.972z"/>
<path id="i10" fill-rule="evenodd" clip-rule="evenodd" fill="none" stroke="#000000" stroke-miterlimit="10" d="M772.154,57.145
	c0.469,3.354-4.035,74.57-4.803,81.798c-8.656,0.066-72.006,0.629-75.221,0.667c0.059-18.832,0.473-79.237,0.695-82.646
	C697.467,56.656,769.316,57.145,772.154,57.145z"/>
<path id="i14" fill-rule="evenodd" clip-rule="evenodd" fill="none" stroke="#000000" stroke-miterlimit="10" d="M680.674,494.313
	c1.613-0.298,80.623,0.915,80.639,1.92c0.016,1.304-2.859,66.93-2.42,68.749c-0.289,0.172-68.275,1.958-74.062,2.316
	C683.375,567.392,680.594,498.937,680.674,494.313z"/>
<path id="i26" fill-rule="evenodd" clip-rule="evenodd" fill="none" stroke="#000000" stroke-miterlimit="10" d="M579.781,344.089
	c0.334,1.447-2.164,37.028-2.607,40.43c-2.76-0.216-35.824,0.117-39.48-0.017c-0.033-1.954,2.486-33.71,3.125-40.637
	C546.541,343.78,578.145,343.96,579.781,344.089z"/>
<path id="i24" fill-rule="evenodd" clip-rule="evenodd" fill="none" stroke="#000000" stroke-miterlimit="10" d="M260.572,236.297
	c-0.189-0.565-11.407-88.123-11.407-89.122c4.733-0.248,88.76-0.724,91.976-0.685c2.231,0.027,5.078,87.811,4.813,87.285
	C344.554,233.689,261.466,236.297,260.572,236.297z"/>
<path id="i22" fill-rule="evenodd" clip-rule="evenodd" fill="none" stroke="#000000" stroke-miterlimit="10" d="M130.45,362.848
	c-0.114,2.14-2.946,63.953-3.702,78.606c-17.734,0-74.758-0.019-74.641-1.147c0.336-3.252,0.922-77.102,0.922-79.729
	C59.044,360.767,129.434,362.676,130.45,362.848z"/>
<path id="i12" fill-rule="evenodd" clip-rule="evenodd" fill="none" stroke="#000000" stroke-miterlimit="10" d="M365.312,373.48
	c3.233,0.047,69.568,0.337,68.309,0.98c-0.221,3.182-2.76,56.042-3.738,61.014c-0.925,0.165-64.185,1.636-65.09,1.559
	C364.066,428.77,365.182,374.349,365.312,373.48z"/>
<path id="i19" fill-rule="evenodd" clip-rule="evenodd" fill="none" stroke="#000000" stroke-miterlimit="10" d="M410.821,100.411
	c0,0-0.992,47.879-0.083,57.521c-5.249,1.224-62.653,3.887-63.021,3.811c0.167-11.186-1.162-56.034-0.454-60.635
	C347.453,99.876,402.584,100.328,410.821,100.411z"/>
<path id="i2" fill-rule="evenodd" clip-rule="evenodd" fill="none" stroke="#000000" stroke-miterlimit="10" d="M460.393,177.417
	c2.834,0,59.44-0.583,65.383,0.417c0.145,3.525-0.6,60.337-1.965,62.255c-2.953,0-58.555,0.962-61.285,1.296
	C460.383,241.646,460.527,178.969,460.393,177.417z"/>
<path id="i25" fill-rule="evenodd" clip-rule="evenodd" fill="none" stroke="#000000" stroke-miterlimit="10" d="M250.737,178.906
	c0.23,4.266,0.441,36.161,0.777,48.278c-6.007,0.897-55.508,4.527-56.257,4.589c-0.38-11.336-2.545-44.174-2.083-52.867
	C200.549,178.757,245.036,178.4,250.737,178.906z"/>
<path id="i20" fill-rule="evenodd" clip-rule="evenodd" fill="none" stroke="#000000" stroke-miterlimit="10" d="M209.459,370.4
	c1.159,0.016,61.945,2.95,61.928,3.864c-0.315,2.934-1.342,55.894-1.415,56.35c-0.351,0.104-54.764-1.031-60.605-1.113
	C209.748,420.754,209.077,378.526,209.459,370.4z"/>
<path id="i2.1" fill-rule="evenodd" clip-rule="evenodd" fill="none" stroke="#000000" stroke-miterlimit="10" d="M516.762,184.025
	c0,3.267-2.617,42.938-2.779,47.083c-4.191,0-38.857,1.17-42.82,1.404c-0.312-3.876-2.285-41.42-2.375-46.693
	C484.898,185.217,500.734,184.625,516.762,184.025z"/>
<path id="i4" fill-rule="evenodd" clip-rule="evenodd" fill="none" stroke="#000000" stroke-miterlimit="10" d="M449.717,325.838
	c0.039,1.441-53.929,2.44-59.09,2.791c0.04-0.407-1.637-43.517-0.94-52.37c7.974-0.414,53.786-0.727,59.097-0.972
	C449.375,275.261,449.598,321.298,449.717,325.838z"/>
<path id="i8" fill-rule="evenodd" clip-rule="evenodd" fill="none" stroke="#000000" stroke-miterlimit="10" d="M528.012,191.657
	c3.154-0.146,53.453,0.355,53.453,0.355c1.293,3.751,3.992,45.516,4.189,52.3c0.021,0.684-53.494-1.003-56.205-0.907
	C529.146,242.704,528.012,192.842,528.012,191.657z"/>
<path id="i11" fill-rule="evenodd" clip-rule="evenodd" fill="none" stroke="#000000" stroke-miterlimit="10" d="M670.98,334.017
	c-1.91-0.314-39.182-0.775-42.398-0.635c-0.318-1.68-1.465-43.619-1.703-45.619c7.197-0.535,36.57,0.576,44.176,0.576
	C671.186,289.283,671.051,333.363,670.98,334.017z"/>
<path id="i9" fill-rule="evenodd" clip-rule="evenodd" fill="none" stroke="#000000" stroke-miterlimit="10" d="M433.021,333.504
	c0.348,12.101-0.344,24.294,0,36.262c-4.674,0.409-25.984,0.907-31.966,0.981c0-3.244,0.358-31.756,0.383-36.026
	C406.101,334.741,432.088,333.433,433.021,333.504z"/>
<path id="i13.1" fill-rule="evenodd" clip-rule="evenodd" fill="none" stroke="#000000" stroke-miterlimit="10" d="M715.283,352.277
	c0,2.611-6.459,119.806-6.459,121.046c-2.119,0.146-112.436,1.035-113.264,1.214c-2.131,0.461,0.131-115.656,0.004-122.265
	C595.539,350.937,712.629,352.277,715.283,352.277z"/>
<path id="i15.1" fill-rule="evenodd" clip-rule="evenodd" fill="none" stroke="#000000" stroke-miterlimit="10" d="M172.476,246.364
	c1.124,0.127,101.523,5.219,101.525,6.5c0.017,6.138-7.782,103.437-7.874,103.73c-2.397-0.478-93.146-5.743-93.336-5.729
	C171.944,344.137,172.476,247.865,172.476,246.364z"/>
<path id="i3.1" fill-rule="evenodd" clip-rule="evenodd" fill="none" stroke="#000000" stroke-miterlimit="10" d="M443.705,177.037
	c0.266,1.033-5.562,81.128-5.48,82.754c-4.359,0.278-74.549-1.315-75.687-1.386c-1.892-0.118,0.407-83.095,0.524-83.562
	C364.428,174.842,442.6,177.037,443.705,177.037z"/>
<path id="i18.1" fill-rule="evenodd" clip-rule="evenodd" fill="none" stroke="#000000" stroke-miterlimit="10" d="M522.262,111.174
	c-0.586-39.824-1.102-73.66-1.102-81.214c11.83,0.292,71.986,3.983,79.357,4.665c0,12.697-5.062,65.78-6.904,81.413
	C593.613,116.038,534.076,111.933,522.262,111.174z"/>
<path id="i5.1" fill-rule="evenodd" clip-rule="evenodd" fill="none" stroke="#000000" stroke-miterlimit="10" d="M374.441,293.009
	c-0.054,3.627-1.602,53.615-2.324,63.318c-3.991-0.647-68.424-1.141-68.556-2.933c-0.146-2.03,1.246-62.403,0.369-65.365
	C303.652,287.094,368.157,292.459,374.441,293.009z"/>
<path id="i17.1" fill-rule="evenodd" clip-rule="evenodd" fill="none" stroke="#000000" stroke-miterlimit="10" d="M597.445,166.173
	c0.834-1.664,66.955,0.948,69.973,1.084c1.258,0.056-1.061,67.269-1.107,67.839c-6.205-1.341-68.098-0.244-68.174-1.642
	C598.121,233.182,597.721,167.172,597.445,166.173z"/>
<path id="i7.1" fill-rule="evenodd" clip-rule="evenodd" fill="none" stroke="#000000" stroke-miterlimit="10" d="M608.748,325.947
	c-6.441-0.207-58.477,1.791-59.061,1.881c-0.123-0.555-1.229-68.239-1.162-68.566c7.602-0.43,56.572-0.971,62.082-1.108
	C611.883,258.123,609.002,323.434,608.748,325.947z"/>
<path id="i23.1" fill-rule="evenodd" clip-rule="evenodd" fill="none" stroke="#000000" stroke-miterlimit="10" d="M195.027,136.598
	c-0.223-2.21-2.26-50.721-2.751-57.488c7.516-0.432,61.06,0.652,61.712,0.742c-0.355,7.771-2.107,52.666-1.547,56.94
	C250.541,136.878,203.376,137.274,195.027,136.598z"/>
<path id="i16.1" fill-rule="evenodd" clip-rule="evenodd" fill="none" stroke="#000000" stroke-miterlimit="10" d="M286.354,446.193
	c0-2.121-0.745-55-1.349-60.265c7.927,0.537,55.888,0.008,61.587,0c0,0,0.134,61.949-0.004,61.898
	C342.923,446.454,287.625,446.102,286.354,446.193z"/>
<path id="i6.1" fill-rule="evenodd" clip-rule="evenodd" fill="none" stroke="#000000" stroke-miterlimit="10" d="M444.975,405.271
	c0.764-7.756,5.596-57.312,5.285-61.79c3.605,0.178,56.273,3.262,69.564,3.87c-1.787,14.841-5.752,55.048-5.52,59.442
	C510.885,407.144,452.609,406.032,444.975,405.271z"/>
<path id="i1.1" fill-rule="evenodd" clip-rule="evenodd" fill="none" stroke="#000000" stroke-miterlimit="10" d="M520.545,316.887
	c-12.436,0.283-52.051-1.754-52.93-1.872c-0.07-0.644,1.082-51.882,1.48-55.779c9.676-0.359,47.148,1.659,55.191,2.396
	C524.287,266.934,520.623,315.738,520.545,316.887z"/>
<path id="i10.1" fill-rule="evenodd" clip-rule="evenodd" fill="none" stroke="#000000" stroke-miterlimit="10" d="M759.594,126.926
	c0.293-5.042,3.777-55.827,3.916-57.228c-2.908,0-52.607-0.508-62.52-0.337c0.279,2.951,1.324,46.752,2.082,55.673
	C704.777,125.067,754.773,126.835,759.594,126.926z"/>
<path id="i14.1" fill-rule="evenodd" clip-rule="evenodd" fill="none" stroke="#000000" stroke-miterlimit="10" d="M750.273,503.391
	c0,6.259-1.846,44.097-1.951,54.425c-11.398,0-51.303-1.08-55.189-1.201c-1.121-17.768-3.143-35.37-3.592-53.026
	C690.971,502.438,743.4,503.604,750.273,503.391z"/>
<path id="i26.1" fill-rule="evenodd" clip-rule="evenodd" fill="none" stroke="#000000" stroke-miterlimit="10" d="M569.557,377.494
	c-0.688-0.08-23.023,0-25.098,0c0.027-1.377,1.396-24.874,1.568-28.592c5.133,0.115,21.234,0.794,25.979,1.028
	C571.807,353.283,569.598,377.257,569.557,377.494z"/>
<path id="i24.1" fill-rule="evenodd" clip-rule="evenodd" fill="none" stroke="#000000" stroke-miterlimit="10" d="M331.831,156.468
	c0,4.694,2.026,67.462,1.4,66.56c-5.04,0-60.379,1.138-61.042,1.107c-1.292-0.057-8.824-63.259-9.655-66.37
	C264.076,157.659,331.13,156.385,331.831,156.468z"/>
<path id="i22.1" fill-rule="evenodd" clip-rule="evenodd" fill="none" stroke="#000000" stroke-miterlimit="10" d="M64.463,371.981
	c8.07-0.527,55.264,0.104,56.561,0.169c-0.154,3.021-2.424,45.872-3.251,57.745c-18.499,0-42.143,0.003-52.386,0.912
	C64.233,411.191,65.054,384.274,64.463,371.981z"/>
<path id="i12.1" fill-rule="evenodd" clip-rule="evenodd" fill="none" stroke="#000000" stroke-miterlimit="10" d="M423.789,382.78
	c-0.295,1.466-1.291,39.47-1.365,44.335c-0.022,1.592-43.771,1.47-49.107,2.562c-0.103-1.044-0.986-42.92-0.176-46.247
	C373.294,382.807,422.775,382.7,423.789,382.78z"/>
<path id="i19.1" fill-rule="evenodd" clip-rule="evenodd" fill="none" stroke="#000000" stroke-miterlimit="10" d="M401.442,148.281
	c-4.879,0.624-35.725,3.185-44.41,4.033c-0.646-7.782-0.858-30.194,0.011-40.912c7.15-0.393,37.929-1.121,44.302-1.029
	C402.413,116.113,400.987,143.311,401.442,148.281z"/>
<path id="i25.1" fill-rule="evenodd" clip-rule="evenodd" fill="none" stroke="#000000" stroke-miterlimit="10" d="M202.723,222.663
	c0.048-1.175-2.09-32.661-2.174-33.449c0.752-0.111,33.637-0.818,38.466-0.008c0,0,0,25.052,0,30.942
	C239.125,220.455,212.291,222.73,202.723,222.663z"/>
<path id="i20.1" fill-rule="evenodd" clip-rule="evenodd" fill="none" stroke="#000000" stroke-miterlimit="10" d="M259.561,382.933
	c-0.044,2.939,0.124,38.615,0.017,38.945c-2.623,0.632-41.133,0.035-40.941,0.045c-0.181-6.24-0.251-38.085-0.136-39.088
	C218.599,381.968,259.611,382.916,259.561,382.933z"/>
<path id="i4.1" fill-rule="evenodd" clip-rule="evenodd" fill="none" stroke="#000000" stroke-miterlimit="10" d="M399.875,319.426
	c0.236-2.883-0.135-31.888,0.276-32.677c0.335-0.642,36.964-0.946,40.097-0.902c0.756,10.204,0.514,21.018,1.301,31.519
	C440.863,317.495,401.888,319.047,399.875,319.426z"/>
<path id="i8.1" fill-rule="evenodd" clip-rule="evenodd" fill="none" stroke="#000000" stroke-miterlimit="10" d="M538.613,198.405
	c6.619,0.245,33.383,0.625,35.75,0.608c1.154,3.768,2.014,34.996,2.189,37.578c0.055,0.818-28.238,0.689-36.596,0.535
	C538.527,229.945,539.455,209.354,538.613,198.405z"/>
<path id="i11.1" fill-rule="evenodd" clip-rule="evenodd" fill="none" stroke="#000000" stroke-miterlimit="10" d="M636.459,322.984
	c-1.102-8.597-1.516-17.153-1.217-26.034c1.277-0.257,23.871,0.088,26.477,0.292c0.164,4.328,0.002,21.258-0.266,25.933
	C660.607,323.332,644.076,323.27,636.459,322.984z"/>
<path id="i9.1" fill-rule="evenodd" clip-rule="evenodd" fill="none" stroke="#000000" stroke-miterlimit="10" d="M426.049,341.832
	c-0.164,5.977-0.441,15.386,0,20.405c-3.203,0.211-12.005,0.009-17.104,0c0-4.257,0.283-18.545,0.419-20.405
	C415.1,341.832,420.415,341.832,426.049,341.832z"/>
<path id="i21" fill-rule="evenodd" clip-rule="evenodd" fill="none" stroke="#000000" stroke-miterlimit="10" d="M346.471,270.904
	c-12.074,0.882-24.286,0.728-36.227,1.599c-0.615-4.651-2.052-25.918-2.39-31.892c3.241-0.143,31.741-1.042,36.008-1.206
	C344.048,244.065,346.5,269.97,346.471,270.904z"/>
<path id="i21.1" fill-rule="evenodd" clip-rule="evenodd" fill="none" stroke="#000000" stroke-miterlimit="10" d="M337.843,264.306
	c-5.978,0.1-15.39,0.237-20.385,0.899c-0.352-3.19-0.538-11.993-0.754-17.088c4.252-0.188,18.539-0.535,20.404-0.481
	C337.361,253.367,337.595,258.678,337.843,264.306z"/>
</svg>
