<?xml version="1.0" encoding="utf-8"?>
<!-- Generator: Adobe Illustrator 17.1.0, SVG Export Plug-In . SVG Version: 6.00 Build 0)  -->
<!DOCTYPE svg PUBLIC "-//W3C//DTD SVG 1.1//EN" "http://www.w3.org/Graphics/SVG/1.1/DTD/svg11.dtd">
<svg version="1.1" id="Layer_1" xmlns="http://www.w3.org/2000/svg" xmlns:xlink="http://www.w3.org/1999/xlink" x="0px" y="0px"
	 viewBox="0 0 1920 1080" enable-background="new 0 0 1920 1080" xml:space="preserve">
<path id="i10" opacity="0.8" fill="#89605B" enable-background="new    " d="M592.6,970.6c-7.5,0.6-89.9-10.2-103.6-8.8
	c-1-24.4,17.8-195.7,17.4-203.7c9.2-0.6,87.9,3,99.1,1.7C604.5,771.1,592.6,970.6,592.6,970.6z"/>
<path id="i5" opacity="0.8" fill="#141314" enable-background="new    " d="M706.6,768.3c20.2-3.4,276.2-10.7,302.4-10.9
	c0.9,15,8.6,62.5,7.7,74.8c-19.3,4-275.5,19.9-310.2,24.8C704,805.1,705.8,795.7,706.6,768.3z"/>
<path id="i2" opacity="0.8" fill="#5B413E" enable-background="new    " d="M784.8,642.7c0.1-26.8,34.2-236,36.5-244.6
	c50.1,2,204,4.2,220.7,4.2c0.9,21.2,6.9,218.8,5.3,234.1C1017.6,637.4,945.7,633.8,784.8,642.7z"/>
<path id="i2.1" opacity="0.8" fill="#373335" enable-background="new    " d="M864.9,466.8c0,0,25.2-2.6,34.4-2.6
	c0.6,23.2-1.9,47.4-0.9,69.9c-7.8,0.6-38.5,2.1-41,1.9C857.4,536,863.4,473.1,864.9,466.8z"/>
<path id="i2.1.1" opacity="0.8" fill="#89605B" enable-background="new    " d="M869.4,518.7c0,0,3.7,0,4.5,0.1
	c0,0.7,0.1,5.5,0.1,5.5c-0.8,0-4.4,0.1-5,0.1C869,524.4,869.3,520,869.4,518.7z"/>
<path id="i3" opacity="0.8" fill="#141314" enable-background="new    " d="M1075,603.7c-2.3-7.1-2.8-286.2-2.3-289.5
	c8.9-5.1,112-2.8,127.8-4.1c1.4,5.3,7.2,282.2,4.6,285.1C1201.4,599.4,1075,603.7,1075,603.7z"/>
<path id="i6" opacity="0.8" fill="#373335" enable-background="new    " d="M976.2,577.1l425.2-21.4c0,10.8,1.7,204.8,1.9,233.7
	c-22.5,0.9-417.4-1.2-425.2-2.1C978.2,787.2,976.2,590.1,976.2,577.1z"/>
<path id="i3.1" opacity="0.8" fill="#373335" enable-background="new    " d="M1135.7,469.4c0,0,0.2-45.2,0-49.9
	c-11.2-0.6-22.6,0.3-33.6-1.2c-1.1,16.5-0.1,34.7-0.1,50.3C1129.2,470.4,1119,469.9,1135.7,469.4z"/>
<path id="i1" opacity="0.8" fill="#89605B" enable-background="new    " d="M1284.7,849.2c0,0,4.6-261.2,1.7-340.7
	c-8.8,1.3-119,2.6-129.5,2.7c-2.2,11.4-6,326.4-4.5,337.6C1152.4,848.8,1277.9,849.2,1284.7,849.2z"/>
<path id="i1.1" opacity="0.8" fill="#141314" enable-background="new    " d="M1225.6,709c-1.6-36.4,0-70.1,0.5-85.6
	c0,0,11.5-1.2,47.1,0.9c0.4,15.8,0.5,72.9,0,84.6C1263.6,710.2,1225.6,709,1225.6,709z"/>
<path id="i4" opacity="0.8" fill="#89605B" enable-background="new    " d="M1331.7,395.5c27.5-2.4,88.5-9.6,133.1-8.9
	c1.4,15,12.9,288.4,5.8,334.9c-34.4,2.7-120-2.3-140.7-4.1C1329.9,717.3,1331.2,407.8,1331.7,395.5z"/>
<path id="i4.1" opacity="0.8" fill="#5B413E" enable-background="new    " d="M1372,419.3c8-1.5,62.3-2.4,63.1-0.6
	c0.4,1,3.6,65.5,1.9,67.4c-1.1,1.2-50.7,1.1-59.9,3.6C1377.1,489.6,1373.8,441,1372,419.3z"/>
<path id="i4.1.1" opacity="0.8" fill="#141314" enable-background="new    " d="M1389,477.1c-0.3-2.1-2.6-9.6-1.5-11.3
	c0.7-1.1,25.3-0.5,32-1c0.1,1.7,1.2,8.5,0.5,9.7C1418.5,476.8,1389,477.1,1389,477.1z"/>
<path id="i8" opacity="0.8" fill="#89605B" enable-background="new    " d="M1565.1,835.9c-1.1-5.5-2.1-146.3-2.1-146.9
	c6.6-2.3,56.3-10.8,64.4-11.1c2,15.8-0.2,154.3-0.4,161C1624,839.2,1565.1,835.9,1565.1,835.9z"/>
<path id="i7" opacity="0.8" fill="#5B413E" enable-background="new    " d="M1511.3,918.9c10.2,1,62.2-0.7,71.1,0
	c0.2-2.2-1.3-157.4-1.1-164c-2.2-0.3-55.9,5.5-59.5,7.1C1518.5,768.2,1511.3,918.9,1511.3,918.9z"/>
<path id="i9" opacity="0.8" fill="#373335" enable-background="new    " d="M1567.7,170.4c0.6-9.6-1.7-89.2-1.8-91.4
	c9.7-0.5,121.7-0.1,132.7,0.4c1.8,6.8,5.4,72.8,5.4,88.2C1691.9,167.3,1567.7,170.4,1567.7,170.4z"/>
<path id="i9.1" opacity="0.8" fill="#141314" enable-background="new    " d="M1597.3,123.4c-0.4-6.1,0.4-12.9,0.6-19.1
	c4.3-0.1,34.2-2.3,37.7-2c0.2,6.9-0.3,14.8-0.7,21.8C1624.3,124.6,1597.3,123.4,1597.3,123.4z"/>
<path id="i2.1.2" opacity="0.8" fill="#89605B" enable-background="new    " d="M888.1,524.3c0,0-3.7,0.3-4.5,0.3
	c-0.1-0.7-0.5-5.5-0.5-5.5c0.8-0.1,4.3-0.5,5-0.5C888.1,518.6,888.1,523.1,888.1,524.3z"/>
</svg>
