<?xml version="1.0" encoding="utf-8"?>
<!-- Generator: Adobe Illustrator 17.1.0, SVG Export Plug-In . SVG Version: 6.00 Build 0)  -->
<!DOCTYPE svg PUBLIC "-//W3C//DTD SVG 1.1//EN" "http://www.w3.org/Graphics/SVG/1.1/DTD/svg11.dtd">
<svg version="1.1" id="Layer_1" xmlns="http://www.w3.org/2000/svg" xmlns:xlink="http://www.w3.org/1999/xlink" x="0px" y="0px"
	 viewBox="0 0 1920 1080" enable-background="new 0 0 1920 1080" xml:space="preserve">
<path id="i9" opacity="0.76" fill-rule="evenodd" clip-rule="evenodd" fill="#0000FF" d="M1293,760.7c1.7,79.1,1,158,9,237.5
	c26.5-4.6,242,3.6,242-3.4c0-66.6-3-170.5-8.2-230.2C1455.2,758.3,1374.6,751.8,1293,760.7z"/>
<path id="i8" opacity="0.76" fill-rule="evenodd" clip-rule="evenodd" fill="#0000FF" d="M834.5,760.7c1.7,79.1,1,158,9,237.5
	c26.5-4.6,242,3.6,242-3.4c0-66.6-3-170.5-8.2-230.2C996.7,758.3,916.1,751.8,834.5,760.7z"/>
<path id="i7" opacity="0.76" fill-rule="evenodd" clip-rule="evenodd" fill="#0000FF" d="M376,760.7c1.7,79.1,1,158,9,237.5
	c26.5-4.6,242,3.6,242-3.4c0-66.6-3-170.5-8.2-230.2C538.2,758.3,457.6,751.8,376,760.7z"/>
<path id="i6" opacity="0.76" fill-rule="evenodd" clip-rule="evenodd" fill="#0000FF" d="M1293,433.2c1.7,79.1,1,158,9,237.5
	c26.5-4.6,242,3.6,242-3.4c0-66.6-3-170.5-8.2-230.2C1455.2,430.9,1374.6,424.3,1293,433.2z"/>
<path id="i5" opacity="0.76" fill-rule="evenodd" clip-rule="evenodd" fill="#0000FF" d="M834.5,433.2c1.7,79.1,1,158,9,237.5
	c26.5-4.6,242,3.6,242-3.4c0-66.6-3-170.5-8.2-230.2C996.7,430.9,916.1,424.3,834.5,433.2z"/>
<path id="i4" opacity="0.76" fill-rule="evenodd" clip-rule="evenodd" fill="#0000FF" d="M376,433.2c1.7,79.1,1,158,9,237.5
	c26.5-4.6,242,3.6,242-3.4c0-66.6-3-170.5-8.2-230.2C538.2,430.9,457.6,424.3,376,433.2z"/>
<path id="i3" opacity="0.76" fill-rule="evenodd" clip-rule="evenodd" fill="#0000FF" d="M1293,105.8c1.7,79.1,1,158,9,237.5
	c26.5-4.6,242,3.6,242-3.4c0-66.6-3-170.5-8.2-230.2C1455.2,103.4,1374.6,96.9,1293,105.8z"/>
<path id="i2" opacity="0.76" fill-rule="evenodd" clip-rule="evenodd" fill="#0000FF" d="M834.5,105.8c1.7,79.1,1,158,9,237.5
	c26.5-4.6,242,3.6,242-3.4c0-66.6-3-170.5-8.2-230.2C996.7,103.4,916.1,96.9,834.5,105.8z"/>
<path id="i1" opacity="0.76" fill-rule="evenodd" clip-rule="evenodd" fill="#0000FF" d="M376,105.8c1.7,79.1,1,158,9,237.5
	c26.5-4.6,242,3.6,242-3.4c0-66.6-3-170.5-8.2-230.2C538.2,103.4,457.6,96.9,376,105.8z"/>
</svg>
