<?xml version="1.0" encoding="utf-8"?>
<!-- Generator: Adobe Illustrator 17.1.0, SVG Export Plug-In . SVG Version: 6.00 Build 0)  -->
<!DOCTYPE svg PUBLIC "-//W3C//DTD SVG 1.1//EN" "http://www.w3.org/Graphics/SVG/1.1/DTD/svg11.dtd">
<svg version="1.1" id="Layer_1" xmlns="http://www.w3.org/2000/svg" xmlns:xlink="http://www.w3.org/1999/xlink" x="0px" y="0px"
	 viewBox="0 0 960.3 540.2" enable-background="new 0 0 960.3 540.2" xml:space="preserve">
<path id="i2" opacity="0.85" fill="#ED8620" d="M355.5,46.1c105.1-1,208.7-0.5,309.1,3.3c38.6-119,89.6-226.9,144.6-331.2
	c-36.6-13.2-322-151.8-394.7-171.3C413.1-453.3,370.6-105.8,355.5,46.1z"/>
<path id="i4" opacity="0.75" fill="#E59844" d="M-726.1-425.4c-10.5,0.1-21.2-0.9-31.2,0.8c0.7,8.8,0.2,18.8,1.3,27
	c11.2,0,18.2,0.5,30.5,0.5C-726.5-409.5-725.2-415.7-726.1-425.4z"/>
<path id="i6" opacity="0.75" fill="#E59844" d="M-627.2-418.1c-17.2-1.2-29.4,0.8-43,1.6c0.6,13.2,0.9,25.5,1.8,38.5
	c16.7,0.2,28.4-1.1,42.6-0.4C-626.6-394.2-625.9-403.8-627.2-418.1z"/>
<path id="i5" opacity="0.75" fill="#E59844" d="M-710.1-337.3c-14.8,0-29.9-0.6-44.6-0.4c-0.1,11.7,0.9,22.4,2.1,34.7
	c19.9-0.3,28.9-0.4,44.5-0.4C-709-318.2-709-326.2-710.1-337.3z"/>
<path id="i3" opacity="0.75" fill="#E59844" d="M-662.1-287c-13.7-0.7-19.9,1-32.5,1.5c1.5,7.4,3.4,19.6,4.8,28.6
	c12.8-1.3,16.3,0.3,32.1-0.5C-659.5-269-659.6-275.4-662.1-287z"/>
<path id="i11" opacity="0.9" fill="#E58217" d="M-647.3,175c3,17.1,6.4,35.6,5.7,48.4c126.1-7.3,255-7.5,385.1-10
	c129.8-2.5,262.6,10.3,392.2,4.1c3.3-19.6,6.8-42.5,6.2-59.7C-128.5,153.2-384.3,164.9-647.3,175z"/>
<path id="i7" opacity="0.85" fill="#E58217" d="M-40.5,141.2c-3.5,19.9-4.5,38.6-4,56.6c105.3-10.4,219.3-3.8,331.8-0.1
	c-0.2-21.1-1.2-41.3-4.7-51.3C247.5,149-6.4,142.4-40.5,141.2z"/>
<path id="i9" opacity="0.85" fill="#E58217" d="M181,203c1.2,7.4-1.1,16.8-2.2,25.4c106.5-8.6,254.4-1.9,380.2-5.1
	c0.7-9.7-0.3-18.6-2.5-26.8C427.5,196.6,302.9,195.3,181,203z"/>
<path id="i8" opacity="0.85" fill="#E5620E" d="M340.7,228.3c-0.5-3.5-1.5-6.9-1.6-9.8c-114.9-0.4-369.3,0.7-377.8,2.8
	c-2.3,0.6-4.7,11.4,0.2,11.2C18.2,230.9,230.9,233.1,340.7,228.3z"/>
<path id="i10" opacity="0.95" fill="#E58217" d="M194.6,359.8c-49-5.5-554.2,3.6-587.8,3.9c-2.1,0,3.5,11.9,2.3,18
	c21.1-2.3,489.9,1,587-4C196,369.6,195.9,363.6,194.6,359.8z"/>
<path id="i12" opacity="0.85" fill="#E58217" d="M-100.7,413.1c3.5,19.9,13,36,19.2,54.3c75,4.3,142.4-3.2,215.6-1.7
	c0.5-22.7-1.5-43.8-5.3-63.9C53.5,407.5-27.2,404.8-100.7,413.1z"/>
<path id="i13" opacity="0.95" fill="#E58217" d="M384.9,442.1c-0.3,4.7-1.7,13.6-2.1,23.5c45.6-0.2,91.6,0.3,138,1.2
	c-2.8-7.7-2.6-17.1-6-24.7C472,442.7,420.9,435.5,384.9,442.1z"/>
<path id="i1" opacity="0.85" fill="#E58217" d="M884.1-296.6c-14.3,0.3-429.5,7.5-435.8,7.8l0.9-21.4c3.5,0.6,417.3-5.7,435.3-6.4
	L884.1-296.6z"/>
</svg>
