<?xml version="1.0" encoding="utf-8"?>
<!-- Generator: Adobe Illustrator 17.1.0, SVG Export Plug-In . SVG Version: 6.00 Build 0)  -->
<!DOCTYPE svg PUBLIC "-//W3C//DTD SVG 1.1//EN" "http://www.w3.org/Graphics/SVG/1.1/DTD/svg11.dtd">
<svg version="1.1" id="Layer_1" xmlns="http://www.w3.org/2000/svg" xmlns:xlink="http://www.w3.org/1999/xlink" x="0px" y="0px"
	 viewBox="0 0 960 540" enable-background="new 0 0 960 540" xml:space="preserve">
<path id="i2" opacity="0.85" fill="#ED8620" d="M347.3,38.3c105,2.7,208.6,6.8,308.8,14.1c42.7-117.6,97.4-223.7,156-326
	c-36.1-14.5-316.5-162.9-388.5-184.9C422.3-458.8,367.6-113,347.3,38.3z"/>
<path id="i4" opacity="0.75" fill="#E59844" d="M-731.1-429.4c-9.9,3.5-20.3,6-29.3,11c3.5,8.1,6.3,17.7,10,25.1
	c10.6-3.7,17.3-5.5,29-9.4C-726.3-414.2-727.1-420.5-731.1-429.4z"/>
<path id="i6" opacity="0.75" fill="#E59844" d="M-633.6-423.1c-16.8,3.9-27.9,9.4-40.6,14.1c4.4,12.5,8.3,24.1,13,36.3
	c16-4.7,26.9-9.4,40.6-12.8C-626-400.4-628.2-409.8-633.6-423.1z"/>
<path id="i5" opacity="0.75" fill="#E59844" d="M-716.5-343.2c-14,4.8-28.4,9.2-42.3,14.1c3.7,11.1,8.1,20.9,13.3,32.1
	c18.7-6.8,27.2-9.8,42-14.9C-709.2-325.4-711.9-333.1-716.5-343.2z"/>
<path id="i3" opacity="0.75" fill="#E59844" d="M-672.9-292c-11.6,7.3-15.7,12.3-25.7,19.8c5.5,5.2,14.1,14.1,20.3,20.6
	c9.8-8.4,13.5-9.1,26-18.8C-660.4-278.7-664.2-283.9-672.9-292z"/>
<path id="i11" opacity="0.9" fill="#E58217" d="M-630.2,304.2c8.4,15.1,17.6,31.6,21.1,43.9c116.9-47.9,238.7-90.1,360.8-134.8
	C-126.2,168.7,3.4,137.6,124,89.5c-3.3-19.6-7.4-42.4-13.5-58.5C-146.7,114.7-384.8,209-630.2,304.2z"/>
<path id="i7" opacity="0.85" fill="#E58217" d="M-41.8,196.1c3.2,19.9,8.3,37.9,14.6,54.9c96.2-44.1,206.1-75,313.7-108.1
	c-7-19.8-14.6-38.7-21.1-47C233.1,109.7-9.1,186-41.8,196.1z"/>
<path id="i9" opacity="0.85" fill="#E58217" d="M185.8,255.6c3.2,6.8,3.6,16.4,4.9,25.1c100-37.6,244-71.9,364.1-109.7
	c-2-9.5-5.4-17.8-9.8-25.1C421.1,181.6,301,214.6,185.8,255.6z"/>
<path id="i8" opacity="0.85" fill="#E5620E" d="M330.5,163.1c-1.6-3.1-3.8-6-4.9-8.6C217.5,193.4-21.2,281.5-28.5,286.4
	c-2,1.4-0.5,12.3,4.1,10.4C28.3,275.9,228.9,205.2,330.5,163.1z"/>
<path id="i10" opacity="0.95" fill="#E58217" d="M187.4,304.2c-49.2,3.9-543.3,109.3-576.2,116c-2,0.4,5.7,11,5.7,17.2
	c20.3-6.3,481.1-92.5,575.4-116C190.7,313.6,189.5,307.7,187.4,304.2z"/>
<path id="i12" opacity="0.85" fill="#E58217" d="M-101.9,440.5c7.8,18.6,20.8,32.2,30.9,48.6C3,476.4,67,454,138.7,439
	c-4.6-22.2-11.3-42.4-19.5-61.1C47.1,400.3-32.1,415.9-101.9,440.5z"/>
<path id="i13" opacity="0.95" fill="#E58217" d="M384.1,453.1c0.4,4.7,0.4,13.7,1.6,23.5c45-7.3,90.6-14,136.5-20.4
	c-3.9-7.2-5.3-16.5-9.8-23.5C470.2,440,418.6,440.9,384.1,453.1z"/>
<path id="i1" opacity="0.85" fill="#E58217" d="M873.4-371.3c-13.3,5.2-401,153.9-406.9,156.4l-6.5-20.4
	c3.5-0.7,390.2-148.1,406.9-154.9L873.4-371.3z"/>
</svg>
