<?xml version="1.0" encoding="utf-8"?>
<!-- Generator: Adobe Illustrator 17.1.0, SVG Export Plug-In . SVG Version: 6.00 Build 0)  -->
<!DOCTYPE svg PUBLIC "-//W3C//DTD SVG 1.1//EN" "http://www.w3.org/Graphics/SVG/1.1/DTD/svg11.dtd">
<svg version="1.1" id="Layer_1" xmlns="http://www.w3.org/2000/svg" xmlns:xlink="http://www.w3.org/1999/xlink" x="0px" y="0px"
	 viewBox="0 0 841.9 595.3" enable-background="new 0 0 841.9 595.3" xml:space="preserve">
<path id="i1" opacity="0.85" fill="#49BB8E" d="M414.9,69.3C403,79.1,178.3,450.1,180.1,469.5c0.5,0.3,38.6,20.2,39.4,20.5
	C232.4,475.9,452.2,95.4,453,94.1C450.7,90,415.5,69.6,414.9,69.3z"/>
<path id="i7" opacity="0.85" fill="#16BECE" d="M221.8,549.8c0.7-1.1,53.5-99.9,55-103.3c-2.8-2.8-4.7-2.2-6.8-3.4
	c-3.5,0-53.4,100.8-54.7,102.7C216.9,547.9,219.4,548.4,221.8,549.8z"/>
<path id="i8" opacity="0.85" fill="#16BECE" d="M130.9,479.7c1.6,1.8,3.4,3.2,6.1,3.5c1.9-2.9,51.5-89.5,54.2-94.2
	c-1.4-2.6-5.5-3.1-6.2-3.5C182.1,384.2,131.8,478.1,130.9,479.7z"/>
<path id="i4" opacity="0.85" fill="#AAD03F" d="M131.2,305.2c4-3.7,29.4-31.6,33.5-36.1c-5.6-7.5-22.2-29.1-27.4-35.1
	c-3,1.9-35.1,32.5-39.9,38.3C101.8,275.6,125.8,301.4,131.2,305.2z"/>
<path id="i5" opacity="0.85" fill="#16BECE" d="M363.3,115.8c1.4-0.6,41.2-63.9,42.5-68.2c0.5-1.1-1.9-1.4-3.1-2.7
	c-2.2-1.4-43,68.1-43.5,69.1C360.7,114.4,361.2,115.6,363.3,115.8z"/>
<path id="i10" opacity="0.85" fill="#098793" d="M285.2,478.3c-0.5,0.7-32.9,60.3-33.4,61.2c1.2,0.6,2.7,2.9,4.4,2.7
	c1.3-1.8,33.2-59.7,33.7-61.5C289.5,480.3,287.4,478.5,285.2,478.3z"/>
<path id="i11" opacity="0.85" fill="#098793" d="M384.3,55.3c-1.2-0.4-3.1-1.1-3.7-1.4c-1.2-0.5-30.2,41.6-30.6,42.5
	c0.7,0.3,2.5,2.6,2.9,2.7C354.9,98.9,383.4,56.6,384.3,55.3z"/>
<path id="i6" opacity="0.85" fill="#16BECE" d="M460.9,121.2c0.5-0.7,23-42,23.3-42.9c-1.3-0.9-2.5-2.6-3-1.8
	c-0.6,0.9-21.8,37.6-23,42C459.7,119.8,459.1,120,460.9,121.2z"/>
<path id="i2" opacity="0.85" fill="#D6C13C" d="M268.8,243.3c5.2,3.4,10.6,7.6,16.1,10.3c3-3.6,9.1-12.6,10.3-16
	c-0.6-0.2-12.1-6.7-17.4-9C275.3,232.2,272.1,237.8,268.8,243.3z"/>
<path id="i12" opacity="0.85" fill="#098793" d="M488.9,94.6c-1.2,2-6.7,11.1-7.6,12.8c0.7,1.1,2.2,1.6,2.8,1.8
	c0.9,0.3,6-10.1,7.5-12.6C491.5,95.4,489.7,95.1,488.9,94.6z"/>
<path id="i3" opacity="0.85" fill="#D3D637" d="M245.2,260.7c-3.7,0.7-36.5,5.2-36.9,5.2c-1.4-8.3-6.1-33.2-7.1-39.8
	c5.1-0.6,32-4.6,39.2-4.8C242.1,230.7,245.3,252.4,245.2,260.7z"/>
<path id="i9" opacity="0.85" fill="#098793" d="M157,388.7c-0.3-3,37-55.8,38.7-58.7c0.2-0.4,4.2,1.7,5.5,2.9
	c-1,1.2-38.6,60.3-39.8,59.8C159,391.8,157.5,389.2,157,388.7z"/>
</svg>
