<?xml version="1.0" encoding="utf-8"?>
<!-- Generator: Adobe Illustrator 15.1.0, SVG Export Plug-In . SVG Version: 6.00 Build 0)  -->
<!DOCTYPE svg PUBLIC "-//W3C//DTD SVG 1.1//EN" "http://www.w3.org/Graphics/SVG/1.1/DTD/svg11.dtd">
<svg version="1.1" id="Layer_1" xmlns="http://www.w3.org/2000/svg" xmlns:xlink="http://www.w3.org/1999/xlink" x="0px" y="0px"
	 width="1920px" height="1080px" viewBox="0 0 1920 1080" enable-background="new 0 0 1920 1080" xml:space="preserve">
<rect x="658.104" y="46.084" fill="none" stroke="#000000" stroke-miterlimit="10" width="431.978" height="440.978"/>
<rect x="254.625" y="316.071" fill="none" stroke="#666666" stroke-miterlimit="10" width="431.978" height="440.978"/>
<rect x="421.116" y="449.564" fill="none" stroke="#777777" stroke-miterlimit="10" width="431.978" height="440.978"/>
<rect x="746.6" y="515.561" fill="none" stroke="#444444" stroke-miterlimit="10" width="431.978" height="440.978"/>
<rect x="859.094" y="202.076" fill="none" stroke="#111111" stroke-miterlimit="10" width="431.978" height="440.978"/>
<rect x="1234.076" y="308.571" fill="none" stroke="#333333" stroke-miterlimit="10" width="431.978" height="440.978"/>
<rect x="1021.086" y="431.565" fill="none" stroke="#222222" stroke-miterlimit="10" width="431.979" height="440.978"/>
<rect x="1079.584" y="592.058" fill="none" stroke="#555555" stroke-miterlimit="10" width="431.978" height="440.978"/>
<path opacity="0.78" fill-rule="evenodd" clip-rule="evenodd" fill="none" stroke="#000000" stroke-miterlimit="10" d="
	M797.652,176.959c-10.63,61.938-0.719,137.026,3.783,196.72c48.664,1.925,96.274-0.363,145.649,3.782
	c6.551-63.871-7.629-133.827,0-192.936C900.172,179.104,848.793,178.15,797.652,176.959z"/>
<path opacity="0.85" fill-rule="evenodd" clip-rule="evenodd" fill="none" stroke="#111111" stroke-miterlimit="10" d="
	M971.281,315.433c-6.193,61.891,2.279,138.122,1.893,202.395c67.988,0.107,127.52,8.671,194.828,9.458
	c8.219-69.817-15.074-133.14-7.566-202.396C1098.467,320.656,1035.588,317.332,971.281,315.433z"/>
<path fill="none" stroke="#333333" stroke-miterlimit="10" d="M1306.084,478.104c-0.631,36.647,0.967,62.597-1.891,94.577
	c88.326,8.31,180.949,0.73,274.273,7.565c-3.521-29.08,4.775-66.745,0-96.468C1487.225,488.992,1392.807,483.463,1306.084,478.104z"
	/>
<path fill="none" stroke="#666666" stroke-miterlimit="10" d="M392.472,506.478c0.524,22.175,3.002,42.396,1.892,66.204
	c44.985,0.279,99.404-0.609,143.757,5.675c4.296-18.402,0.717-44.681,1.892-66.204C491.38,509.713,443.292,506.729,392.472,506.478z
	"/>
<path fill="none" stroke="#222222" stroke-miterlimit="10" d="M1178.478,707.801c40.828-3.467,77.522,5.017,118.421,1.343
	c-1.053-36.22,5.575-69.78,0.374-107.434c-42.732,4.88-80.323-5.102-121.775-3.922
	C1182.25,636.451,1177.567,671.157,1178.478,707.801z"/>
<path fill="none" stroke="#777777" stroke-miterlimit="10" d="M485.157,691.849c96.175,0.62,196.345,1.004,293.188,5.674
	c2.742-16.804,1.778-37.313,1.891-56.745c-96.021-5.849-196.481,3.26-291.297-1.893
	C479.588,650.524,487.617,671.282,485.157,691.849z"/>
<path fill="none" stroke="#444444" stroke-miterlimit="10" d="M901.295,688.065c-3.114,26.805,0.866,66.318,0,88.902
	c36.289,2.857,81.451,6.75,119.167,1.892c2.438-28.117,1.381-63.67,0-87.011C988.309,688.849,937.324,686.852,901.295,688.065z"/>
<path fill="none" stroke="#555555" stroke-miterlimit="10" d="M1240.76,764.652c1.233,33.994,1.41,67.935,5.365,102.071
	c16.794,3.497,31.174,2.212,52.161,1.396c9.511-0.371,46.276,5.312,52.303-1.277c1.39-1.52,0.114-21.919-0.005-25.449
	c-0.95-28.216-0.068-52.471-5.361-76.623C1310.513,762.612,1275.812,760.299,1240.76,764.652z"/>
</svg>
