<?xml version="1.0" encoding="utf-8"?>
<!-- Generator: Adobe Illustrator 17.1.0, SVG Export Plug-In . SVG Version: 6.00 Build 0)  -->
<!DOCTYPE svg PUBLIC "-//W3C//DTD SVG 1.1//EN" "http://www.w3.org/Graphics/SVG/1.1/DTD/svg11.dtd">
<svg version="1.1" id="Layer_1" xmlns="http://www.w3.org/2000/svg" xmlns:xlink="http://www.w3.org/1999/xlink" x="0px" y="0px"
	 viewBox="0 0 960 540" enable-background="new 0 0 960 540" xml:space="preserve">
<path id="i9" opacity="0.6" fill="#BBBBBC" enable-background="new    " d="M415.8,506.7c17.4,0.3,44.6-1.9,62.8,0
	c0.1-21.8-2.2-43.4,0-62.9c-14.3,0-40.3,0-62.5,0.1C417.8,468.3,415.9,479.2,415.8,506.7z"/>
<path id="i15" opacity="0.1" fill="#BBBBBC" enable-background="new    " d="M125.1,254.9c0,0,681.5-2.5,701.3-8.4
	c12.4-136.1,5.5-377.3,12.4-541.6c-229.9,7.7-566.4,14.4-720,13.3C118.7-281.9,118.7,55.6,125.1,254.9z"/>
<path id="i14" opacity="0.6" fill="#BBBBBC" enable-background="new    " d="M345-100.6c17.4,0.3,44.6-1.9,62.8,0
	c0.1-21.8-2.2-43.4,0-62.9c-14.3,0-40.3,0-62.5,0.1C347-139,345.2-128,345-100.6z"/>
<path id="i1" opacity="0.3" fill="#BBBBBC" enable-background="new    " d="M-519-267.8c0,0,32.9-0.2,33.9-0.7
	c-0.2-10-0.2-32.7-0.7-39.1c-11.1,0.6-25.5,2.2-33,2.1C-518.9-305.5-519.3-282.4-519-267.8z"/>
<path id="i2" opacity="0.3" fill="#BBBBBC" enable-background="new    " d="M-577.9-150.7c0,0,32.9-0.2,33.9-0.7
	c-0.2-10-0.2-32.7-0.7-39.1c-11.1,0.6-25.5,2.2-33,2.1C-577.6-188.4-578.1-165.4-577.9-150.7z"/>
<path id="i3" opacity="0.3" fill="#BBBBBC" enable-background="new    " d="M311,183c0,0,32.9-0.2,33.9-0.7
	c-0.2-10-0.2-32.7-0.7-39.1c-11.1,0.6-25.5,2.2-33,2.1C311.1,145.2,310.7,168.3,311,183z"/>
<path id="i4" opacity="0.3" fill="#BBBBBC" enable-background="new    " d="M255,455.5c0,0,32.9-0.2,33.9-0.7
	c-0.2-10-0.2-32.7-0.7-39.1c-11.1,0.6-25.5,2.2-33,2.1C255.1,417.8,254.6,440.9,255,455.5z"/>
<path id="i5" opacity="0.3" fill="#BBBBBC" enable-background="new    " d="M627.2-92.3c0,0,32.9-0.2,33.9-0.7
	c-0.2-10-0.2-32.7-0.7-39.1c-11.1,0.6-25.5,2.2-33,2.1C627.4-130,626.9-106.9,627.2-92.3z"/>
<path id="i6" opacity="0.6" fill="#BBBBBC" enable-background="new    " d="M-208.8-100.6c17.4,0.3,44.6-1.9,62.8,0
	c0.1-21.8-2.2-43.4,0-62.9c-14.3,0-40.3,0-62.5,0.1C-206.8-139-208.6-128-208.8-100.6z"/>
<path id="i7" opacity="0.6" fill="#BBBBBC" enable-background="new    " d="M-208.6,304.7c0,0,90.2-0.5,92.8-1.5
	c-0.6-25-0.6-81.8-2.1-98c-30.5,1.4-70.1,5.3-90.3,5.1C-208.1,210.3-209.6,268-208.6,304.7z"/>
<path id="i8" opacity="0.6" fill="#BBBBBC" enable-background="new    " d="M-576.6,74.1c0,0,146-0.7,150.2-2.2
	c2.7-37.2,1.2-103.1,2.7-148c-49.2,2.2-121.4,3.9-154.2,3.7C-578-72.5-578,19.7-576.6,74.1z"/>
<path id="i10" opacity="0.1" fill="#BBBBBC" enable-background="new    " d="M-833.8,0.8c0,0,526-1.7,541.1-5.6
	c9.5-91.1,4.3-252.8,9.5-362.9c-177.3,5.2-437.1,9.7-555.7,8.9C-838.8-359-838.9-132.8-833.8,0.8z"/>
<path id="i11" opacity="0.3" fill="#BBBBBC" enable-background="new    " d="M686-209.3c0,0,32.9-0.2,33.9-0.7
	c-0.2-10-0.2-32.7-0.7-39.1c-11.1,0.6-25.5,2.2-33,2.1C686.2-247,685.7-223.9,686-209.3z"/>
<path id="i12" opacity="0.3" fill="#BBBBBC" enable-background="new    " d="M-502,344.5c0,0,32.9-0.2,33.9-0.7
	c-0.2-10-0.2-32.7-0.7-39.1c-11.1,0.6-25.5,2.2-33,2.1C-501.8,306.7-502.4,329.8-502,344.5z"/>
<path id="i13" opacity="0.6" fill="#BBBBBC" enable-background="new    " d="M-722.5-273.7c0.2,11.1-2.6,85.2-2.6,97.7
	c0,2.3,103.1,12.6,106.2,12.5c1.2-0.1-6.6-105.9-7.3-110.3C-626.7-276.9-713.4-274.9-722.5-273.7z"/>
</svg>
