<?xml version="1.0" encoding="utf-8"?>
<!-- Generator: Adobe Illustrator 17.1.0, SVG Export Plug-In . SVG Version: 6.00 Build 0)  -->
<!DOCTYPE svg PUBLIC "-//W3C//DTD SVG 1.1//EN" "http://www.w3.org/Graphics/SVG/1.1/DTD/svg11.dtd">
<svg version="1.1" id="Layer_1" xmlns="http://www.w3.org/2000/svg" xmlns:xlink="http://www.w3.org/1999/xlink" x="0px" y="0px"
	 viewBox="0 0 960 540" enable-background="new 0 0 960 540" xml:space="preserve">
<path id="i1" opacity="0.9" fill="#170D33" enable-background="new    " d="M201.6,143.9c10.9,0.5,288-23.1,291.5-26
	c3.3-2.9-4.9-85.9-9.1-106.4c-14.2-1.1-260-20.4-282.3-24.9C201.2-7,196.8,132.9,201.6,143.9z"/>
<path id="i2" opacity="0.9" fill="#170D33" enable-background="new    " d="M4.9-179.5c2.2,1.9,285.5-27.2,294.8-27
	c-0.4-8.4-9.6-89.8-9.2-110.5c6.3,2.2-290.6-23.7-285.5-25.8C2.2-328.8,5.3-194,4.9-179.5z"/>
<path id="i3" opacity="0.9" fill="#4F0E0E" enable-background="new    " d="M157.4,101.7c0.4-83-0.6-542.7,0.7-570.9
	c-15.5,4.2-26.4,1.7-35.7,3.2c0.8,184.8,0.1,382.5-0.3,566.9L157.4,101.7z"/>
<path id="i4" opacity="0.9" fill="#4F0E0E" enable-background="new    " d="M-509.1,200.1c119.7,0.6,783.5-0.2,824.1,1.7
	c-5.7-23-1.8-39-3.8-52.9c-266.7,1.1-552.1-0.1-818.3-0.9L-509.1,200.1z"/>
<path id="i5" opacity="0.9" fill="#4F0E0E" enable-background="new    " d="M13.3-58.6c79.2-0.9,517.6-9.4,544.4-8.5
	c-4.5-16.1-2.5-27.6-4.3-37.4c-176.2,3.9-364.9,6.4-540.6,8.9L13.3-58.6z"/>
<path id="i6" opacity="0.9" fill="#170D33" enable-background="new    " d="M-564.8,103.4c12.4,0.1,277.7-23.6,294.8-27
	c-1.2-9.7-8.6-103.7-9.2-110.5c-6.9-5.6-264.2-25.3-285.5-25.8C-563.9-49.6-566.1,91.1-564.8,103.4z"/>
<path id="i7" opacity="0.9" fill="#170D33" enable-background="new    " d="M-377.9,417.7c156.9,0.6,1026.3-6.1,1079.4-2.3
	c-8.5-50.4-4.3-85.7-7.6-116.4c-349.4,4.4-723.2,3.6-1071.8,3.7L-377.9,417.7L-377.9,417.7z"/>
<path id="i8" opacity="0.9" fill="#4F0E0E" enable-background="new    " d="M-259.3,394c0.7-100.4,0.7-656.7,2.4-690.8
	c-19.1,5.4-32.5,2.6-44.2,4.7c0.6,223.6-0.7,462.9-1.8,685.9L-259.3,394z"/>
<path id="i9" opacity="0.9" fill="#4F0E0E" enable-background="new    " d="M-407.8-28.3c0.5-63.2,0.2-412.8,1.1-434.3
	c-11.7,3.3-19.9,1.7-27,2.9c0.5,140.5-0.3,290.9-0.8,431.1L-407.8-28.3z"/>
<path id="i10" opacity="0.9" fill="#170D33" enable-background="new    " d="M-204.7,463c156.9,0.5,1026.3-4.8,1079.4-1.9
	c-8.5-39.9-4.3-67.6-7.6-91.9c-349.3,3.3-723.2,2.8-1071.8,2.9L-204.7,463L-204.7,463z"/>
<path id="i11" opacity="0.9" fill="#4F0E0E" enable-background="new    " d="M-505.3-97.4c59.9-0.7,391.4-7.2,411.6-6.6
	c-3.4-12.3-1.9-20.9-3.2-28.4c-133.3,3.1-275.8,4.9-408.8,6.8L-505.3-97.4z"/>
</svg>
