<?xml version="1.0" encoding="utf-8"?>
<!-- Generator: Adobe Illustrator 17.1.0, SVG Export Plug-In . SVG Version: 6.00 Build 0)  -->
<!DOCTYPE svg PUBLIC "-//W3C//DTD SVG 1.1//EN" "http://www.w3.org/Graphics/SVG/1.1/DTD/svg11.dtd">
<svg version="1.1" id="Layer_1" xmlns="http://www.w3.org/2000/svg" xmlns:xlink="http://www.w3.org/1999/xlink" x="0px" y="0px"
	 viewBox="0 0 960 540" enable-background="new 0 0 960 540" xml:space="preserve">
<path id="i1" opacity="0.9" fill="#170D33" enable-background="new    " d="M108.9,172.4l282.4-25.9c0,0-3.1-59.7-8.8-105.9
	L108.9,15.9V172.4z"/>
<path id="i2" opacity="0.9" fill="#170D33" enable-background="new    " d="M-78.3-143.9l282.4-25.9c0,0-3.1-59.7-8.8-105.9
	l-273.5-24.7V-143.9z"/>
<path id="i3" opacity="0.9" fill="#4F0E0E" enable-background="new    " d="M67.7,125.5c0.4-79.5-0.5-519.9,0.7-546.8
	c-14.8,4-25.2,1.6-34.2,3.1c0.8,177,0.1,366.4-0.3,543L67.7,125.5z"/>
<path id="i4" opacity="0.9" fill="#4F0E0E" enable-background="new    " d="M-570.7,219.7c114.7,0.6,750.5-0.2,789.4,1.6
	c-5.4-22-1.7-37.3-3.6-50.7c-255.5,1.1-528.9-0.1-783.8-0.9L-570.7,219.7z"/>
<path id="i5" opacity="0.9" fill="#4F0E0E" enable-background="new    " d="M-70.3-28.1c75.8-0.9,495.8-9,521.5-8.2
	c-4.3-15.5-2.4-26.4-4.1-35.8C278.3-68.4,97.6-66-70.8-63.6L-70.3-28.1z"/>
<path id="i6" opacity="0.9" fill="#170D33" enable-background="new    " d="M-624.1,127.1l282.4-25.9c0,0-3.1-59.7-8.8-105.9
	l-273.5-24.7V127.1z"/>
<path id="i7" opacity="0.9" fill="#170D33" enable-background="new    " d="M-445.1,428.1c150.3,0.5,983.1-5.9,1034-2.2
	c-8.2-48.3-4.1-82.1-7.3-111.5c-334.7,4.2-692.8,3.5-1026.7,3.6L-445.1,428.1L-445.1,428.1z"/>
<path id="i8" opacity="0.9" fill="#4F0E0E" enable-background="new    " d="M-331.4,405.5c0.7-96.2,0.7-629.1,2.3-661.7
	c-18.3,5.2-31.1,2.5-42.3,4.5c0.6,214.2-0.7,443.4-1.7,657.1L-331.4,405.5z"/>
<path id="i9" opacity="0.9" fill="#4F0E0E" enable-background="new    " d="M-473.7,0.9c0.4-60.5,0.2-395.5,1.1-416
	c-11.2,3.2-19,1.6-25.9,2.8c0.4,134.6-0.3,278.7-0.8,413L-473.7,0.9z"/>
<path id="i10" opacity="0.9" fill="#170D33" enable-background="new    " d="M-279.1,471.6c150.3,0.4,983.1-4.6,1034-1.8
	c-8.2-38.2-4.1-64.8-7.3-88C413,385,54.8,384.5-279.1,384.6L-279.1,471.6L-279.1,471.6z"/>
<path id="i11" opacity="0.9" fill="#4F0E0E" enable-background="new    " d="M-567.1-65.3c57.3-0.7,374.9-6.9,394.3-6.3
	c-3.3-11.8-1.8-20-3.1-27.2c-127.6,2.9-264.2,4.7-391.6,6.5L-567.1-65.3z"/>
</svg>
