<?xml version="1.0" encoding="utf-8"?>
<!-- Generator: Adobe Illustrator 17.1.0, SVG Export Plug-In . SVG Version: 6.00 Build 0)  -->
<!DOCTYPE svg PUBLIC "-//W3C//DTD SVG 1.1//EN" "http://www.w3.org/Graphics/SVG/1.1/DTD/svg11.dtd">
<svg version="1.1" id="Layer_1" xmlns="http://www.w3.org/2000/svg" xmlns:xlink="http://www.w3.org/1999/xlink" x="0px" y="0px"
	 viewBox="0 0 1080 1080" enable-background="new 0 0 1080 1080" xml:space="preserve">
<path id="i1" opacity="0.9" fill="#170D33" enable-background="new    " d="M123.8,422.9c11.8,0.5,310.4-24.9,314.1-28
	c3.6-3.1-5.3-92.6-9.8-114.7c-15.3-1.2-280.2-22-304.2-26.8C123.4,260.3,118.7,411,123.8,422.9z"/>
<path id="i2" opacity="0.9" fill="#170D33" enable-background="new    " d="M-88.1,74.4c2.4,2,307.7-29.3,317.7-29.1
	c-0.4-9-10.3-96.8-9.9-119.1c6.8,2.4-313.2-25.5-307.7-27.8C-91-86.5-87.7,58.7-88.1,74.4z"/>
<path id="i3" opacity="0.9" fill="#4F0E0E" enable-background="new    " d="M76.2,377.4c0.4-89.4-0.6-584.9,0.8-615.2
	c-16.7,4.5-28.4,1.8-38.5,3.5c0.9,199.1,0.1,412.2-0.3,610.9L76.2,377.4z"/>
<path id="i4" opacity="0.9" fill="#4F0E0E" enable-background="new    " d="M-642,483.4c129,0.7,844.3-0.2,888.1,1.8
	c-6.1-24.8-1.9-42-4.1-57c-287.4,1.2-595-0.1-881.8-1L-642,483.4z"/>
<path id="i5" opacity="0.9" fill="#4F0E0E" enable-background="new    " d="M-79.1,204.6c85.3-1,557.8-10.1,586.7-9.2
	c-4.8-17.4-2.7-29.7-4.6-40.3c-189.9,4.2-393.2,6.9-582.6,9.6L-79.1,204.6z"/>
<path id="i6" opacity="0.9" fill="#170D33" enable-background="new    " d="M-702.1,379.2c13.4,0.1,299.3-25.4,317.7-29.1
	c-1.3-10.4-9.3-111.8-9.9-119.1c-7.4-6-284.7-27.3-307.7-27.8C-701.1,214.3-703.5,366-702.1,379.2z"/>
<path id="i7" opacity="0.9" fill="#170D33" enable-background="new    " d="M-500.7,717.9c169.1,0.6,1106-6.6,1163.2-2.5
	c-9.2-54.3-4.6-92.4-8.2-125.4c-376.5,4.7-779.4,3.9-1155,4L-500.7,717.9L-500.7,717.9z"/>
<path id="i8" opacity="0.9" fill="#4F0E0E" enable-background="new    " d="M-372.8,692.4C-372,584.2-372-15.3-370.2-52
	c-20.6,5.8-35,2.8-47.6,5.1c0.7,241-0.8,498.8-1.9,739.2L-372.8,692.4z"/>
<path id="i9" opacity="0.9" fill="#4F0E0E" enable-background="new    " d="M-532.9,237.3c0.5-68.1,0.2-444.9,1.2-468
	c-12.6,3.6-21.4,1.8-29.1,3.1c0.5,151.4-0.3,313.5-0.9,464.6L-532.9,237.3z"/>
<path id="i10" opacity="0.9" fill="#170D33" enable-background="new    " d="M-314,766.8c169.1,0.5,1106-5.2,1163.2-2
	c-9.2-43-4.6-72.9-8.2-99c-376.4,3.6-779.4,3-1155,3.1V766.8L-314,766.8z"/>
<path id="i11" opacity="0.9" fill="#4F0E0E" enable-background="new    " d="M-638,162.8c64.5-0.8,421.8-7.8,443.6-7.1
	c-3.7-13.3-2-22.5-3.5-30.6c-143.6,3.3-297.2,5.3-440.5,7.3L-638,162.8z"/>
</svg>
