<?xml version="1.0" encoding="utf-8"?>
<!-- Generator: Adobe Illustrator 17.1.0, SVG Export Plug-In . SVG Version: 6.00 Build 0)  -->
<!DOCTYPE svg PUBLIC "-//W3C//DTD SVG 1.1//EN" "http://www.w3.org/Graphics/SVG/1.1/DTD/svg11.dtd">
<svg version="1.1" id="Layer_1" xmlns="http://www.w3.org/2000/svg" xmlns:xlink="http://www.w3.org/1999/xlink" x="0px" y="0px"
	 viewBox="0 0 1080 1080" enable-background="new 0 0 1080 1080" xml:space="preserve">
<path id="i13" opacity="0.8" fill="#89605B" enable-background="new    " d="M-549.3,732.8c-17.2,2.5-209.1-0.2-240.5,4.7
	c-5.7-41.2,13.7-335.6,11.7-349.1c21.2-2.8,203.5-11.6,229.2-16C-549.7,391.9-549.3,732.8-549.3,732.8z"/>
<path id="i4" opacity="0.8" fill="#141314" enable-background="new    " d="M-732.1,526.5c21-2.7,286.5-0.5,313.6,0.3
	c0.3,15.5,6.5,65,5.1,77.7c-20.1,3.4-286.1,10-322.2,13.7C-736.2,564.5-734,554.9-732.1,526.5z"/>
<path id="i2" opacity="0.8" fill="#5B413E" enable-background="new    " d="M-652.6,568c0.1-45.9,55.1-404.6,58.8-419.3
	c80.8,3.4,329.1,7.2,356.1,7.2c1.5,36.3,11.1,375.1,8.6,401.3C-277.1,558.9-393.1,552.7-652.6,568z"/>
<path id="i11" opacity="0.8" fill="#373335" enable-background="new    " d="M-385.5-71.3c0,0,42.1-3.8,57.4-3.8
	c1,33.8-3.1,69.1-1.5,101.8c-13.1,0.9-64.2,3-68.4,2.8C-398,29.5-388-62.1-385.5-71.3z"/>
<path id="i3" opacity="0.8" fill="#141314" enable-background="new    " d="M-347.7,361.8c-6.2-8.9-7.5-357.5-6.2-361.7
	C-329.9-6.3-50.9-3.4-8.1-5.1c3.7,6.8,19.5,352.7,12.4,356.3C-5.7,356.5-347.7,361.8-347.7,361.8z"/>
<path id="i5" opacity="0.8" fill="#373335" enable-background="new    " d="M-484.6,512.1c0,0,480.3-15.8,536.3-22.1
	c-2,46.3-0.2,149,0,178.9c-23.3,0.9-528.3-1.3-536.3-2.2C-484.6,666.7-484.6,525.6-484.6,512.1z"/>
<path id="i9" opacity="0.8" fill="#373335" enable-background="new    " d="M211.6,521.8c0,0,0.4-76.6,0-84.5
	c-24.8-1-49.9,0.6-74.2-2c-2.5,27.9-0.2,58.8-0.2,85.2C197.2,523.5,174.7,522.6,211.6,521.8z"/>
<path id="i1" opacity="0.8" fill="#89605B" enable-background="new    " d="M-134.6,616.3c0,0,4.7-270.7,1.8-353.1
	c-9.1,1.4-123.3,2.7-134.2,2.8c-2.2,11.8-6.2,338.3-4.6,349.9C-271.7,615.9-141.6,616.3-134.6,616.3z"/>
<path id="i6" opacity="0.8" fill="#89605B" enable-background="new    " d="M459.1-61.3c-1.9-21-7.6-67.6-7-101.6
	c12.1-1,234.4-9.3,272.3-3.8c2.1,26.2-2.1,91.6-3.6,107.3C720.7-59.3,469.1-60.9,459.1-61.3z"/>
<path id="i12" opacity="0.8" fill="#5B413E" enable-background="new    " d="M-440.8-7.8c8.3-1.6,64.6-2.6,65.4-0.8
	c0.4,1,3.8,67.8,2.1,69.9c-1.1,1.2-52.5,1.2-62.1,3.8C-435.3,65.1-438.9,14.7-440.8-7.8z"/>
<path id="i8" opacity="0.8" fill="#89605B" enable-background="new    " d="M130.1,473.4c-2-10-3.8-265-3.8-266.2
	c11.9-4.2,102-19.6,116.7-20.1c3.6,28.6-0.3,279.6-0.7,291.7C236.8,479.4,130.1,473.4,130.1,473.4z"/>
<path id="i10" opacity="0.8" fill="#5B413E" enable-background="new    " d="M32.5,623.8c18.4,1.8,112.7-1.2,128.8,0
	c0.3-3.9-2.4-285.2-2-297.2c-3.9-0.6-101.2,10-107.8,12.8C45.6,350.8,32.5,623.8,32.5,623.8z"/>
<path id="i7" opacity="0.8" fill="#373335" enable-background="new    " d="M342.1-123.3c0.6-9.9-1.9-92.5-2-94.7
	c10-0.6,126.1-0.3,137.6,0.1c1.9,7.1,5.7,75.5,5.7,91.3C470.8-126.8,342.1-123.3,342.1-123.3z"/>
</svg>
