<?xml version="1.0" encoding="utf-8"?>
<!-- Generator: Adobe Illustrator 17.1.0, SVG Export Plug-In . SVG Version: 6.00 Build 0)  -->
<!DOCTYPE svg PUBLIC "-//W3C//DTD SVG 1.1//EN" "http://www.w3.org/Graphics/SVG/1.1/DTD/svg11.dtd">
<svg version="1.1" id="Layer_1" xmlns="http://www.w3.org/2000/svg" xmlns:xlink="http://www.w3.org/1999/xlink" x="0px" y="0px"
	 viewBox="0 0 960 540" enable-background="new 0 0 960 540" xml:space="preserve">
<path id="i13" opacity="0.8" fill="#89605B" enable-background="new    " d="M-469.5,447.8c-16.3,2.4-197.9-0.2-227.6,4.4
	c-5.4-39,13-317.6,11.1-330.4c20.1-2.6,192.6-11,216.9-15.1C-469.9,125.2-469.5,447.8-469.5,447.8z"/>
<path id="i4" opacity="0.8" fill="#141314" enable-background="new    " d="M-642.5,252.6c19.9-2.6,271.1-0.5,296.8,0.3
	c0.3,14.7,6.2,61.5,4.8,73.5c-19,3.2-270.8,9.5-304.9,13C-646.4,288.6-644.3,279.5-642.5,252.6z"/>
<path id="i2" opacity="0.8" fill="#5B413E" enable-background="new    " d="M-567.3,291.9c0.1-43.4,52.1-382.9,55.6-396.8
	c76.5,3.2,311.4,6.8,337,6.8c1.4,34.4,10.5,355,8.1,379.8C-211.9,283.3-321.7,277.4-567.3,291.9z"/>
<path id="i11" opacity="0.8" fill="#373335" enable-background="new    " d="M-314.5-313.1c0,0,39.8-3.6,54.3-3.6
	c0.9,32-2.9,65.4-1.4,96.3c-12.4,0.9-60.8,2.8-64.7,2.6C-326.3-217.7-316.9-304.4-314.5-313.1z"/>
<path id="i3" opacity="0.8" fill="#141314" enable-background="new    " d="M-278.7,96.7c-5.9-8.4-7.1-338.3-5.9-342.3
	c22.7-6.1,286.7-3.3,327.3-4.9C46.2-244,61.1,83.3,54.4,86.7C44.9,91.7-278.7,96.7-278.7,96.7z"/>
<path id="i5" opacity="0.8" fill="#373335" enable-background="new    " d="M-408.3,239c0,0,454.5-15,507.5-20.9
	c-1.9,43.8-0.2,141,0,169.3c-22.1,0.9-500-1.2-507.5-2.1C-408.3,385.3-408.3,251.8-408.3,239z"/>
<path id="i9" opacity="0.8" fill="#373335" enable-background="new    " d="M250.6,248.2c0,0,0.4-72.5,0-80
	c-23.5-0.9-47.2,0.6-70.2-1.9c-2.4,26.4-0.2,55.6-0.2,80.6C236.9,249.8,215.6,248.9,250.6,248.2z"/>
<path id="i1" opacity="0.8" fill="#89605B" enable-background="new    " d="M-77.1,337.6c0,0,4.4-256.2,1.7-334.2
	C-84,4.8-192,6-202.4,6.1c-2.1,11.2-5.9,320.2-4.4,331.1C-206.8,337.2-83.7,337.6-77.1,337.6z"/>
<path id="i6" opacity="0.8" fill="#89605B" enable-background="new    " d="M484.8-303.7c-1.8-19.9-7.2-64-6.6-96.2
	c11.5-0.9,221.8-8.8,257.7-3.6c2,24.8-2,86.7-3.4,101.5C732.4-301.8,494.3-303.3,484.8-303.7z"/>
<path id="i12" opacity="0.8" fill="#5B413E" enable-background="new    " d="M-366.8-253c7.9-1.5,61.1-2.5,61.9-0.8
	c0.4,0.9,3.6,64.2,2,66.2c-1,1.1-49.7,1.1-58.8,3.6C-361.6-184-365-231.7-366.8-253z"/>
<path id="i8" opacity="0.8" fill="#89605B" enable-background="new    " d="M173.4,202.4c-1.9-9.5-3.6-250.8-3.6-251.9
	c11.3-4,96.5-18.5,110.4-19c3.4,27.1-0.3,264.6-0.7,276.1C274.4,208,173.4,202.4,173.4,202.4z"/>
<path id="i10" opacity="0.8" fill="#5B413E" enable-background="new    " d="M81.1,344.7c17.4,1.7,106.7-1.1,121.9,0
	c0.3-3.7-2.3-269.9-1.9-281.3c-3.7-0.6-95.8,9.5-102,12.1C93.5,86.3,81.1,344.7,81.1,344.7z"/>
<path id="i7" opacity="0.8" fill="#373335" enable-background="new    " d="M374.1-362.3c0.6-9.4-1.8-87.5-1.9-89.6
	c9.5-0.6,119.3-0.3,130.2,0.1c1.8,6.7,5.4,71.5,5.4,86.4C495.9-365.7,374.1-362.3,374.1-362.3z"/>
</svg>
