<?xml version="1.0" encoding="utf-8"?>
<!-- Generator: Adobe Illustrator 17.1.0, SVG Export Plug-In . SVG Version: 6.00 Build 0)  -->
<!DOCTYPE svg PUBLIC "-//W3C//DTD SVG 1.1//EN" "http://www.w3.org/Graphics/SVG/1.1/DTD/svg11.dtd">
<svg version="1.1" id="Layer_1" xmlns="http://www.w3.org/2000/svg" xmlns:xlink="http://www.w3.org/1999/xlink" x="0px" y="0px"
	 viewBox="0 0 960 540" enable-background="new 0 0 960 540" xml:space="preserve">
<path id="i13" opacity="0.8" fill="#89605B" enable-background="new    " d="M-488.3,441.4c-15.3,2.2-185.9-0.2-213.8,4.2
	c-5.1-36.6,12.2-298.3,10.4-310.3c18.8-2.5,180.9-10.3,203.7-14.2C-488.6,138.4-488.3,441.4-488.3,441.4z"/>
<path id="i4" opacity="0.8" fill="#141314" enable-background="new    " d="M-650.8,258c18.7-2.4,254.7-0.4,278.8,0.3
	c0.3,13.8,5.8,57.8,4.5,69.1c-17.9,3-254.3,8.9-286.4,12.2C-654.4,291.8-652.4,283.2-650.8,258z"/>
<path id="i2" opacity="0.8" fill="#5B413E" enable-background="new    " d="M-580.1,294.9c0.1-40.8,49-359.6,52.3-372.7
	c71.8,3,292.5,6.4,316.5,6.4c1.3,32.3,9.9,333.4,7.6,356.7C-246.3,286.8-349.4,281.3-580.1,294.9z"/>
<path id="i11" opacity="0.8" fill="#373335" enable-background="new    " d="M-342.7-273.4c0,0,37.4-3.4,51-3.4
	c0.9,30-2.8,61.4-1.3,90.5c-11.6,0.8-57.1,2.7-60.8,2.5C-353.8-183.8-344.9-265.2-342.7-273.4z"/>
<path id="i3" opacity="0.8" fill="#141314" enable-background="new    " d="M-309.1,111.6c-5.5-7.9-6.7-317.8-5.5-321.5
	c21.4-5.7,269.4-3.1,307.4-4.6C-3.9-208.5,10.1,99,3.8,102.2C-5.1,106.9-309.1,111.6-309.1,111.6z"/>
<path id="i5" opacity="0.8" fill="#373335" enable-background="new    " d="M-432.6,189l391.7-19.7c0,10,1.6,188.7,1.8,215.3
	c-20.7,0.8-384.6-1.1-391.7-1.9C-430.8,382.6-432.6,201-432.6,189z"/>
<path id="i9" opacity="0.8" fill="#373335" enable-background="new    " d="M188.1,253.8c0,0,0.4-68.1,0-75.1
	c-22-0.9-44.4,0.5-66-1.8c-2.2,24.8-0.2,52.3-0.2,75.7C175.3,255.3,155.3,254.5,188.1,253.8z"/>
<path id="i1" opacity="0.8" fill="#89605B" enable-background="new    " d="M-119.6,337.8c0,0,4.2-240.6,1.6-313.9
	c-8.1,1.2-109.6,2.4-119.3,2.5c-2,10.5-5.5,300.7-4.1,311C-241.5,337.5-125.9,337.8-119.6,337.8z"/>
<path id="i6" opacity="0.8" fill="#89605B" enable-background="new    " d="M408.1-264.5c-1.7-18.7-6.8-60.1-6.2-90.3
	c10.8-0.9,208.4-8.3,242-3.4c1.9,23.3-1.9,81.4-3.2,95.4C640.6-262.7,417-264.1,408.1-264.5z"/>
<path id="i12" opacity="0.8" fill="#5B413E" enable-background="new    " d="M-391.8-216.9c7.4-1.4,57.4-2.3,58.1-0.7
	c0.4,0.9,3.4,60.3,1.9,62.1c-1,1.1-46.7,1.1-55.2,3.4C-386.9-152.1-390.1-196.9-391.8-216.9z"/>
<path id="i8" opacity="0.8" fill="#89605B" enable-background="new    " d="M115.6,210.8c-1.8-8.9-3.4-235.6-3.4-236.6
	c10.6-3.7,90.7-17.4,103.7-17.9c3.2,25.4-0.3,248.5-0.6,259.3C210.5,216.1,115.6,210.8,115.6,210.8z"/>
<path id="i10" opacity="0.8" fill="#5B413E" enable-background="new    " d="M28.9,344.5c16.4,1.6,100.2-1.1,114.5,0
	c0.3-3.5-2.1-253.5-1.8-264.2c-3.5-0.5-90,8.9-95.8,11.4C40.5,101.8,28.9,344.5,28.9,344.5z"/>
<path id="i7" opacity="0.8" fill="#373335" enable-background="new    " d="M304.1-319.6c0.5-8.8-1.7-82.2-1.8-84.2
	c8.9-0.5,112.1-0.3,122.3,0.1c1.7,6.3,5.1,67.1,5.1,81.2C418.5-322.7,304.1-319.6,304.1-319.6z"/>
</svg>
