<?xml version="1.0" encoding="utf-8"?>
<!-- Generator: Adobe Illustrator 17.1.0, SVG Export Plug-In . SVG Version: 6.00 Build 0)  -->
<!DOCTYPE svg PUBLIC "-//W3C//DTD SVG 1.1//EN" "http://www.w3.org/Graphics/SVG/1.1/DTD/svg11.dtd">
<svg version="1.1" id="Layer_1" xmlns="http://www.w3.org/2000/svg" xmlns:xlink="http://www.w3.org/1999/xlink" x="0px" y="0px"
	 viewBox="0 0 1080 1080" enable-background="new 0 0 1080 1080" xml:space="preserve">
<path id="i1.6" opacity="0.4" fill="#F29525" enable-background="new    " d="M-690.4,642.8c74.6,6.6,1163.9,3.6,1318.4,2.1
	c14.4-152.9,22.3-706,36.3-829.5C407.8-191-512.1-187-742.2-188.4C-728.5-135.4-690.4,642.8-690.4,642.8z"/>
<path id="i1.5" opacity="0.79" fill="#F46437" enable-background="new    " d="M-591.8,580.2c48-7.3,987-1.9,1118.2-2.9
	c11.6-116.1,26.5-535.6,15.8-630c-217.6-5.1-987.2-2.6-1182.5-3.6C-628.6-16.2-591.8,580.2-591.8,580.2z"/>
<path id="i1.4" opacity="0.6" fill="#F29525" enable-background="new    " d="M-575.4,568.2c46.6-6.6,956.8-3.5,1084.1-4.7
	C520,458.7,534.7,80.2,524.4-4.9C313.4-9.2-432.6-5.5-621.9-6.1C-610.9,30.2-575.4,568.2-575.4,568.2z"/>
<path id="i1.3" opacity="0.6" fill="#ED8700" enable-background="new    " d="M-536.1,552.5c55.8,6.2,642.9-6,728.4-6.2
	c9.9-86.8,11.6-387.9,8.8-460.9c-141.9-4.3-629.8-4.5-756.8-5.8C-548.7,109.1-536.1,552.5-536.1,552.5z"/>
<path id="i1.2" opacity="0.62" fill="#F9ED15" enable-background="new    " d="M-426.7,518.8c23.4-3.6,477.8-4,541.5-4.3
	c7.4-58.5,4.8-266.7,3.8-317.4c-105.4-3.3-464.4-4.3-558.9-5.5C-435.3,211.9-426.7,518.8-426.7,518.8z"/>
<path id="i1.1" opacity="0.8" fill="#40C1F4" enable-background="new    " d="M-347.4,488.9c14.5-1.7,296.2-1.2,335.5-0.2
	c5.6-36.5,4.6-157.8,0-198.7c-65.2-3.7-279.9-10.1-338.5-12.6C-347.5,290.2-347.4,488.9-347.4,488.9z"/>
<path id="i1" opacity="0.7" fill="#100BF4" enable-background="new    " d="M-163.7,460.1c4.4-1.5,90.1-4.8,102.2-4.7
	c1.8-25.5,2-110.5,0.8-138.9c-19.8-1.7-85.2-3.3-102.9-4.2C-163,321.1-163.7,460.1-163.7,460.1z"/>
</svg>
