<?xml version="1.0" encoding="utf-8"?>
<!-- Generator: Adobe Illustrator 17.1.0, SVG Export Plug-In . SVG Version: 6.00 Build 0)  -->
<!DOCTYPE svg PUBLIC "-//W3C//DTD SVG 1.1//EN" "http://www.w3.org/Graphics/SVG/1.1/DTD/svg11.dtd">
<svg version="1.1" id="Layer_1" xmlns="http://www.w3.org/2000/svg" xmlns:xlink="http://www.w3.org/1999/xlink" x="0px" y="0px"
	 viewBox="0 0 960 540" enable-background="new 0 0 960 540" xml:space="preserve">
<path id="i1.6" opacity="0.4" fill="#F29525" enable-background="new    " d="M-615.3,390c70.4,6.2,1097.7,3.4,1243.5,2
	c13.6-144.2,21-665.9,34.2-782.4c-241.9-6-1109.5-2.3-1326.6-3.6C-651.3-343.9-615.3,390-615.3,390z"/>
<path id="i1.5" opacity="0.79" fill="#F46437" enable-background="new    " d="M-522.3,331c45.3-6.9,930.9-1.8,1054.6-2.7
	c10.9-109.5,25-505.2,14.9-594.2c-205.2-4.8-931.1-2.5-1115.3-3.4C-557-231.5-522.3,331-522.3,331z"/>
<path id="i1.4" opacity="0.6" fill="#F29525" enable-background="new    " d="M-506.9,319.7c44-6.2,902.4-3.3,1022.5-4.4
	c10.7-98.8,24.5-455.8,14.8-536.1c-199-4.1-902.6-0.6-1081.1-1.1C-540.3-187.7-506.9,319.7-506.9,319.7z"/>
<path id="i1.3" opacity="0.6" fill="#ED8700" enable-background="new    " d="M-469.8,304.9c52.6,5.8,606.4-5.7,687-5.8
	c9.3-81.9,10.9-365.9,8.3-434.7c-133.8-4.1-594-4.2-713.8-5.5C-481.7-113.3-469.8,304.9-469.8,304.9z"/>
<path id="i1.2" opacity="0.62" fill="#F9ED15" enable-background="new    " d="M-366.6,273.1c22.1-3.4,450.6-3.8,510.7-4.1
	c7-55.2,4.5-251.5,3.6-299.4c-99.4-3.1-438-4.1-527.1-5.2C-374.7-16.4-366.6,273.1-366.6,273.1z"/>
<path id="i1.1" opacity="0.8" fill="#40C1F4" enable-background="new    " d="M-291.8,244.9c13.7-1.6,279.4-1.1,316.4-0.2
	c5.3-34.4,4.3-148.8,0-187.4c-61.5-3.5-264-9.5-319.3-11.9C-291.9,57.5-291.8,244.9-291.8,244.9z"/>
<path id="i1" opacity="0.7" fill="#100BF4" enable-background="new    " d="M-118.6,217.7c4.1-1.4,85-4.5,96.4-4.4
	c1.7-24.1,1.9-104.2,0.8-131c-18.7-1.6-80.4-3.1-97.1-4C-117.9,86.6-118.6,217.7-118.6,217.7z"/>
</svg>
