<?xml version="1.0" encoding="utf-8"?>
<!-- Generator: Adobe Illustrator 17.1.0, SVG Export Plug-In . SVG Version: 6.00 Build 0)  -->
<!DOCTYPE svg PUBLIC "-//W3C//DTD SVG 1.1//EN" "http://www.w3.org/Graphics/SVG/1.1/DTD/svg11.dtd">
<svg version="1.1" id="Layer_1" xmlns="http://www.w3.org/2000/svg" xmlns:xlink="http://www.w3.org/1999/xlink" x="0px" y="0px"
	 viewBox="0 0 960 540" enable-background="new 0 0 960 540" xml:space="preserve">
<path id="i1.1.1.1.1.1.1" opacity="0.4" fill="#F29525" enable-background="new    " d="M-613.7,361.4
	c66.3,5.9,1034.6,3.2,1171.9,1.9C571,227.4,578-264.3,590.5-374c-228-5.8-1045.7-2.2-1250.2-3.5
	C-647.6-330.4-613.7,361.4-613.7,361.4z"/>
<path id="i1.1.1.1.1.1" opacity="0.79" fill="#F46437" enable-background="new    " d="M-526,305.7c42.7-6.5,877.3-1.7,994-2.6
	c10.3-103.2,23.6-476.1,14-560c-193.4-4.5-877.5-2.3-1051.1-3.2C-558.8-224.4-526,305.7-526,305.7z"/>
<path id="i1.1.1.1.1" opacity="0.6" fill="#F29525" enable-background="new    " d="M-511.5,295.1c41.4-5.9,850.5-3.1,963.6-4.2
	c10.1-93.2,23.2-429.6,14-505.3c-187.5-3.8-850.6-0.5-1018.9-1C-543-183.2-511.5,295.1-511.5,295.1z"/>
<path id="i1.1.1.1" opacity="0.6" fill="#ED8700" enable-background="new    " d="M-476.5,281.1c49.6,5.5,571.5-5.3,647.5-5.5
	c8.8-77.2,10.3-344.8,7.8-409.7c-126.1-3.8-559.8-4-672.7-5.2C-487.7-113-476.5,281.1-476.5,281.1z"/>
<path id="i1.1.1" opacity="0.62" fill="#F9ED15" enable-background="new    " d="M-379.3,251.2c20.8-3.2,424.7-3.6,481.3-3.8
	c6.6-52,4.3-237.1,3.4-282.1c-93.7-2.9-412.8-3.8-496.8-4.9C-386.9-21.6-379.3,251.2-379.3,251.2z"/>
<path id="i1.1" opacity="0.8" fill="#40C1F4" enable-background="new    " d="M-308.8,224.6c12.9-1.5,263.3-1.1,298.2-0.2
	c5-32.4,4.1-140.3,0-176.6c-58-3.3-248.8-9-300.9-11.2C-308.9,48-308.8,224.6-308.8,224.6z"/>
<path id="i1" opacity="0.7" fill="#100BF4" enable-background="new    " d="M-145.5,199c3.9-1.3,80.1-4.3,90.8-4.2
	c1.6-22.7,1.8-98.2,0.7-123.5c-17.6-1.5-75.7-2.9-91.5-3.7C-144.9,75.4-145.5,199-145.5,199z"/>
</svg>
