<?xml version="1.0" encoding="utf-8"?>
<!-- Generator: Adobe Illustrator 17.1.0, SVG Export Plug-In . SVG Version: 6.00 Build 0)  -->
<!DOCTYPE svg PUBLIC "-//W3C//DTD SVG 1.1//EN" "http://www.w3.org/Graphics/SVG/1.1/DTD/svg11.dtd">
<svg version="1.1" id="Layer_1" xmlns="http://www.w3.org/2000/svg" xmlns:xlink="http://www.w3.org/1999/xlink" x="0px" y="0px"
	 viewBox="0 0 960 540" enable-background="new 0 0 960 540" xml:space="preserve">
<path id="i9" opacity="0.76" fill-rule="evenodd" clip-rule="evenodd" fill="#0000FF" d="M333,220.7c1.7,79.1,1,158,9,237.5
	c26.5-4.6,242,3.6,242-3.4c0-66.6-3-170.5-8.2-230.2C495.2,218.3,414.6,211.8,333,220.7z"/>
<path id="i8" opacity="0.76" fill-rule="evenodd" clip-rule="evenodd" fill="#0000FF" d="M-125.5,220.7c1.7,79.1,1,158,9,237.5
	c26.5-4.6,242,3.6,242-3.4c0-66.6-3-170.5-8.2-230.2C36.7,218.3-43.9,211.8-125.5,220.7z"/>
<path id="i7" opacity="0.76" fill-rule="evenodd" clip-rule="evenodd" fill="#0000FF" d="M-584,220.7c1.7,79.1,1,158,9,237.5
	c26.5-4.6,242,3.6,242-3.4c0-66.6-3-170.5-8.2-230.2C-421.8,218.3-502.4,211.8-584,220.7z"/>
<path id="i6" opacity="0.76" fill-rule="evenodd" clip-rule="evenodd" fill="#0000FF" d="M333-106.8c1.7,79.1,1,158,9,237.5
	c26.5-4.6,242,3.6,242-3.4c0-66.6-3-170.5-8.2-230.2C495.2-109.1,414.6-115.7,333-106.8z"/>
<path id="i5" opacity="0.76" fill-rule="evenodd" clip-rule="evenodd" fill="#0000FF" d="M-125.5-106.8c1.7,79.1,1,158,9,237.5
	c26.5-4.6,242,3.6,242-3.4c0-66.6-3-170.5-8.2-230.2C36.7-109.1-43.9-115.7-125.5-106.8z"/>
<path id="i4" opacity="0.76" fill-rule="evenodd" clip-rule="evenodd" fill="#0000FF" d="M-584-106.8c1.7,79.1,1,158,9,237.5
	c26.5-4.6,242,3.6,242-3.4c0-66.6-3-170.5-8.2-230.2C-421.8-109.1-502.4-115.7-584-106.8z"/>
<path id="i3" opacity="0.76" fill-rule="evenodd" clip-rule="evenodd" fill="#0000FF" d="M333-434.2c1.7,79.1,1,158,9,237.5
	c26.5-4.6,242,3.6,242-3.4c0-66.6-3-170.5-8.2-230.2C495.2-436.6,414.6-443.1,333-434.2z"/>
<path id="i2" opacity="0.76" fill-rule="evenodd" clip-rule="evenodd" fill="#0000FF" d="M-125.5-434.2c1.7,79.1,1,158,9,237.5
	c26.5-4.6,242,3.6,242-3.4c0-66.6-3-170.5-8.2-230.2C36.7-436.6-43.9-443.1-125.5-434.2z"/>
<path id="i1" opacity="0.76" fill-rule="evenodd" clip-rule="evenodd" fill="#0000FF" d="M-584-434.2c1.7,79.1,1,158,9,237.5
	c26.5-4.6,242,3.6,242-3.4c0-66.6-3-170.5-8.2-230.2C-421.8-436.6-502.4-443.1-584-434.2z"/>
</svg>
