<?xml version="1.0" encoding="utf-8"?>
<!-- Generator: Adobe Illustrator 17.1.0, SVG Export Plug-In . SVG Version: 6.00 Build 0)  -->
<!DOCTYPE svg PUBLIC "-//W3C//DTD SVG 1.1//EN" "http://www.w3.org/Graphics/SVG/1.1/DTD/svg11.dtd">
<svg version="1.1" id="Layer_1" xmlns="http://www.w3.org/2000/svg" xmlns:xlink="http://www.w3.org/1999/xlink" x="0px" y="0px"
	 viewBox="0 0 960 540" enable-background="new 0 0 960 540" xml:space="preserve">
<path id="i10" opacity="0.9" fill="#002FA7" d="M-323.3,415c20.3-4.9,80.9,3.2,97.1-1c-4.5-44.1-0.6-110.7-4-160.9
	c-23.7,4.1-62.1,1.4-84,4.5C-312.7,330.2-321.3,351.9-323.3,415z"/>
<path id="i9" opacity="0.9" fill="#002FA7" d="M-18.6,438.3c-0.7-19.5-0.7-155.6-2.7-177.9c-30-1.6-749.2,4.9-764.7,6.2
	c-4.6,14-4.6,59.1-9.7,80.5C-783.3,353.9-44,439.4-18.6,438.3z"/>
<path id="i8" opacity="0.9" fill="#002FA7" d="M-587.9,142.1c25.6-1.8,413.5-17.5,458.1-17.5c2.4-26.8,9.8-169.3,10.5-197.4
	c-115.2,0.9-382.2-13.5-499-14.9L-587.9,142.1z"/>
<path id="i7" opacity="0.9" fill="#002FA7" d="M55.5,64.3c-0.2,14,4.6,72.4,7.2,83c12.6-0.6,56.7-5,68.9-6
	c-2.5-11.3,3.3-64.7,1.8-77.2C123.9,67.8,63.3,59.3,55.5,64.3z"/>
<path id="i6" opacity="0.9" fill="#002FA7" d="M252.1-60.6c-2.1,17.7-0.9,212.5-1.5,227.7C479.1,267.7,656.8,337.8,750,364.7
	c1.9-16.8,86.1-409.6,85.7-418.5C622.9-64,340.5-56.8,252.1-60.6z"/>
<path id="i5" opacity="0.9" fill="#002FA7" d="M-31.6,151.8c1.1,13.5,74.8,258.6,77.8,270c40.1,3,504.8-37,566.9-49.1
	c-1.2-12.8,1-215.2-1.8-221.7C554.7,162,16.8,157.8-31.6,151.8z"/>
<path id="i4" opacity="0.9" fill="#002FA7" d="M-304.1-54.8c-0.7,25.7,33.6,279.2,40.5,326.5c39.7-1.8,268.3-43.2,312.6-51.4
	C51,190,68.9-55.2,68.1-55.6C-70.4-53.5-166.7-60.1-304.1-54.8z"/>
<path id="i3" opacity="0.9" fill="#4A6B10" d="M492.3,344.1c-0.9-2.8-2.3-22.6-2-27.5c-12.2-0.8-397.8,2.7-403.6,3.3
	c0.9,6.2,1.3,30.2,3.5,39.7C96.4,362.6,482.5,344.5,492.3,344.1z"/>
<path id="i2" opacity="0.9" fill="#4A6B10" d="M372.2,267.1c-1.1-4.5,0.3-16.5-1.2-20.5c-7.9-0.6-201.8,0.5-205.6,0.8
	c0.9,4,2.3,19.5,4.2,25.7C173.8,275,365.8,267.3,372.2,267.1z"/>
<path id="i1" opacity="0.9" fill="#4A6B10" d="M369.8,221.3c-1.6-4.9-2.7-29.3-4.6-34.5c-12.2-0.8-230.6,0.6-236.5,1.2
	c0.9,6.2,1.3,30.2,3.5,39.7C138.4,230.8,359.9,221.7,369.8,221.3z"/>
</svg>
