<?xml version="1.0" encoding="utf-8"?>
<!-- Generator: Adobe Illustrator 15.1.0, SVG Export Plug-In . SVG Version: 6.00 Build 0)  -->
<!DOCTYPE svg PUBLIC "-//W3C//DTD SVG 1.1//EN" "http://www.w3.org/Graphics/SVG/1.1/DTD/svg11.dtd">
<svg version="1.1" id="Layer_1" xmlns="http://www.w3.org/2000/svg" xmlns:xlink="http://www.w3.org/1999/xlink" x="0px" y="0px"
	 width="960.333px" height="540.001px" viewBox="0 0 960.333 540.001" enable-background="new 0 0 960.333 540.001"
	 xml:space="preserve">
<path id="i9" opacity="0.84" fill="none" stroke="#000000" stroke-miterlimit="10" d="M-151.81,387.078
	c2.415,21.105,0.378,40.479,1.571,60.713c23.069,0.078,48.254,2.352,67.609-1.437c-2.312-18.681,5.763-44.024,2.619-63.39
	C-103.33,384.975-129.375,384.15-151.81,387.078z"/>
<rect id="i9" x="-239.337" y="313.661" fill="none" stroke="#FE0000" stroke-miterlimit="10" width="246" height="208"/>
<path id="i8" opacity="0.84" fill="none" stroke="#000000" stroke-miterlimit="10" d="M230.675-273.149
	c0.557,10.624-0.16,17.681,1.379,24.821c141.609-8.27,296.805-1.5,437.121,2.758c-1.287-8.826-3.502-16.723-5.516-24.821
	C511.669-275.055,378.845-278,230.675-273.149z"/>
<rect id="i8" x="100.663" y="-329.339" fill="none" stroke="#FE0000" stroke-miterlimit="10" width="698" height="134"/>
<path id="i7" opacity="0.84" fill="none" stroke="#000000" stroke-miterlimit="10" d="M331.337-208.339
	c1.314,10.635,5.145,18.757,4.137,31.715c12.857-0.932,23.975-3.603,38.609-2.758c-0.742-11.209-3.98-19.922-5.516-30.337
	C354.819-209.208,347.571-207.945,331.337-208.339z"/>
<rect id="i7" x="256.663" y="-286.339" fill="none" stroke="#FE0000" stroke-miterlimit="10" width="188" height="154"/>
<path id="i6" opacity="0.84" fill="none" stroke="#000000" stroke-miterlimit="10" d="M266.526-226.266
	c-1.414,14.283,2.406,23.333,4.137,34.473c12.949,0.539,21.963-2.857,34.475-2.758c-1.57-11.759-3.65-23.01-4.137-35.852
	C290.96-227.573,274.921-230.74,266.526-226.266z"/>
<rect id="i6" x="216.663" y="-284.339" fill="none" stroke="#FE0000" stroke-miterlimit="10" width="178" height="152"/>
<path id="i5" opacity="0.84" fill="none" stroke="#000000" stroke-miterlimit="10" d="M-451.954,327.876
	c-0.861,23.52,0.617,34.106,4.645,62.631c82.954,0.269,168.722,0.267,253.931,3.435c-2.943-24.028,4.655-47.747,0.5-63.131
	C-280.352,324.194-367.278,330.889-451.954,327.876z"/>
<rect id="i5" x="-545.337" y="299.661" fill="none" stroke="#FE0000" stroke-miterlimit="10" width="1014" height="120"/>
<path id="i4" opacity="0.84" fill="none" stroke="#000000" stroke-miterlimit="10" d="M-473.08-93.727
	c0.108,26.417,6.134,50.562,2.889,78.267c147.938,9.016,287.914-2.716,436.823,8.827c1.104-31.061-6.941-90.638-7.781-91.012
	C-183.091-91.037-332.353-103.498-473.08-93.727z"/>
<rect id="i4" x="-501.337" y="-262.339" fill="none" stroke="#FE0000" stroke-miterlimit="10" width="490" height="398"/>
<path id="i3" opacity="0.84" fill="none" stroke="#000000" stroke-miterlimit="10" d="M71.423,188.879
	c2.233,21.297,2.103,50.566,4.194,67.663c52.581-3.188,121.22,2.637,173.792-0.74c-1.005-24.645-2.618-44.921-2.814-67.636
	C176.959,190.627,131.25,185.151,71.423,188.879z"/>
<rect id="i3" x="-63.337" y="19.661" fill="none" stroke="#FE0000" stroke-miterlimit="10" width="388" height="264"/>
<path id="i2" opacity="0.84" fill="none" stroke="#000000" stroke-miterlimit="10" d="M-464.565,51.902
	c-0.408,13.939-2.477,29.377-0.746,41.385c325.839,3.26,844.904-1.639,941.494-6.732c0.254-13.213,2.805-33.037,0.674-40.008
	C132.337,42.42-321.482,53.273-464.565,51.902z"/>
<rect id="i2" x="-523.337" y="-30.339" fill="none" stroke="#FE0000" stroke-miterlimit="10" width="1116" height="214"/>
<path id="i1" opacity="0.84" fill="none" stroke="#000000" stroke-miterlimit="10" d="M-63.433,171.685
	c115.895-4.41,271.553,8.18,383.674,4.342c0.508-60.317,12.928-147.565,1.996-213.943C199.571-27.728,61.415-43.65-63.188-35.45
	L-63.433,171.685z"/>
<rect id="i1" x="-77.337" y="-394.339" fill="none" stroke="#FE0000" stroke-miterlimit="10" width="546" height="816"/>
</svg>
