<?xml version="1.0" encoding="utf-8"?>
<!-- Generator: Adobe Illustrator 17.1.0, SVG Export Plug-In . SVG Version: 6.00 Build 0)  -->
<!DOCTYPE svg PUBLIC "-//W3C//DTD SVG 1.1//EN" "http://www.w3.org/Graphics/SVG/1.1/DTD/svg11.dtd">
<svg version="1.1" id="Layer_1" xmlns="http://www.w3.org/2000/svg" xmlns:xlink="http://www.w3.org/1999/xlink" x="0px" y="0px"
	 viewBox="0 0 960 540" enable-background="new 0 0 960 540" xml:space="preserve">
<path id="i12" opacity="0.9" fill="#00000E" enable-background="new    " d="M-566.5,454.5c9.4-1.5,21,0,27-1
	c-1.1-13.9,4.4-108.4,2.6-120.3c-4.7,0.7-18.8,0.7-22.7,1.2C-559.4,350.5-565.7,438.5-566.5,454.5z"/>
<path id="i11" opacity="0.9" fill="#00000E" enable-background="new    " d="M-520,437.5c12.6-2.1,28.2-0.1,36.1-1.3
	c-1.5-18.6,6-145.1,3.5-161.1c-6.4,1-25.2,1-30.3,1.8C-510.6,298.3-519,416.1-520,437.5z"/>
<path id="i10" opacity="0.9" fill="#00000E" enable-background="new    " d="M-444,495.1c9.2-1.8,20.5,6.2,26.3,5.1
	c-1-41.6,4.7-320.5,3.1-356.3c-4.6,0.8-18.3-3.3-22.1-3C-436.7,188.8-443.2,448-444,495.1z"/>
<path id="i9" opacity="0.9" fill="#00000E" enable-background="new    " d="M-327.8,253.9c115.2,7.4,1017.1,73,1128.5,80.7
	c6.6-59.6,31.4-623.7,31.4-694c-122.4-2.4-1047.5,4.5-1171.6,0L-327.8,253.9z"/>
<path id="i8" opacity="0.9" fill="#C99735" enable-background="new    " d="M800-62.2c-1.4,14.2-1.8,74-0.1,85.1
	c12.9,0.5,66.8-13.5,79.2-13.4c-1.5-11.7,0.5-52.1,0-64.9C869.2-52.6,808.4-66.6,800-62.2z"/>
<path id="i7" opacity="0.9" fill="#A80B0B" enable-background="new    " d="M-168.7-307.7c-1.4,13.8,21.1,168.3,22,180.4
	C229.6-23.2,521.3,51.4,673.3,82.6c1.2-13.1,94-315.5,92.4-322.6C424.2-270.8-26.8-295.3-168.7-307.7z"/>
<path id="i6" opacity="0.9" fill="#DBA93A" enable-background="new    " d="M-366.1-63.2c8.1-1.2,18.4,1.4,23.6,0.7
	c-0.9-17.3,4-134.5,2.5-149.5c-4.1,0.6-16.4-0.4-19.8,0C-359.8-192-365.3-83-366.1-63.2z"/>
<path id="i5" opacity="0.9" fill="#DBA93A" enable-background="new    " d="M-410.3,90.5c9.2-1.4,20.2,6.9,26.1,6
	c0.4-41.6,16-320.1,15.5-356c-4.6,0.7-18.2-4-22-3.8C-392.3-215.5-407.8,43.4-410.3,90.5z"/>
<path id="i4" opacity="0.9" fill="#DBA93A" enable-background="new    " d="M-263.1-170c-3.9,26-0.7,287.1,0.4,335.9
	c40.5,3.1,277.3-10.4,323.2-13.2c5.8-30.4,54.5-276.6,53.6-277.2C-26.5-139.5-123.2-158.2-263.1-170z"/>
<path id="i3" opacity="0.9" fill="#0C1168" enable-background="new    " d="M-29.6,100.6c27.1-0.8,478-25.1,525.4-23.8
	c1.8-23.8,5.7-150.6,5.7-175.6C379.1-101.2,94.7-121.5-29.6-126L-29.6,100.6L-29.6,100.6z"/>
<path id="i2" opacity="0.9" fill="#0C1168" enable-background="new    " d="M509.4,475.5c13.2-2.7,29.9,5.5,38.4,3.8
	c-3-46.9-4.7-362.6-8.6-403c-6.7,1.2-26.6-2.5-32.1-1.8C508.9,128.5,508.9,422.1,509.4,475.5z"/>
<path id="i1" opacity="0.9" fill="#0C1168" enable-background="new    " d="M564.8,376.9c9.8-2,22.4,4.1,28.6,2.9
	c-2.3-35.1-3.5-270.8-6.4-301c-5.1,0.9-19.9-1.9-24-1.3C564.5,117.9,564.4,337.1,564.8,376.9z"/>
</svg>
