<?xml version="1.0" encoding="utf-8"?>
<!-- Generator: Adobe Illustrator 17.1.0, SVG Export Plug-In . SVG Version: 6.00 Build 0)  -->
<!DOCTYPE svg PUBLIC "-//W3C//DTD SVG 1.1//EN" "http://www.w3.org/Graphics/SVG/1.1/DTD/svg11.dtd">
<svg version="1.1" id="Layer_1" xmlns="http://www.w3.org/2000/svg" xmlns:xlink="http://www.w3.org/1999/xlink" x="0px" y="0px"
	 viewBox="0 0 960.3 540" enable-background="new 0 0 960.3 540" xml:space="preserve">
<path id="i9" opacity="0.84" fill="none" stroke="#000000" stroke-miterlimit="10" enable-background="new    " d="M-151.8,387.1
	c2.4,21.1,0.4,40.5,1.6,60.7c23.1,0.1,48.3,2.4,67.6-1.4c-2.3-18.7,5.8-44,2.6-63.4C-103.3,385-129.4,384.1-151.8,387.1z"/>
<path id="i8" opacity="0.84" fill="none" stroke="#000000" stroke-miterlimit="10" enable-background="new    " d="M230.7-273.1
	c0.6,10.6-0.2,17.7,1.4,24.8c141.6-8.3,296.8-1.5,437.1,2.8c-1.3-8.8-3.5-16.7-5.5-24.8C511.7-275.1,378.8-278,230.7-273.1z"/>
<path id="i7" opacity="0.84" fill="none" stroke="#000000" stroke-miterlimit="10" enable-background="new    " d="M331.3-208.3
	c1.3,10.6,5.1,18.8,4.1,31.7c12.9-0.9,24-3.6,38.6-2.8c-0.7-11.2-4-19.9-5.5-30.3C354.8-209.2,347.6-207.9,331.3-208.3z"/>
<path id="i6" opacity="0.84" fill="none" stroke="#000000" stroke-miterlimit="10" enable-background="new    " d="M266.5-226.3
	c-1.4,14.3,2.4,23.3,4.1,34.5c12.9,0.5,22-2.9,34.5-2.8c-1.6-11.8-3.6-23-4.1-35.9C291-227.6,274.9-230.7,266.5-226.3z"/>
<path id="i5" opacity="0.84" fill="none" stroke="#000000" stroke-miterlimit="10" enable-background="new    " d="M-452,327.9
	c-0.9,23.5,0.6,34.1,4.6,62.6c83,0.3,168.7,0.3,253.9,3.4c-2.9-24,4.7-47.7,0.5-63.1C-280.4,324.2-367.3,330.9-452,327.9z"/>
<path id="i4" opacity="0.84" fill="none" stroke="#000000" stroke-miterlimit="10" enable-background="new    " d="M-473.1-93.7
	c0.1,26.4,6.1,50.6,2.9,78.3c147.9,9,287.9-2.7,436.8,8.8c1.1-31.1-6.9-90.6-7.8-91C-183.1-91-332.4-103.5-473.1-93.7z"/>
<path id="i3" opacity="0.84" fill="none" stroke="#000000" stroke-miterlimit="10" enable-background="new    " d="M71.4,188.9
	c2.2,21.3,2.1,50.6,4.2,67.7c52.6-3.2,121.2,2.6,173.8-0.7c-1-24.6-2.6-44.9-2.8-67.6C177,190.6,131.2,185.2,71.4,188.9z"/>
<path id="i2" opacity="0.84" fill="none" stroke="#000000" stroke-miterlimit="10" enable-background="new    " d="M-464.6,51.9
	c-0.4,13.9-2.5,29.4-0.7,41.4c325.8,3.3,844.9-1.6,941.5-6.7c0.3-13.2,2.8-33,0.7-40C132.3,42.4-321.5,53.3-464.6,51.9z"/>
<path id="i1" opacity="0.84" fill="none" stroke="#000000" stroke-miterlimit="10" enable-background="new    " d="M-63.4,171.7
	c115.9-4.4,271.6,8.2,383.7,4.3c0.5-60.3,12.9-147.6,2-213.9C199.6-27.7,61.4-43.7-63.2-35.5L-63.4,171.7z"/>
</svg>
