<?xml version="1.0" encoding="utf-8"?>
<!-- Generator: Adobe Illustrator 17.1.0, SVG Export Plug-In . SVG Version: 6.00 Build 0)  -->
<!DOCTYPE svg PUBLIC "-//W3C//DTD SVG 1.1//EN" "http://www.w3.org/Graphics/SVG/1.1/DTD/svg11.dtd">
<svg version="1.1" id="Layer_1" xmlns="http://www.w3.org/2000/svg" xmlns:xlink="http://www.w3.org/1999/xlink" x="0px" y="0px"
	 viewBox="0 0 1080 1080" enable-background="new 0 0 1080 1080" xml:space="preserve">
<path id="i1" opacity="0.7" fill="#064431" enable-background="new    " d="M-728.8-150.3c0,333.1,3.1,615.4,2.1,701.8
	c0,0,548.8,21.4,984.7,29c6.8-153,14.4-618.3,5.1-751.6C255.3-165.3-728.8-150.3-728.8-150.3z"/>
<path id="i2" fill="#0C380C" d="M-507.1,30.7c0.3,7.3,1.5,21,1.1,29.4c7.4,0.4,26,1.7,33.2,1.5c0.8-5.5,0.2-22.9,0.9-30.6
	C-477.3,31.1-497.7,31.3-507.1,30.7z"/>
<path id="i3" fill="#0C380C" d="M-508.1,73.5c0.2,4.2,1.2,25.5,1.1,29.4c7.3,0.2,29.1,1.4,33.2,1.5c0.1-3.3,0.1-25.6,0.9-30.6
	C-476.3,73.8-502.3,73.7-508.1,73.5z"/>
<path id="i4" fill="#0C380C" d="M-506.6,149.4c2.5-0.2,27.3,1.1,29.4,1.7c0.6-3.6,4.5-29.6,4.6-32.9c-5.1,0-28.1-3.6-30.4-3.8
	C-503.2,116.2-507.2,148.3-506.6,149.4z"/>
<path id="i5" opacity="0.8" fill="#0C380C" enable-background="new    " d="M-505.5,160.7c0.1,2.3,1,26.5,1.1,29.4
	c2.2,0.1,31,1.8,33.2,1.5c0-2.7,0.9-27.4,0.9-30.6C-473.8,161-502.4,160.6-505.5,160.7z"/>
<path id="i6" opacity="0.8" fill="#0C380C" enable-background="new    " d="M-472.4,202.2c-2.9,0.1-26,1.2-29.4,0.9
	c-0.1,2.6-1.6,30.1-1.6,33.2c2.7,0.2,28.3,1.1,30.6,1.1C-472.5,233.5-472.5,205.6-472.4,202.2z"/>
<path id="i7" opacity="0.8" fill="#0C380C" enable-background="new    " d="M-506.4,246.9c0.1,2.4,0.9,26.8,1.1,29.4
	c2.6,0.1,31.6,1.5,33.2,1.5c0.2-4,1.1-26.3,0.9-30.6C-475.1,247.3-503.4,246.9-506.4,246.9z"/>
<path id="i8" opacity="0.7" fill="#0C380C" enable-background="new    " d="M-505.5,291.3c0.1,2.2,1.3,24.9,1.1,29.4
	c4,0.2,30.7,1.3,33.2,1.5c0.1-3,0.6-28.3,0.9-30.6C-473,291.6-499.2,291.2-505.5,291.3z"/>
<path id="i9" opacity="0.7" fill="#0C380C" enable-background="new    " d="M-472.3,330.8c-3.5,0.4-26.4,3.1-29.2,3.5
	c0,2.6,0.9,28.8,1.2,33.2c2.8-0.1,26.9-1.6,30.6-1.6C-469.9,362-471.9,334.8-472.3,330.8z"/>
<path id="i10" opacity="0.7" fill="#0C380C" enable-background="new    " d="M-503,379.2c0.1,2.5,1,25.6,1.1,29.4
	c2.9,0.2,30.1,1.6,33.2,1.5c0.2-2.6,1.1-27.3,0.9-30.6C-470.5,379.6-500.2,379.2-503,379.2z"/>
<path id="i11" opacity="0.6" fill="#0C380C" enable-background="new    " d="M-503.9,422c0.1,1.6,1.1,24.6,1.1,29.4
	c4.2,0.2,30.6,1.4,33.2,1.5c0.1-4.4,0.6-28.2,0.9-30.6C-469.8,422.2-500.8,422.1-503.9,422z"/>
<path id="i12" opacity="0.7" fill="#0C380C" enable-background="new    " d="M218.4-101.8c-2.2,18.7,0.9,185.6,0.7,211.7
	c0,0,160.5-0.9,288.9,1.5c2-46.1,2.2-135,2.4-206.9C495.8-97.8,218.4-101.8,218.4-101.8z"/>
<path id="i13" opacity="0.9" fill="#0C380C" enable-background="new    " d="M477.3-29c-1.7-2-17.1,0.9-19.5,0.7
	c0,0,0.8,151.3,1.1,272.4c4.3,1.9,12.5,2,19,2.1C478.1,232.4,477.3-29,477.3-29z"/>
<path id="i14" opacity="0.7" fill="#0C380C" enable-background="new    " d="M122.1,415.7c-3.4,28.6,1.5,284.6,1,324.6
	c0,0,247.5-1.4,445.5,2.1c3-70.8,3.4-207,3.6-317.3C549.7,421.9,122.1,415.7,122.1,415.7z"/>
<path id="i15" opacity="0.9" fill="#0C380C" enable-background="new    " d="M-125,338.1c3-2.6-1.5-25.4-1-29
	c0,0-225.4,1.1-405.8,1.7c-2.8,6.3-3,18.6-3.1,28.3C-514.5,339.3-125,338.1-125,338.1z"/>
<path id="i16" opacity="0.9" fill="#0C380C" enable-background="new    " d="M-45.2,335.7c0.5-2.6-0.3-25.4-0.2-29
	c0,0-29.7,0.2-53.4,0c-0.3,6.3-0.3,18.6-0.3,28.4C-96.6,335.4-45.2,335.7-45.2,335.7z"/>
<path id="i17" opacity="0.6" fill="#0C380C" enable-background="new    " d="M-503,466.4c0.1,2.3,1,25.4,1.1,29.4
	c2.2,0.2,30.9,1.5,33.2,1.5c0.3-3.9,0.8-26.6,0.9-30.6C-470.7,466.7-499,466.5-503,466.4z"/>
<path id="i18" opacity="0.6" fill="#0C380C" enable-background="new    " d="M-470.8,505c-2.5,0.4-26.1,5-28.9,5.2
	c0.2,3.5,2.6,29.2,3.1,33.1c3.2-0.2,26.9-3,30.4-3.4C-467,535.9-470.2,509.1-470.8,505z"/>
<path id="i19" opacity="0.5" fill="#0C380C" enable-background="new    " d="M-501.3,552.7c0.1,1.9,1.3,25.2,1.1,29.4
	c2.4,0.1,29.9,1.5,33.2,1.5c0.2-3,0.6-27.4,0.9-30.6C-470.8,552.9-496.9,552.5-501.3,552.7z"/>
<path id="i20" opacity="0.5" fill="#0C380C" enable-background="new    " d="M-502.2,595.5c0.1,2,0.6,24.5,1.1,29.4
	c5.8,0.3,27.6,1.3,33.2,1.5c0.2-3.2,0.6-26.9,0.9-30.6C-470.4,595.2-497.2,595.1-502.2,595.5z"/>
</svg>
