<?xml version="1.0" encoding="utf-8"?>
<!-- Generator: Adobe Illustrator 17.1.0, SVG Export Plug-In . SVG Version: 6.00 Build 0)  -->
<!DOCTYPE svg PUBLIC "-//W3C//DTD SVG 1.1//EN" "http://www.w3.org/Graphics/SVG/1.1/DTD/svg11.dtd">
<svg version="1.1" id="Layer_1" xmlns="http://www.w3.org/2000/svg" xmlns:xlink="http://www.w3.org/1999/xlink" x="0px" y="0px"
	 viewBox="0 0 960 540" enable-background="new 0 0 960 540" xml:space="preserve">
<path id="i1" opacity="0.7" fill="#064431" enable-background="new    " d="M-647.8-343.6c0,296.1,2.8,547,1.9,623.8
	c0,0,487.8,19,875.3,25.8c6-136,12.8-549.6,4.5-668.1C226.9-356.9-647.8-343.6-647.8-343.6z"/>
<path id="i2" fill="#0C380C" d="M-450.8-182.7c1,26.1,1,26.1,1,26.1s18.7,1.7,29.5,1.3c0.4-4.6,0.8-27.2,0.8-27.2
	C-440.4-181.8-450.8-182.7-450.8-182.7z"/>
<path id="i3" fill="#0C380C" d="M-451.6-144.7c1,26.1,1,26.1,1,26.1s18.7,1.7,29.5,1.3c0.4-4.6,0.8-27.2,0.8-27.2
	C-441.1-143.8-451.6-144.7-451.6-144.7z"/>
<path id="i4" fill="#0C380C" d="M-450.3-77.2c26.1,1.5,26.1,1.5,26.1,1.5s3.5-18.4,4.1-29.2c-4.6-0.8-27-3.4-27-3.4
	C-448.4-87.6-450.3-77.2-450.3-77.2z"/>
<path id="i5" opacity="0.8" fill="#0C380C" enable-background="new    " d="M-449.3-67.2c1,26.1,1,26.1,1,26.1s18.7,1.7,29.5,1.3
	c0.4-4.6,0.8-27.2,0.8-27.2C-438.9-66.3-449.3-67.2-449.3-67.2z"/>
<path id="i6" opacity="0.8" fill="#0C380C" enable-background="new    " d="M-419.9-30.3c-26.1,0.8-26.1,0.8-26.1,0.8
	s-1.8,18.7-1.4,29.5c4.6,0.4,27.2,1,27.2,1C-420.9-19.9-419.9-30.3-419.9-30.3z"/>
<path id="i7" opacity="0.8" fill="#0C380C" enable-background="new    " d="M-450.1,9.5c1,26.1,1,26.1,1,26.1s18.7,1.7,29.5,1.3
	c0.4-4.6,0.8-27.2,0.8-27.2C-439.6,10.4-450.1,9.5-450.1,9.5z"/>
<path id="i8" opacity="0.7" fill="#0C380C" enable-background="new    " d="M-449.3,48.9c1,26.1,1,26.1,1,26.1s18.7,1.7,29.5,1.3
	c0.4-4.6,0.8-27.2,0.8-27.2C-438.9,49.9-449.3,48.9-449.3,48.9z"/>
<path id="i9" opacity="0.7" fill="#0C380C" enable-background="new    " d="M-419.8,84c-26,3.1-26,3.1-26,3.1s-0.2,18.8,1.1,29.5
	c4.6,0,27.2-1.4,27.2-1.4C-419.9,94.5-419.8,84-419.8,84z"/>
<path id="i10" opacity="0.7" fill="#0C380C" enable-background="new    " d="M-447.1,127.1c1,26.1,1,26.1,1,26.1s18.7,1.7,29.5,1.3
	c0.4-4.6,0.8-27.2,0.8-27.2C-436.6,128.1-447.1,127.1-447.1,127.1z"/>
<path id="i11" opacity="0.6" fill="#0C380C" enable-background="new    " d="M-447.9,165.1c1,26.1,1,26.1,1,26.1s18.7,1.7,29.5,1.3
	c0.4-4.6,0.8-27.2,0.8-27.2C-437.4,166-447.9,165.1-447.9,165.1z"/>
<path id="i12" opacity="0.7" fill="#0C380C" enable-background="new    " d="M194.1-300.5c-2,16.6,0.8,165,0.6,188.2
	c0,0,142.7-0.8,256.8,1.3c1.8-41,2-120,2.1-183.9C440.7-296.9,194.1-300.5,194.1-300.5z"/>
<path id="i13" opacity="0.9" fill="#0C380C" enable-background="new    " d="M424.3-235.8c-1.5-1.8-15.2,0.8-17.3,0.6
	c0,0,0.7,134.5,1,242.1c3.8,1.7,11.1,1.8,16.9,1.9C425-3.4,424.3-235.8,424.3-235.8z"/>
<path id="i14" opacity="0.7" fill="#0C380C" enable-background="new    " d="M108.5,159.5c-3,25.4,1.3,253,0.9,288.5
	c0,0,220-1.2,396,1.9c2.7-62.9,3-184,3.2-282C488.6,165,108.5,159.5,108.5,159.5z"/>
<path id="i15" opacity="0.9" fill="#0C380C" enable-background="new    " d="M-111.1,90.5c2.7-2.3-1.3-22.6-0.9-25.8
	c0,0-200.4,1-360.7,1.5c-2.5,5.6-2.7,16.5-2.8,25.2C-457.3,91.6-111.1,90.5-111.1,90.5z"/>
<path id="i16" opacity="0.9" fill="#0C380C" enable-background="new    " d="M-40.2,88.4c0.4-2.3-0.3-22.6-0.2-25.8
	c0,0-26.4,0.2-47.5,0c-0.3,5.6-0.3,16.5-0.3,25.2C-85.9,88.1-40.2,88.4-40.2,88.4z"/>
<path id="i17" opacity="0.6" fill="#0C380C" enable-background="new    " d="M-447.1,204.6c1,26.1,1,26.1,1,26.1s18.7,1.7,29.5,1.3
	c0.4-4.6,0.8-27.2,0.8-27.2C-436.6,205.5-447.1,204.6-447.1,204.6z"/>
<path id="i18" opacity="0.6" fill="#0C380C" enable-background="new    " d="M-418.5,238.9c-25.7,4.6-25.7,4.6-25.7,4.6
	s0.9,18.8,2.8,29.4c4.6-0.2,27-3,27-3C-418,249.4-418.5,238.9-418.5,238.9z"/>
<path id="i19" opacity="0.5" fill="#0C380C" enable-background="new    " d="M-445.6,281.3c1,26.1,1,26.1,1,26.1s18.7,1.7,29.5,1.3
	c0.4-4.6,0.8-27.2,0.8-27.2C-435.1,282.2-445.6,281.3-445.6,281.3z"/>
<path id="i20" opacity="0.5" fill="#0C380C" enable-background="new    " d="M-446.4,319.3c1,26.1,1,26.1,1,26.1s18.7,1.7,29.5,1.3
	c0.4-4.6,0.8-27.2,0.8-27.2C-435.9,320.2-446.4,319.3-446.4,319.3z"/>
</svg>
