<?xml version="1.0" encoding="utf-8"?>
<!-- Generator: Adobe Illustrator 17.1.0, SVG Export Plug-In . SVG Version: 6.00 Build 0)  -->
<!DOCTYPE svg PUBLIC "-//W3C//DTD SVG 1.1//EN" "http://www.w3.org/Graphics/SVG/1.1/DTD/svg11.dtd">
<svg version="1.1" id="Layer_1" xmlns="http://www.w3.org/2000/svg" xmlns:xlink="http://www.w3.org/1999/xlink" x="0px" y="0px"
	 viewBox="0 0 960 540" enable-background="new 0 0 960 540" xml:space="preserve">
<path id="i1" opacity="0.78" fill="#B61119" enable-background="new    " d="M30.3-277.3c-52.9-8.1-116.8,1.4-167.6,6.1
	c-0.9,41.5,1.7,82.1-1,124.2c54.5,4.6,114-8.5,164.4-2.9C30-189.9,30.1-233.7,30.3-277.3z"/>
<path id="i2" opacity="0.85" fill="#951114" enable-background="new    " d="M98.9-97.9c-52.8-4.3-117.7,4-172.4,4.6
	c0.9,58-5.5,108.8-5.2,166.2c59.7,6,113.3-14.8,172.3-9.5C96.4,10.6,98.3-43.1,98.9-97.9z"/>
<path id="i3" opacity="0.81" fill="#B61119" enable-background="new    " d="M-100.5,29.7c-11.8,19.5,5,315.8,2.6,352.9
	c40,5.5,76.6-0.3,108-0.9c6.6-21.9-5.5-332.2,2-354C4.8,20.9-90.1,34.4-100.5,29.7z"/>
<path id="i4" opacity="0.84" fill="#B61119" enable-background="new    " d="M373.3-110.2c-15.8-1.5-287.8,7.2-298.9,5.3
	c3,108.3-3,361.9-1.2,452.6c24.7-3.4,271.4,3.2,296.6-1.4C384,269.4,360.5-35.7,373.3-110.2z"/>
<path id="i5" opacity="0.81" fill="#B61119" enable-background="new    " d="M-181.7,97c-22.9-2.2-56.5,1.7-75.8,1.4
	c-1.9,30.9-4.5,69.5,0.2,101.6c24,1.6,54.3,0.3,74.1-1.3C-181.1,171.3-180.2,127.7-181.7,97z"/>
<path id="i6" opacity="0.81" fill="#B61119" enable-background="new    " d="M293.3,190.1c0,29-0.9,57.9,1.5,87.1
	c14.2,3.5,26.5,2.8,44.4,2.7c8.1,0,39.3,5.9,44.6,0.4c1.2-1.3,0.8-18.7,0.8-21.6c0-24,1.5-44.7-2.3-65.5
	C352.8,190.5,323.3,187.5,293.3,190.1z"/>
<path id="i7" opacity="0.85" fill="#951114" enable-background="new    " d="M-405.1-311.9c-18.9,0.8-76.5,3.9-96.8,3.3
	c0.4,38.4,2,84.7-2.7,122.6c15.8,3.4,83.4-0.6,101.8,0.1C-401.6-227.4-404.6-268.6-405.1-311.9z"/>
<path id="i8" opacity="0.84" fill="#B61119" enable-background="new    " d="M-421.3-206.3c0.9,82,2,167.3-0.5,249.9
	c14.3,2,31.8,0.9,48.4,0.8c3.6-81.9-5.7-167.4-2.7-248.3C-386.2-211.7-403.8-204.5-421.3-206.3z"/>
<path id="i9" opacity="0.84" fill="#B61119" enable-background="new    " d="M-333.7,31.2c113.2-0.1,687.3-1.5,801.3-1.1
	c3.2-2.3,2-5.1,2.1-7.8c-113-0.6-687.5,2-799.1,1.6C-340.3,25.7-330.8,28.5-333.7,31.2z"/>
<path id="i10" opacity="0.84" fill="#B61119" enable-background="new    " d="M-111.9,702.3c2-198.5,10.8-1205.4,13.8-1405.3
	c-3.9-5.7-8.9-3.8-13.5-4.1c-3.2,198.2-9.8,1205.7-12.9,1401.3C-121.9,713.7-116.8,697.2-111.9,702.3z"/>
<path id="i11" opacity="0.84" fill="#B61119" enable-background="new    " d="M269.5,293.6c113.2-0.1,230.1,0.5,344.1,0.9
	c3.2-2.3,2-5.1,2.1-7.8c-113-0.6-230.3,0.1-341.9-0.4C262.9,288,272.4,290.8,269.5,293.6z"/>
</svg>
