<?xml version="1.0" encoding="utf-8"?>
<!-- Generator: Adobe Illustrator 17.1.0, SVG Export Plug-In . SVG Version: 6.00 Build 0)  -->
<!DOCTYPE svg PUBLIC "-//W3C//DTD SVG 1.1//EN" "http://www.w3.org/Graphics/SVG/1.1/DTD/svg11.dtd">
<svg version="1.1" id="Layer_1" xmlns="http://www.w3.org/2000/svg" xmlns:xlink="http://www.w3.org/1999/xlink" x="0px" y="0px"
	 viewBox="0 0 960 540" enable-background="new 0 0 960 540" xml:space="preserve">
<path id="i1" opacity="0.8" fill="#FFFFFF" enable-background="new    " d="M123.7,365.9c-0.3-1.5,0.3-113.8-1.2-115.9
	c-1-1.4-70.4-2.7-106.1-2.5c-0.5,1.5,3.8,117.6,3.8,117.6C35.2,365.6,123.7,365.9,123.7,365.9z"/>
<path id="i1.1" opacity="0.6" fill="#FFFFFF" enable-background="new    " d="M22.2,419.7c0,2.4-0.3,5.2,0.4,7.8
	c-4.4,2-157.7,0-167.7-1.7c-0.9-7.9-0.9-8.6-0.9-8.6C-114.1,416.2,22.2,419.7,22.2,419.7z"/>
<path id="i2" fill="#FFFFFF" d="M338.4,180.5c1-0.2,77.7,0.7,79.2-0.7c0.9-0.8,2.4-52,2.3-78.5c-1-0.4-80.4,2.5-80.4,2.5
	C339.2,114.9,338.4,180.5,338.4,180.5z"/>
<path id="i2.1" opacity="0.6" fill="#FFFFFF" enable-background="new    " d="M426,219.8c-0.2,3.7,0,5.2-0.9,9.5
	c9-0.2,144.7-2.3,157.8-3c0.8-1.5,0.8-1.5,1.6-4.8C578,221,441.2,218.5,426,219.8z"/>
<path id="i2.2" fill="#FFFFFF" d="M399.4,249.8c0.1,3.1,0.1,3.1,0.2,7.2c6.5,0.5,140.2-0.1,144.6,0.3c0.2-2.3,0.3-4.2,0.3-6.8
	C541.6,250.2,405,249.7,399.4,249.8z"/>
<path id="i3" opacity="0.6" fill="#FFFFFF" enable-background="new    " d="M738.1-159.3c1.6-0.7,121.8-1.9,124.2-5.3
	c1.5-2.1,0.3-200.8,2.5-207.1c-1.6-0.9-123.2,0.3-123.2,0.3C740.8-340.5,738.1-159.3,738.1-159.3z"/>
<path id="i4" opacity="0.8" fill="#FFFFFF" enable-background="new    " d="M-690.2-177.8c-2.5,0.5-185.4-7.3-189.1-4.3
	c-2.3,1.9-10.2,132.2-12.5,199.4c2.5,1,192-0.3,192-0.3C-697.9-11.4-690.2-177.8-690.2-177.8z"/>
<path id="i4.1" fill="#FFFFFF" d="M-725.5,106.6c-0.1-2.9,0.2-6.6-0.7-9.8c5.6-2.6,200.9-3.7,213.7-1.7c1.4,10,1.3,10.9,1.3,10.9
	C-551.5,107.8-725.5,106.6-725.5,106.6z"/>
<path id="i5" opacity="0.6" fill="#FFFFFF" enable-background="new    " d="M-797.3-30.3c1.2,4.5,8.5,347.2,14.6,353.5
	c3.7,4,363.3-6.2,374-0.5c1.5-4.7-23.6-358.6-23.6-358.6C-485.3-35.6-797.3-30.3-797.3-30.3z"/>
<path id="i5.1" fill="#FFFFFF" d="M-383.8-10.2c-0.2,6.9-0.9,14.5-0.6,25c12.5,0,1090.4-6.4,1083.2-6.3c-1.4-11.7,0.3-9.1-0.8-17.5
	C685.1-9-355.8-11.8-383.8-10.2z"/>
<path id="i5.2" opacity="0.8" fill="#FFFFFF" enable-background="new    " d="M-305.5,97.2c0,0-1.3,6.2,0.9,15.4
	c30.9,3.4,985.1-0.9,1019.9,1.8c2.4-5.9,0-8.4-0.8-13.7C706.4,100.7-305.5,97.2-305.5,97.2z"/>
<path id="i5.3" opacity="0.9" fill="#FFFFFF" enable-background="new    " d="M-368.8,307.4c-1,13.9-1,13.9-0.6,27.1
	c15.9,0.8,1176.9-0.1,1186.2-0.5c-0.7-9.8,1.7-11.3,2.6-23.1C800.1,310.9-340.2,308.1-368.8,307.4z"/>
<path id="i6" opacity="0.6" fill="#FFFFFF" enable-background="new    " d="M479.3-370.9c0.2,0.6,2.9,40.3,3.7,41.1
	c0.4,0.4,28.2-1,42.6-2.3c0.1-0.6-4.8-41.6-4.8-41.6C514.8-373.4,479.3-370.9,479.3-370.9z"/>
<path id="i7" opacity="0.8" fill="#FFFFFF" enable-background="new    " d="M669.6-382.4c0.1,0.6,1.3,43.5,2,44.4
	c0.5,0.6,30.3,0.3,45.7-0.2c0.2-0.7-3.1-45-3.1-45C707.7-383.3,669.6-382.4,669.6-382.4z"/>
<path id="i7.1" fill="#FFFFFF" d="M555.4-355c0-1.4,0.2-3.1-0.1-4.5c2.6-1,92.4,1.7,98.1,2.7c0.5,4.5,0.5,5,0.5,5
	C635.2-351.5,555.4-355,555.4-355z"/>
<path id="i8" opacity="0.6" fill="#FFFFFF" enable-background="new    " d="M-212.4-105.6c1.1-0.2,86.3,2.7,88,1.4
	c1-0.9,4.3-60.2,5-90.8c-1.1-0.4-89.3,0.8-89.3,0.8C-209.3-181.3-212.4-105.6-212.4-105.6z"/>
<path id="i8.1" opacity="0.8" fill="#FFFFFF" enable-background="new    " d="M-106.7-143.8c-0.1-2.5,0.2-5.4-0.6-8
	c4.7-1.7,168.3,10.2,179,12.6c1,8.3,1,8.9,1,8.9C38.9-131.2-106.7-143.8-106.7-143.8z"/>
<path id="i9" opacity="0.7" fill="#FFFFFF" enable-background="new    " d="M375.7-330.2c0.6-0.1,40.5,1.3,41.3,0.7
	c0.6-0.4,2-28.2,2.4-42.5c-0.6-0.2-41.9,0.3-41.9,0.3C377-365.6,375.7-330.2,375.7-330.2z"/>
</svg>
