<?xml version="1.0" encoding="utf-8"?>
<!-- Generator: Adobe Illustrator 17.1.0, SVG Export Plug-In . SVG Version: 6.00 Build 0)  -->
<!DOCTYPE svg PUBLIC "-//W3C//DTD SVG 1.1//EN" "http://www.w3.org/Graphics/SVG/1.1/DTD/svg11.dtd">
<svg version="1.1" id="Layer_1" xmlns="http://www.w3.org/2000/svg" xmlns:xlink="http://www.w3.org/1999/xlink" x="0px" y="0px"
	 viewBox="0 0 1080 1080" enable-background="new 0 0 1080 1080" xml:space="preserve">
<path id="i1" opacity="0.8" fill="#FFFFFF" enable-background="new    " d="M176.2,646.6c-0.3-1.6,0.3-120.3-1.3-122.5
	c-1.1-1.5-74.4-2.9-112.1-2.6c-0.5,1.6,4,124.3,4,124.3C82.7,646.3,176.2,646.6,176.2,646.6z"/>
<path id="i1.1" opacity="0.6" fill="#FFFFFF" enable-background="new    " d="M69,703.4c0,2.5-0.3,5.5,0.4,8.2
	c-4.7,2.1-166.6,0-177.2-1.8c-1-8.3-0.9-9.1-0.9-9.1C-75.1,699.7,69,703.4,69,703.4z"/>
<path id="i2" fill="#FFFFFF" d="M403.1,450.7c1.1-0.2,82.1,0.7,83.7-0.7c0.9-0.8,2.5-55,2.4-83c-1.1-0.4-85,2.6-85,2.6
	C403.9,381.4,403.1,450.7,403.1,450.7z"/>
<path id="i2.1" opacity="0.6" fill="#FFFFFF" enable-background="new    " d="M495.7,492.2c-0.2,3.9,0,5.5-0.9,10
	c9.5-0.2,152.9-2.4,166.7-3.2c0.8-1.6,0.8-1.6,1.7-5.1C656.3,493.5,511.7,490.8,495.7,492.2z"/>
<path id="i2.1.1" fill="#FFFFFF" d="M467.6,523.9c0.1,3.3,0.1,3.3,0.2,7.6c6.9,0.5,148.2-0.1,152.8,0.3c0.2-2.4,0.3-4.4,0.3-7.2
	C617.8,524.3,473.5,523.8,467.6,523.9z"/>
<path id="i3" opacity="0.6" fill="#FFFFFF" enable-background="new    " d="M825.5,91.6c1.7-0.7,128.7-2,131.2-5.6
	c1.6-2.2,0.3-212.2,2.6-218.8c-1.7-1-130.2,0.3-130.2,0.3C828.3-99.9,825.5,91.6,825.5,91.6z"/>
<path id="i4" opacity="0.8" fill="#FFFFFF" enable-background="new    " d="M-683.8,72c-2.6,0.5-195.9-7.7-199.8-4.5
	c-2.4,2-10.8,139.7-13.2,210.7c2.6,1.1,202.9-0.3,202.9-0.3C-692,247.9-683.8,72-683.8,72z"/>
<path id="i4.1" fill="#FFFFFF" d="M-721.1,372.6c-0.1-3.1,0.2-7-0.7-10.4c5.9-2.7,212.3-3.9,225.8-1.8c1.5,10.6,1.4,11.5,1.4,11.5
	C-537.3,373.9-721.1,372.6-721.1,372.6z"/>
<path id="i5" opacity="0.6" fill="#FFFFFF" enable-background="new    " d="M-797,227.9c1.3,4.8,9,366.9,15.4,373.6
	c3.9,4.2,383.9-6.5,395.2-0.5c1.6-5-24.9-378.9-24.9-378.9C-467.3,222.3-797,227.9-797,227.9z"/>
<path id="i5.1" fill="#FFFFFF" d="M-360.1,249.2c-0.2,7.3-0.9,15.3-0.6,26.4c13.2,0,1152.3-6.8,1144.7-6.7
	c-1.5-12.4,0.3-9.6-0.8-18.5C769.5,250.4-330.5,247.5-360.1,249.2z"/>
<path id="i5.1.1" opacity="0.8" fill="#FFFFFF" enable-background="new    " d="M-277.3,362.7c0,0-1.4,6.6,1,16.3
	c32.7,3.6,1041-1,1077.8,1.9c2.5-6.2,0-8.9-0.8-14.5C792,366.4-277.3,362.7-277.3,362.7z"/>
<path id="i5.1.1.1" opacity="0.9" fill="#FFFFFF" enable-background="new    " d="M-344.2,584.8c-1.1,14.7-1.1,14.7-0.6,28.6
	c16.8,0.8,1243.7-0.1,1253.5-0.5c-0.7-10.4,1.8-11.9,2.8-24.4C891,588.5-314,585.5-344.2,584.8z"/>
<path id="i6" opacity="0.6" fill="#FFFFFF" enable-background="new    " d="M552-132c0.2,0.6,3.1,42.6,3.9,43.4
	c0.4,0.4,29.8-1.1,45-2.4c0.1-0.6-5.1-44-5.1-44C589.5-134.6,552-132,552-132z"/>
<path id="i7" opacity="0.8" fill="#FFFFFF" enable-background="new    " d="M753.1-144.2c0.1,0.6,1.4,46,2.1,46.9
	c0.5,0.6,32,0.3,48.3-0.2c0.2-0.7-3.3-47.6-3.3-47.6C793.4-145.1,753.1-144.2,753.1-144.2z"/>
<path id="i7.1" fill="#FFFFFF" d="M632.4-115.2c0-1.5,0.2-3.3-0.1-4.8c2.8-1.1,97.6,1.8,103.7,2.9c0.5,4.8,0.5,5.3,0.5,5.3
	C716.7-111.5,632.4-115.2,632.4-115.2z"/>
<path id="i8" opacity="0.6" fill="#FFFFFF" enable-background="new    " d="M-178.9,148.4c1.2-0.2,91.2,2.9,93,1.5
	c1.1-0.9,4.5-63.6,5.3-95.9c-1.2-0.4-94.4,0.8-94.4,0.8C-175.7,68.4-178.9,148.4-178.9,148.4z"/>
<path id="i8.1" opacity="0.8" fill="#FFFFFF" enable-background="new    " d="M-67.3,108c-0.1-2.6,0.2-5.7-0.6-8.5
	c5-1.8,177.9,10.8,189.2,13.3c1.1,8.8,1.1,9.4,1.1,9.4C86.6,121.3-67.3,108-67.3,108z"/>
<path id="i9" opacity="0.7" fill="#FFFFFF" enable-background="new    " d="M442.5-89c0.6-0.1,42.8,1.4,43.6,0.7
	c0.6-0.4,2.1-29.8,2.5-44.9c-0.6-0.2-44.3,0.3-44.3,0.3C443.9-126.4,442.5-89,442.5-89z"/>
</svg>
