<?xml version="1.0" encoding="utf-8"?>
<!-- Generator: Adobe Illustrator 17.1.0, SVG Export Plug-In . SVG Version: 6.00 Build 0)  -->
<!DOCTYPE svg PUBLIC "-//W3C//DTD SVG 1.1//EN" "http://www.w3.org/Graphics/SVG/1.1/DTD/svg11.dtd">
<svg version="1.1" id="Layer_1" xmlns="http://www.w3.org/2000/svg" xmlns:xlink="http://www.w3.org/1999/xlink" x="0px" y="0px"
	 viewBox="0 0 960 540" enable-background="new 0 0 960 540" xml:space="preserve">
<path id="i1" opacity="0.78" fill-rule="evenodd" clip-rule="evenodd" fill="#B61119" d="M2.4-325.9c-62.1-9.5-137,1.7-196.6,7.2
	c-1.1,48.7,2,96.3-1.2,145.7c64,5.4,133.7-10,192.9-3.4C2-223.4,2.1-274.8,2.4-325.9z"/>
<path id="i2" opacity="0.85" fill-rule="evenodd" clip-rule="evenodd" fill="#951114" d="M82.9-115.4c-62-5.1-138.1,4.7-202.3,5.4
	c1.1,68-6.4,127.7-6.1,195c70,7,132.9-17.4,202.2-11.1C79.9,11.9,82.1-51.1,82.9-115.4z"/>
<path id="i3" opacity="0.81" fill-rule="evenodd" clip-rule="evenodd" fill="#B61119" d="M-151.1,34.3c-13.8,22.9,5.9,370.5,3,414.1
	c46.9,6.5,89.9-0.4,126.7-1c7.7-25.7-6.4-389.8,2.4-415.4C-27.5,24-138.9,39.8-151.1,34.3z"/>
<path id="i4" opacity="0.84" fill-rule="evenodd" clip-rule="evenodd" fill="#B61119" d="M404.8-129.8
	c-18.5-1.8-337.7,8.4-350.7,6.2C57.6,3.5,50.6,301,52.7,407.4c29-4,318.4,3.7,348-1.6C417.4,315.5,389.8-42.5,404.8-129.8z"/>
<path id="i5" opacity="0.81" fill-rule="evenodd" clip-rule="evenodd" fill="#B61119" d="M-246.4,113.3c-26.9-2.6-66.3,2-88.9,1.6
	c-2.2,36.3-5.3,81.6,0.2,119.2c28.2,1.9,63.7,0.3,87-1.5C-245.7,200.4-244.6,149.3-246.4,113.3z"/>
<path id="i6" opacity="0.81" fill-rule="evenodd" clip-rule="evenodd" fill="#B61119" d="M311,222.5c0,34-1,67.9,1.8,102.2
	c16.7,4.1,31.1,3.3,52.1,3.2c9.5,0,46.1,6.9,52.3,0.5c1.4-1.5,0.9-21.9,0.9-25.4c0-28.2,1.8-52.4-2.7-76.8
	C380.8,222.9,346.2,219.4,311,222.5z"/>
<path id="i7" opacity="0.85" fill="#951114" d="M-508.5-366.5c-22.2,0.9-89.8,4.6-113.6,3.9c0.5,45,2.3,99.4-3.2,143.8
	c18.5,4,97.8-0.7,119.4,0.1C-504.4-267.4-507.9-315.7-508.5-366.5z"/>
<path id="i8" opacity="0.84" fill="#B61119" d="M-527.5-242.6c1.1,96.2,2.4,196.3-0.6,293.2c16.8,2.4,37.3,1.1,56.8,0.9
	c4.2-96.1-6.7-196.4-3.2-291.3C-486.3-248.9-506.9-240.5-527.5-242.6z"/>
<path id="i9" opacity="0.84" fill="#B61119" d="M-424.7,36.1c132.8-0.1,806.4-1.8,940.2-1.3c3.8-2.7,2.4-6,2.5-9.1
	c-132.6-0.7-806.6,2.4-937.6,1.9C-432.4,29.6-421.3,32.9-424.7,36.1z"/>
<path id="i10" opacity="0.84" fill="#B61119" d="M-164.5,823.5c2.3-232.9,12.7-1414.3,16.2-1648.8c-4.6-6.7-10.4-4.4-15.8-4.8
	c-3.8,232.5-11.5,1414.6-15.1,1644.2C-176.2,836.8-170.2,817.5-164.5,823.5z"/>
<path id="i11" opacity="0.84" fill="#B61119" d="M283,343.9c132.8-0.1,270,0.6,403.7,1.1c3.8-2.7,2.4-6,2.5-9.1
	c-132.6-0.7-270.2,0.1-401.1-0.5C275.3,337.3,286.4,340.6,283,343.9z"/>
</svg>
