<?xml version="1.0" encoding="utf-8"?>
<!-- Generator: Adobe Illustrator 17.1.0, SVG Export Plug-In . SVG Version: 6.00 Build 0)  -->
<!DOCTYPE svg PUBLIC "-//W3C//DTD SVG 1.1//EN" "http://www.w3.org/Graphics/SVG/1.1/DTD/svg11.dtd">
<svg version="1.1" id="Layer_1" xmlns="http://www.w3.org/2000/svg" xmlns:xlink="http://www.w3.org/1999/xlink" x="0px" y="0px"
	 viewBox="0 0 960 540" enable-background="new 0 0 960 540" xml:space="preserve">
<path id="i1" opacity="0.78" fill-rule="evenodd" clip-rule="evenodd" fill="#B61119" d="M-151.3-356.8
	c-10.6,61.9-0.7,137,3.8,196.7c48.7,1.9,96.3-0.4,145.6,3.8c6.6-63.9-7.6-133.8,0-192.9C-48.8-354.6-100.2-355.6-151.3-356.8z"/>
<path id="i2" opacity="0.85" fill-rule="evenodd" clip-rule="evenodd" fill="#951114" d="M22.3-218.3c-6.2,61.9,2.3,138.1,1.9,202.4
	c68,0.1,127.5,8.7,194.8,9.5c8.2-69.8-15.1-133.1-7.6-202.4C149.5-213.1,86.6-216.4,22.3-218.3z"/>
<path id="i4" opacity="0.84" fill-rule="evenodd" clip-rule="evenodd" fill="#B61119" d="M334.6-6.4c-2.1,18.4,2.5,38.1,0,51.1
	c91.1,29.4,243,74.7,357,97.7c-3.5-29.1-4.2-225-9-254.7C583.6-81.1,416-27.7,334.6-6.4z"/>
<path id="i7" opacity="0.85" fill="#951114" d="M-556.5-74.7c0.5,22.2,3,89.9,1.9,113.7c45,0.3,99.4-0.6,143.8,5.7
	c4.3-18.4,1-97.8,2.2-119.4C-457.3-77.2-505.7-74.5-556.5-74.7z"/>
<path id="i3" opacity="0.81" fill-rule="evenodd" clip-rule="evenodd" fill="#B61119" d="M223.5,152.5
	c26.6,2.6,99.8,23.3,118.1,27.5c-0.7-36.2,6.3-69.7,1.5-107.4c-26.5,4.1-91.6,21.9-118.5,24.9C221.1,108.7,223.2,139.2,223.5,152.5z
	"/>
<path id="i8" opacity="0.84" fill="#B61119" d="M-463.8,128.7c96.2,0.6,196.3,1,293.2,5.7c2.7-16.8,1.8-37.3,1.9-56.7
	c-96-5.8-196.5,3.3-291.3-1.9C-469.4,87.4-461.4,108.2-463.8,128.7z"/>
<path id="i5" opacity="0.81" fill-rule="evenodd" clip-rule="evenodd" fill="#B61119" d="M-47.7,154.3c-3.1,26.8,0.9,66.3,0,88.9
	c36.3,2.9,81.5,6.8,119.2,1.9c2.4-28.1,1.4-63.7,0-87C39.3,155.1-11.7,153.1-47.7,154.3z"/>
<path id="i6" opacity="0.81" fill-rule="evenodd" clip-rule="evenodd" fill="#B61119" d="M293.9,228.7c-0.1,34-1.3,67.9,1.2,102.2
	c16.6,4.2,31.1,3.5,52.1,3.5c9.5,0,46,7.2,52.3,0.8c1.4-1.5,1-21.9,1-25.4c0.2-28.2,2.1-52.4-2.2-76.8
	C363.7,229.5,329.1,225.8,293.9,228.7z"/>
</svg>
