<?xml version="1.0" encoding="utf-8"?>
<!-- Generator: Adobe Illustrator 17.1.0, SVG Export Plug-In . SVG Version: 6.00 Build 0)  -->
<!DOCTYPE svg PUBLIC "-//W3C//DTD SVG 1.1//EN" "http://www.w3.org/Graphics/SVG/1.1/DTD/svg11.dtd">
<svg version="1.1" id="Layer_1" xmlns="http://www.w3.org/2000/svg" xmlns:xlink="http://www.w3.org/1999/xlink" x="0px" y="0px"
	 viewBox="0 0 960 540" enable-background="new 0 0 960 540" xml:space="preserve">
<path id="i9" opacity="0.84" fill="#000001" enable-background="new    " d="M-416,337.5c3.2,27.8,0.5,53.4,2.1,80.2
	c30.5,0.1,63.7,3.2,89.2-1.9c-3.1-24.7,7.6-58.1,3.4-83.7C-352,334.6-386.4,333.5-416,337.5z"/>
<path id="i8" opacity="0.84" fill="#000001" enable-background="new    " d="M89-534.2c0.8,14-0.2,23.4,1.9,32.8
	c187-10.9,391.9-2,577.1,3.6c-1.8-11.6-4.6-22.1-7.3-32.8C460-536.7,284.5-540.6,89-534.2z"/>
<path id="i7" opacity="0.84" fill="#000001" enable-background="new    " d="M221.8-448.6c1.8,14,6.7,24.8,5.4,41.9
	c17-1.2,31.7-4.7,50.9-3.6c-0.9-14.8-5.3-26.3-7.3-40C252.8-449.8,243.3-448.1,221.8-448.6z"/>
<path id="i6" opacity="0.84" fill="#000001" enable-background="new    " d="M136.2-472.4c-1.9,18.9,3.2,30.8,5.4,45.5
	c17,0.7,29-3.9,45.5-3.6c-2.1-15.6-4.7-30.4-5.4-47.4C168.6-474.1,147.4-478.2,136.2-472.4z"/>
<path id="i5" opacity="0.84" fill="#000001" enable-background="new    " d="M-812.3,259.3c-1.2,31,0.8,45.1,6.1,82.6
	c109.5,0.4,222.7,0.4,335.2,4.5c-3.9-31.7,6.2-62.9,0.7-83.3C-585.8,254.5-700.5,263.3-812.3,259.3z"/>
<path id="i4" opacity="0.84" fill="#000001" enable-background="new    " d="M-840.2-297.3c0.1,34.9,8.1,66.8,3.9,103.4
	c195.2,11.9,380.1-3.5,576.6,11.6c1.4-41.1-9.2-119.6-10.3-120.1C-457.3-293.7-654.4-310.3-840.2-297.3z"/>
<path id="i3" opacity="0.84" fill="#000001" enable-background="new    " d="M-121.3,75.8c2.9,28.2,2.8,66.8,5.5,89.3
	c69.5-4.2,160,3.4,229.5-0.9c-1.3-32.5-3.4-59.3-3.6-89.2C18.1,78-42.3,70.9-121.3,75.8z"/>
<path id="i2" opacity="0.84" fill="#000001" enable-background="new    " d="M-829-105.1c-0.5,18.3-3.3,38.9-0.9,54.7
	c430.1,4.3,1115.5-2.1,1243.1-8.8c0.4-17.4,3.6-43.6,0.9-52.8C-40.9-117.7-640.1-103.2-829-105.1z"/>
<path id="i1" opacity="0.84" fill="#000001" enable-background="new    " d="M-299.3,53c153-5.8,358.6,10.8,506.5,5.6
	c0.7-79.6,17-194.9,2.6-282.4c-162,13.5-344.4-7.6-509,3.2L-299.3,53z"/>
</svg>
