<?xml version="1.0" encoding="utf-8"?>
<!-- Generator: Adobe Illustrator 17.1.0, SVG Export Plug-In . SVG Version: 6.00 Build 0)  -->
<!DOCTYPE svg PUBLIC "-//W3C//DTD SVG 1.1//EN" "http://www.w3.org/Graphics/SVG/1.1/DTD/svg11.dtd">
<svg version="1.1" id="Layer_1" xmlns="http://www.w3.org/2000/svg" xmlns:xlink="http://www.w3.org/1999/xlink" x="0px" y="0px"
	 viewBox="242 326 920 540" enable-background="new 242 326 920 540" xml:space="preserve">
<path id="i9" opacity="0.84" enable-background="new    " d="M-170.7,671.7c2.7,23.7,0.4,45.5,1.8,68.3c26,0.1,54.3,2.7,76-1.6
	c-2.6-21,6.5-49.5,2.9-71.3C-116.2,669.3-145.5,668.3-170.7,671.7z"/>
<path id="i8" opacity="0.84" enable-background="new    " d="M259.5-70.8c0.7,11.9-0.2,19.9,1.6,27.9c159.3-9.3,333.8-1.7,491.6,3.1
	c-1.5-9.9-3.9-18.8-6.2-27.9C575.5-73,426-76.3,259.5-70.8z"/>
<path id="i7" opacity="0.84" enable-background="new    " d="M372.6,2.1c1.5,11.9,5.7,21.1,4.6,35.7c14.5-1,27-4,43.4-3.1
	c-0.8-12.6-4.5-22.4-6.2-34.1C399,1.1,390.9,2.5,372.6,2.1z"/>
<path id="i6" opacity="0.84" enable-background="new    " d="M299.7-18.2c-1.6,16.1,2.7,26.2,4.6,38.8c14.5,0.6,24.7-3.3,38.8-3.1
	c-1.8-13.3-4-25.9-4.6-40.4C327.3-19.6,309.2-23.1,299.7-18.2z"/>
<path id="i5" opacity="0.84" enable-background="new    " d="M-508.3,605.1c-1,26.4,0.7,38.4,5.2,70.4c93.3,0.3,189.7,0.3,285.5,3.8
	c-3.3-27,5.3-53.6,0.6-71C-315.4,601-413.1,608.5-508.3,605.1z"/>
<path id="i4" opacity="0.84" enable-background="new    " d="M-532.1,131c0.1,29.7,6.9,56.9,3.3,88.1c166.3,10.1,323.8-3,491.2,9.9
	c1.2-35-7.8-101.9-8.8-102.3C-205.9,134-373.8,119.9-532.1,131z"/>
<path id="i3" opacity="0.84" enable-background="new    " d="M80.3,448.8c2.5,24,2.4,56.9,4.7,76.1c59.2-3.6,136.3,2.9,195.5-0.8
	c-1.1-27.7-2.9-50.5-3.1-76C199.1,450.7,147.6,444.6,80.3,448.8z"/>
<path id="i2" opacity="0.84" enable-background="new    " d="M-522.5,294.7c-0.4,15.6-2.8,33.1-0.8,46.6
	c366.4,3.7,950.2-1.8,1058.9-7.5c0.3-14.8,3.1-37.1,0.8-45C148.8,284-361.6,296.3-522.5,294.7z"/>
<path id="i1" opacity="0.84" enable-background="new    " d="M-71.3,429.4c130.3-4.9,305.5,9.2,431.5,4.8
	c0.6-67.8,14.5-166,2.2-240.6c-138,11.5-293.4-6.5-433.6,2.7L-71.3,429.4z"/>
</svg>
