<?xml version="1.0" encoding="utf-8"?>
<!-- Generator: Adobe Illustrator 17.1.0, SVG Export Plug-In . SVG Version: 6.00 Build 0)  -->
<!DOCTYPE svg PUBLIC "-//W3C//DTD SVG 1.1//EN" "http://www.w3.org/Graphics/SVG/1.1/DTD/svg11.dtd">
<svg version="1.1" id="Layer_1" xmlns="http://www.w3.org/2000/svg" xmlns:xlink="http://www.w3.org/1999/xlink" x="0px" y="0px"
	 viewBox="0 0 1080 1080" enable-background="new 0 0 1080 1080" xml:space="preserve">
<path id="i1" fill="#FF642E" d="M-797.2,705.1c0,0,340.2-1.6,350.1-5.3c6.2-86.6,2.8-240.2,6.2-344.8
	c-114.8,4.9-282.7,9.2-359.4,8.4C-800.3,363.5-800.4,578.4-797.2,705.1z"/>
<path id="i1.1" fill="#F2C2B6" d="M-907.1,572.1c0.2,5.8,0.4,7.9,0.3,14c14.7-0.6,585.9-17.8,597.7-18.3c0.4-6.5,0.4-6.5-0.9-18.3
	C-320,549.8-889.3,570-907.1,572.1z"/>
<path id="i1.2" fill="#F2C2B6" d="M-649.2,761c10.7,3,15.3-0.6,25.8,2.3c0.2-12.8,14.4-886.4,15.3-910.9c-8.5,0-14.9,0-24.1,0
	C-632.4-127.8-648,747.8-649.2,761z"/>
<path id="i2" opacity="0.8" fill="#FF642E" enable-background="new    " d="M-505.5,214c0,0,118.8,9.7,122.5,8.3
	c-0.8-31.4-24.9-285.1-27-305.4c-43.2,1.8-74,0.2-102.9,0C-512.9-83.1-506.7,168-505.5,214z"/>
<path id="i3" opacity="0.8" fill="#FF642E" enable-background="new    " d="M-702.7-56.8c0,0,206.7-0.8,212.6-2.8
	c-1.1-45.6-1.1-149.1-4.6-178.6c-69.6,2.6-160.3,9.8-206.9,9.3C-701.5-228.9-704.6-123.6-702.7-56.8z"/>
<path id="i4" fill="#FF642E" d="M-186.4,167.1c0,0,340.2-1.6,350.1-5.3c-1.9-86.4-1.9-282.8-7.7-339
	c-114.7,4.9-263.9,18.4-340.6,17.8C-184.5-159.4-189.7,40.3-186.4,167.1z"/>
<path id="i4.1" fill="#F2C2B6" d="M-6.4,261.3c6.4-0.3,11.5-0.7,18.2,0c-0.4-14.8-0.8-489.8,0-504.3c-8.3,1.5-12.8,4.3-23.7,4.7
	C-11.8-230.2-5.5,242-6.4,261.3z"/>
<path id="i4.2" fill="#F2C2B6" d="M-571.6,5.7c0.1,3.8,0.2,11.8,0.4,15.8c14.7,0.2,900.3-37.2,909-38.1c0.7-5.9,0.3-10.3,0-17.6
	C323-32.5-555.5,4.2-571.6,5.7z"/>
<path id="i5" opacity="0.8" fill="#FF642E" enable-background="new    " d="M-120.8,450.8c0,0,108.7-0.6,111.8-1.9
	c-0.7-30.1-0.7-98.5-2.5-118c-36.7,1.7-84.4,6.4-108.8,6.2C-120.3,337-121.8,406.6-120.8,450.8z"/>
<path id="i6" fill="#F2C2B6" d="M262,107.5c11,0,68,0,75.5,0c1-11.5,0.5-58.5,0-75.8c-12,0-61-0.2-75.3,0.1
	C260.9,46.5,261.5,91.5,262,107.5z"/>
<path id="i7" opacity="0.6" fill="#FF642E" enable-background="new    " d="M747.5-148.8c0,0,39.6-0.2,40.8-0.8
	c-0.2-12-0.2-39.4-0.9-47.1c-13.4,0.7-30.7,2.6-39.7,2.5C747.7-194.3,747-166.5,747.5-148.8z"/>
<path id="i8" opacity="0.7" fill="#FF642E" enable-background="new    " d="M383.1,640.9c0,0,63.9-0.3,65.8-1.1
	c-0.3-18.5-0.3-60.2-1.5-72.1c-21.6,1-49.6,3.9-64,3.8C383.4,571.5,382.4,613.9,383.1,640.9z"/>
</svg>
