<?xml version="1.0" encoding="utf-8"?>
<!-- Generator: Adobe Illustrator 17.1.0, SVG Export Plug-In . SVG Version: 6.00 Build 0)  -->
<!DOCTYPE svg PUBLIC "-//W3C//DTD SVG 1.1//EN" "http://www.w3.org/Graphics/SVG/1.1/DTD/svg11.dtd">
<svg version="1.1" id="Layer_1" xmlns="http://www.w3.org/2000/svg" xmlns:xlink="http://www.w3.org/1999/xlink" x="0px" y="0px"
	 viewBox="0 0 960 540" enable-background="new 0 0 960 540" xml:space="preserve">
<path id="i1" fill="#FF642E" d="M-708.6,416.8c0,0,302.4-1.4,311.2-4.7c5.5-77,2.5-213.5,5.5-306.5c-102,4.4-251.3,8.2-319.5,7.5
	C-711.4,113.1-711.5,304.1-708.6,416.8z"/>
<path id="i1.1" fill="#F2C2B6" d="M-806.3,298.5l0.3,12.4c140.5-5.5,440.1-12.5,531.3-16.3l-0.8-16.3
	C-275.5,278.3-600.1,290.5-806.3,298.5z"/>
<path id="i1.1.1" fill="#F2C2B6" d="M-580.1,460.6l28.4,7.9c1.1-58.6,8.2-780.8,11.2-809.7h-21.4
	C-561.9-341.1-574.2,378.4-580.1,460.6z"/>
<path id="i2" opacity="0.8" fill="#FF642E" enable-background="new    " d="M-449.3-19.8c0,0,105.6,8.6,108.9,7.4
	c-0.7-27.9-22.1-253.4-24-271.5c-38.4,1.6-65.8,0.2-91.5,0C-455.9-283.9-450.4-60.7-449.3-19.8z"/>
<path id="i3" opacity="0.8" fill="#FF642E" d="M-624.6-260.5c0,0,183.7-0.7,189-2.5c-1-40.5-1-132.5-4.1-158.8
	c-61.9,2.3-142.5,8.7-183.9,8.3C-623.6-413.5-626.3-319.9-624.6-260.5z"/>
<path id="i4" fill="#FF642E" d="M-165.7-61.5c0,0,302.4-1.4,311.2-4.7c-1.7-76.8-1.7-251.4-6.8-301.3
	c-102,4.4-234.6,16.4-302.8,15.8C-164-351.7-168.6-174.2-165.7-61.5z"/>
<path id="i4.1" fill="#F2C2B6" d="M-5.7,22.3h16.2c-0.1-120.7,0.2-365.6,0-444.1l-21.1,10.4C-10.6-411.4-5.8-154.9-5.7,22.3z"/>
<path id="i4.1.1" fill="#F2C2B6" d="M-508.1-204.9l0.4,14c203.7-7.7,675.6-28.6,808-33.9v-15.6C300.3-240.4-209.1-216.2-508.1-204.9
	z"/>
<path id="i5" opacity="0.8" fill="#FF642E" enable-background="new    " d="M-107.4,190.7c0,0,96.6-0.5,99.4-1.7
	c-0.6-26.8-0.6-87.6-2.2-104.9c-32.6,1.5-75,5.7-96.7,5.5C-106.9,89.6-108.3,151.4-107.4,190.7z"/>
<path id="i6" fill="#F2C2B6" d="M232.9-114.4H300c-0.3-17.8,0.7-55.8,0-67.4l-66.9,0.1C233.1-181.7,232.4-140.5,232.9-114.4z"/>
<path id="i7" opacity="0.6" fill="#FF642E" enable-background="new    " d="M664.4-342.3c0,0,35.2-0.2,36.3-0.7
	c-0.2-10.7-0.2-35-0.8-41.9c-11.9,0.6-27.3,2.3-35.3,2.2C664.6-382.7,664-358,664.4-342.3z"/>
<path id="i8" opacity="0.7" fill="#FF642E" enable-background="new    " d="M340.5,359.7c0,0,56.8-0.3,58.5-1
	c-0.3-16.4-0.3-53.5-1.3-64.1c-19.2,0.9-44.1,3.5-56.9,3.4C340.8,298,339.9,335.7,340.5,359.7z"/>
</svg>
