<?xml version="1.0" encoding="utf-8"?>
<!-- Generator: Adobe Illustrator 17.1.0, SVG Export Plug-In . SVG Version: 6.00 Build 0)  -->
<!DOCTYPE svg PUBLIC "-//W3C//DTD SVG 1.1//EN" "http://www.w3.org/Graphics/SVG/1.1/DTD/svg11.dtd">
<svg version="1.1" id="Layer_1" xmlns="http://www.w3.org/2000/svg" xmlns:xlink="http://www.w3.org/1999/xlink" x="0px" y="0px"
	 viewBox="0 0 960 540" enable-background="new 0 0 960 540" xml:space="preserve">
<path id="i1" fill="#FF642E" d="M-642.1,454.4c0,0,296.9-1.4,305.6-4.6c5.4-75.6,2.4-209.6,5.4-300.9c-100.2,4.3-246.7,8-313.7,7.3
	C-644.9,156.3-644.9,343.9-642.1,454.4z"/>
<path id="i1.1" fill="#F2C2B6" d="M-738.1,338.4c0.2,5.1,0.3,6.9,0.3,12.2c12.8-0.5,511.4-15.5,521.7-16c0.3-5.7,0.3-5.7-0.8-16
	C-225.7,318.9-722.5,336.5-738.1,338.4z"/>
<path id="i1.2" fill="#F2C2B6" d="M-513,503.2c9.3,2.6,13.4-0.5,22.5,2c0.2-11.2,12.6-773.6,13.4-795c-7.4,0-13,0-21,0
	C-498.3-272.5-511.9,491.7-513,503.2z"/>
<path id="i2" opacity="0.8" fill="#FF642E" enable-background="new    " d="M-387.6,25.8c0,0,103.7,8.5,106.9,7.2
	c-0.7-27.4-21.7-248.8-23.6-266.5c-37.7,1.6-64.6,0.2-89.8,0C-394-233.5-388.6-14.3-387.6,25.8z"/>
<path id="i3" opacity="0.8" fill="#FF642E" enable-background="new    " d="M-559.7-210.5c0,0,180.4-0.7,185.5-2.4
	c-1-39.8-1-130.1-4-155.9c-60.7,2.3-139.9,8.6-180.6,8.1C-558.6-360.7-561.3-268.8-559.7-210.5z"/>
<path id="i4" fill="#FF642E" d="M-109.1-15.1c0,0,296.9-1.4,305.6-4.6c-1.7-75.4-1.7-246.8-6.7-295.9
	c-100.1,4.3-230.3,16.1-297.3,15.5C-107.4-300.1-111.9-125.8-109.1-15.1z"/>
<path id="i4.1" fill="#F2C2B6" d="M48,67.1c5.6-0.3,10-0.6,15.9,0c-0.3-12.9-0.7-427.5,0-440.1c-7.2,1.3-11.2,3.8-20.7,4.1
	C43.3-361.9,48.8,50.3,48,67.1z"/>
<path id="i4.2" fill="#F2C2B6" d="M-445.3-156c0.1,3.3,0.2,10.3,0.3,13.8c12.8,0.2,785.8-32.5,793.3-33.3c0.6-5.1,0.3-9,0-15.4
	C335.5-189.3-431.2-157.3-445.3-156z"/>
<path id="i5" opacity="0.8" fill="#FF642E" enable-background="new    " d="M-51.8,232.5c0,0,94.9-0.5,97.6-1.7
	c-0.6-26.3-0.6-86-2.2-103c-32,1.5-73.7,5.6-95,5.4C-51.4,133.2-52.7,193.9-51.8,232.5z"/>
<path id="i6" fill="#F2C2B6" d="M282.3-67.1c9.6,0,59.3,0,65.9,0c0.9-10,0.4-51.1,0-66.2c-10.5,0-53.2-0.2-65.7,0.1
	C281.3-120.4,281.8-81.1,282.3-67.1z"/>
<path id="i7" opacity="0.6" fill="#FF642E" enable-background="new    " d="M706-290.8c0,0,34.6-0.2,35.6-0.7
	c-0.2-10.5-0.2-34.4-0.8-41.1c-11.7,0.6-26.8,2.3-34.6,2.2C706.2-330.5,705.6-306.3,706-290.8z"/>
<path id="i8" opacity="0.7" fill="#FF642E" enable-background="new    " d="M388,398.4c0,0,55.8-0.3,57.4-1
	c-0.3-16.1-0.3-52.5-1.3-62.9c-18.9,0.9-43.3,3.4-55.9,3.3C388.2,337.8,387.4,374.8,388,398.4z"/>
</svg>
