<?xml version="1.0" encoding="utf-8"?>
<!-- Generator: Adobe Illustrator 17.1.0, SVG Export Plug-In . SVG Version: 6.00 Build 0)  -->
<!DOCTYPE svg PUBLIC "-//W3C//DTD SVG 1.1//EN" "http://www.w3.org/Graphics/SVG/1.1/DTD/svg11.dtd">
<svg version="1.1" id="Layer_1" xmlns="http://www.w3.org/2000/svg" xmlns:xlink="http://www.w3.org/1999/xlink" x="0px" y="0px"
	 viewBox="0 0 1080 1080" enable-background="new 0 0 1080 1080" xml:space="preserve">
<path id="i1" opacity="0.8" fill="#634E0D" enable-background="new    " d="M-226.6,655.3c0,0,47.2,1.2,50.5,4.4
	c-1.6-141.6,6.9-631,5.2-757.8c-7.5,1-46.6,1.5-65.1,4.4C-236.1-93.7-228.3,525-226.6,655.3z"/>
<path id="i2" opacity="0.7" fill="#634E0D" enable-background="new    " d="M-171.2,644.9c0,0,63.3-3,66.6,0.1
	c-6.4-148.5-3.9-627.1-9.9-759.9c-7.5,1.2-60.1,6.3-78.6,10C-193.1-105-177.3,508.4-171.2,644.9z"/>
<path id="i3" opacity="0.7" fill="#634E0D" enable-background="new    " d="M-261.9,653.2c0,0,33,2.2,36,5.4
	c4.1-143-2.9-570.9-1.6-697.3c-7.7,0.8-5.3-4.3-24-1.8C-251.6-40.4-260,523-261.9,653.2z"/>
<path id="i4" opacity="0.7" fill="#474611" enable-background="new    " d="M-108.2,649.2c0,0,33.9,8.3,37,11.6
	c0.2-141.6,5.7-692.3,5.6-819.1c-7.5,0.9-24.1-2.7-42.6,0C-108.2-158.3-108.3,519-108.2,649.2z"/>
<path id="i5" opacity="0.8" fill="#634E0D" enable-background="new    " d="M-70.7,687.9c0,0,32.3,0,35.4,3.3
	C-34.9,549.6-48-43.9-48.3-170.7c-7.4,2.1-14,1.5-19.1,3.6C-67.3-167.1-70.7,557.8-70.7,687.9z"/>
<path id="i6" opacity="0.7" fill="#634E0D" enable-background="new    " d="M-289.2,670.4c0,0,24.5-3.8,27.7-0.7
	c0.2-141.6,12.4-513.9,12.3-640.7c-7.5,0.9-21.4,0.2-39.9,2.9C-289.4,32.1-289.4,540.1-289.2,670.4z"/>
<path id="i7" opacity="0.7" fill="#634E0D" enable-background="new    " d="M-321.5,695.7c0,0,29.4-5.4,32.6-2.2
	c0.2-141.6,0.1-577.8,0-704.6c-7.5,0.9-13.9-2.8-32.6,0C-321.5-11.1-321.6,565.5-321.5,695.7z"/>
<path id="i8" opacity="0.7" fill="#634E0D" enable-background="new    " d="M-47.6,576.5c0,0,67.2,29.2,70.3,32.4
	c0.2-141.6-35-625.4-35.1-752.2c-7.5,0.9-16.6,3.4-35.2,6.1C-47.6-137.1-47.7,446.3-47.6,576.5z"/>
<path id="i9" opacity="0.8" fill="#634E0D" enable-background="new    " d="M22.8,644.9c0,0,29.2-4.4,32.7-1.5
	c-10.9-141.2,8.2-696.8-1.9-823.2c-7.5,1.5-46.4,4.5-64.7,8.8C-11.1-171,12.5,515,22.8,644.9z"/>
<path id="i10" opacity="0.7" fill="#474611" enable-background="new    " d="M46.5,593.9c0,0,70-13.2,73.2-10
	c0.2-141.6,30-560.5,29.9-687.3c-7.5,0.9-84.5,0.8-103.2,3.6C46.5-99.8,46.4,463.7,46.5,593.9z"/>
<path id="i11" opacity="0.7" fill="#474611" enable-background="new    " d="M-376.5,668.1c0,0,47.4-3,50.4,0.2
	c4.5-141.5,5.5-555.9,9.1-682.6c-7.6,0.7-20.2-2-38.9,0.2C-355.9-13.9-372.7,538-376.5,668.1z"/>
<path id="i12" opacity="0.7" fill="#634E0D" enable-background="new    " d="M-411,638.4c0,0,36.7-3.5,39.8-0.3
	c0.2-141.6,15-648.3,14.7-775.1c-7.5,0.9-46.6,0.8-65.2,3.6C-421.5-133.4-411.1,508.3-411,638.4z"/>
<path id="i13" opacity="0.8" fill="#634E0D" enable-background="new    " d="M-455.3,683.8c0,0,46.9-7,50.3-3.9
	c-7.5-141.4-6.1-385.4-13.2-512c-7.5,1.2-46.5,3.4-64.9,7.2C-483.1,174.9-462.4,553.7-455.3,683.8z"/>
<path id="i14" opacity="0.8" fill="#474611" enable-background="new    " d="M115.1,562.7c0,0,56-1.9,59.2,1.2
	c0.2-141.6,36.1-574.2,36-701c-7.5,0.9-46.6,0.8-65.2,3.6C145-133.4,115,432.6,115.1,562.7z"/>
<path id="i15" opacity="0.8" fill="#634E0D" enable-background="new    " d="M-524,677.4c0,0,36.7-3.5,39.8-0.3
	c0.4-344.1,15.2-415,14.7-775.1c-7.5,0.9-46.6,0.8-65.2,3.6C-534.6,231.5-524.2,337-524,677.4z"/>
<path id="i16" opacity="0.8" fill="#634E0D" enable-background="new    " d="M191.4,684.9c0,0,104.5,0,114.8,3.4
	c0.7-149.7-42-777.4-42.4-911.5c-23.9,2.2-45,1.6-61.8,3.8C202.1-219.4,191.1,547.2,191.4,684.9z"/>
<path id="i17" opacity="0.7" fill="#634E0D" enable-background="new    " d="M-572,583.6c0,0,47.2-3.9,50.4-0.8
	c3.7-345.4,16.5-152.8,19.5-511.8c-7.6,0.8-46.6,0.4-65.2,3C-570.3,400.1-569,242.2-572,583.6z"/>
<path id="i18" opacity="0.7" fill="#474611" enable-background="new    " d="M249,654c0,0,109.5,8.9,119.7,12.3
	c0.7-149.7,18.6-732.1,18.1-866.2c-24.5,0.9-77.7-2.9-137.9,0C248.8-200,248.7,516.3,249,654z"/>
<path id="i19" opacity="0.7" fill="#634E0D" enable-background="new    " d="M-601.8,638.9c0,0,47.3-3.7,50.4-0.6
	c5.1-332.1-6.6-312.6-1.8-682.6c-7.7,0.8-20.3-1.6-39,0.9C-596.8,282.4-597.5,309.7-601.8,638.9z"/>
<path id="i20" opacity="0.41" fill="#B78006" enable-background="new    " d="M-483.1,422.6c0,0,307.6-25.4,309-21.9
	c0.1-157.3-6.8-186.9-7.7-256.8c-3.5,1-282.7-48.6-291.4-45.6C-473.1,98.2-483.1,336.4-483.1,422.6z"/>
<path id="i21" opacity="0.7" fill="#B78006" enable-background="new    " d="M-196.7,508.3c0,0,412.4-15.3,414.3-13.2
	c0.1-94.3-9-112.1-10.3-154c-4.7,0.6-379.1-29.1-390.7-27.3C-183.3,313.9-196.7,456.6-196.7,508.3z"/>
</svg>
