<?xml version="1.0" encoding="utf-8"?>
<!-- Generator: Adobe Illustrator 17.1.0, SVG Export Plug-In . SVG Version: 6.00 Build 0)  -->
<!DOCTYPE svg PUBLIC "-//W3C//DTD SVG 1.1//EN" "http://www.w3.org/Graphics/SVG/1.1/DTD/svg11.dtd">
<svg version="1.1" id="Layer_1" xmlns="http://www.w3.org/2000/svg" xmlns:xlink="http://www.w3.org/1999/xlink" x="0px" y="0px"
	 viewBox="0 0 960 540" enable-background="new 0 0 960 540" xml:space="preserve">
<path id="i1" opacity="0.8" fill="#634E0D" enable-background="new    " d="M-102.1,421.7c0,0,42.8,1.1,45.7,4
	c-1.4-128.3,6.3-571.6,4.7-686.5c-6.8,0.9-42.2,1.4-59,4C-110.7-256.8-103.7,303.7-102.1,421.7z"/>
<path id="i2" opacity="0.7" fill="#634E0D" enable-background="new    " d="M-51.9,412.3c0,0,57.3-2.7,60.3,0.1
	C2.6,277.9,4.9-155.7-0.6-276c-6.8,1.1-54.4,5.7-71.2,9.1C-71.8-267.1-57.5,288.6-51.9,412.3z"/>
<path id="i3" opacity="0.7" fill="#634E0D" enable-background="new    " d="M-134.1,419.8c0,0,29.9,2,32.6,4.9
	c3.7-129.5-2.6-517.2-1.4-631.7c-7,0.7-4.8-3.9-21.7-1.6C-124.8-208.5-132.4,301.9-134.1,419.8z"/>
<path id="i4" opacity="0.7" fill="#474611" enable-background="new    " d="M5.1,416.2c0,0,30.7,7.5,33.5,10.5
	c0.2-128.3,5.2-627.2,5.1-742c-6.8,0.8-21.8-2.4-38.6,0C5.1-315.3,5,298.2,5.1,416.2z"/>
<path id="i5" opacity="0.8" fill="#634E0D" enable-background="new    " d="M39.1,451.2c0,0,29.3,0,32.1,3
	C71.5,326,59.7-211.7,59.4-326.6c-6.7,1.9-12.7,1.4-17.3,3.3C42.2-323.3,39.1,333.4,39.1,451.2z"/>
<path id="i6" opacity="0.7" fill="#634E0D" enable-background="new    " d="M-158.8,435.4c0,0,22.2-3.4,25.1-0.6
	c0.2-128.3,11.2-465.6,11.1-580.4c-6.8,0.8-19.4,0.2-36.1,2.6C-159-142.9-159,317.3-158.8,435.4z"/>
<path id="i7" opacity="0.7" fill="#634E0D" enable-background="new    " d="M-188.1,458.3c0,0,26.6-4.9,29.5-2
	c0.2-128.3,0.1-523.4,0-638.3c-6.8,0.8-12.6-2.5-29.5,0C-188.1-182-188.2,340.4-188.1,458.3z"/>
<path id="i8" opacity="0.7" fill="#634E0D" enable-background="new    " d="M60,350.3c0,0,60.9,26.5,63.7,29.4
	c0.2-128.3-31.7-566.6-31.8-681.4c-6.8,0.8-15,3.1-31.9,5.5C60-296.1,59.9,232.4,60,350.3z"/>
<path id="i9" opacity="0.8" fill="#634E0D" enable-background="new    " d="M123.8,412.3c0,0,26.5-4,29.6-1.4
	c-9.9-127.9,7.4-631.2-1.7-745.8c-6.8,1.4-42,4.1-58.6,8C93.1-326.9,114.5,294.6,123.8,412.3z"/>
<path id="i10" opacity="0.7" fill="#474611" enable-background="new    " d="M145.3,366.1c0,0,63.4-12,66.3-9.1
	c0.2-128.3,27.2-507.8,27.1-622.6c-6.8,0.8-76.6,0.7-93.5,3.3C145.3-262.3,145.2,248.1,145.3,366.1z"/>
<path id="i11" opacity="0.7" fill="#474611" enable-background="new    " d="M-237.9,433.3c0,0,42.9-2.7,45.7,0.2
	c4.1-128.2,5-503.6,8.2-618.4c-6.9,0.6-18.3-1.8-35.2,0.2C-219.3-184.5-234.5,315.4-237.9,433.3z"/>
<path id="i12" opacity="0.7" fill="#634E0D" enable-background="new    " d="M-269.2,406.4c0,0,33.2-3.2,36.1-0.3
	c0.2-128.3,13.6-587.3,13.3-702.2c-6.8,0.8-42.2,0.7-59.1,3.3C-278.7-292.8-269.3,288.5-269.2,406.4z"/>
<path id="i13" opacity="0.8" fill="#634E0D" enable-background="new    " d="M-309.3,447.5c0,0,42.5-6.3,45.6-3.5
	c-6.8-128.1-5.5-349.1-12-463.8c-6.8,1.1-42.1,3.1-58.8,6.5C-334.5-13.5-315.8,329.7-309.3,447.5z"/>
<path id="i14" opacity="0.8" fill="#474611" enable-background="new    " d="M207.4,337.8c0,0,50.7-1.7,53.6,1.1
	c0.2-128.3,32.7-520.2,32.6-635c-6.8,0.8-42.2,0.7-59.1,3.3C234.5-292.8,207.3,220,207.4,337.8z"/>
<path id="i15" opacity="0.8" fill="#634E0D" enable-background="new    " d="M-371.6,441.7c0,0,33.2-3.2,36.1-0.3
	c0.4-311.7,13.8-376,13.3-702.2c-6.8,0.8-42.2,0.7-59.1,3.3C-381.2,37.8-371.7,133.4-371.6,441.7z"/>
<path id="i16" opacity="0.8" fill="#634E0D" enable-background="new    " d="M276.5,448.5c0,0,94.7,0,104,3.1
	c0.6-135.6-38-704.3-38.4-825.7c-21.7,2-40.8,1.4-56,3.4C286.2-370.7,276.3,323.8,276.5,448.5z"/>
<path id="i17" opacity="0.7" fill="#634E0D" enable-background="new    " d="M-415,356.8c0,0,42.8-3.5,45.7-0.7
	c3.4-312.9,14.9-138.4,17.7-463.6c-6.9,0.7-42.2,0.4-59.1,2.7C-413.5,190.5-412.3,47.5-415,356.8z"/>
<path id="i18" opacity="0.7" fill="#474611" enable-background="new    " d="M328.7,420.5c0,0,99.2,8.1,108.4,11.1
	c0.6-135.6,16.9-663.2,16.4-784.7c-22.2,0.8-70.4-2.6-124.9,0C328.5-353.1,328.4,295.8,328.7,420.5z"/>
<path id="i19" opacity="0.7" fill="#634E0D" enable-background="new    " d="M-442,406.9c0,0,42.9-3.4,45.7-0.5
	c4.6-300.9-6-283.2-1.6-618.4c-7,0.7-18.4-1.4-35.3,0.8C-437.5,83.9-438.1,108.6-442,406.9z"/>
<path id="i20" opacity="0.41" fill="#B78006" enable-background="new    " d="M-334.5,210.9c0,0,278.7-23,279.9-19.8
	c0.1-142.5-6.2-169.3-7-232.6c-3.2,0.9-256.1-44-264-41.3C-325.4-83-334.5,132.8-334.5,210.9z"/>
<path id="i21" opacity="0.7" fill="#B78006" enable-background="new    " d="M-75.1,288.5c0,0,373.6-13.9,375.3-12
	c0.1-85.4-8.2-101.6-9.3-139.5c-4.3,0.5-343.4-26.4-353.9-24.7C-62.9,112.4-75.1,241.7-75.1,288.5z"/>
</svg>
