<?xml version="1.0" encoding="utf-8"?>
<!-- Generator: Adobe Illustrator 17.1.0, SVG Export Plug-In . SVG Version: 6.00 Build 0)  -->
<!DOCTYPE svg PUBLIC "-//W3C//DTD SVG 1.1//EN" "http://www.w3.org/Graphics/SVG/1.1/DTD/svg11.dtd">
<svg version="1.1" id="Layer_1" xmlns="http://www.w3.org/2000/svg" xmlns:xlink="http://www.w3.org/1999/xlink" x="0px" y="0px"
	 viewBox="0 0 960 540" enable-background="new 0 0 960 540" xml:space="preserve">
<path id="i1" fill="#C42727" d="M-342.9,129.1c40.5,2.8,665.6-0.5,751.1,4.4c-1.5-53.9-2.9-81.7-2.9-131.8
	c-232.5,6-588.6,16.9-753.1,16.6C-347.8,18.3-343.4,87.9-342.9,129.1z"/>
<path id="i2" fill="#F40808" d="M-712.2,16.9C-671.9,21.5,295.5,0.1,347.6,1.7c0.7-16.5-8.6-57.5-8.6-77
	C275.9-71.9-532.9-48-716.3-46C-716.3-46-710.9-24.3-712.2,16.9z"/>
<path id="i3" fill="#C42727" d="M-549.5-70.4c40.5,2.8,665.3-21.3,750.7-16.4c-1.5-53.9,4.8-85.8,4.8-135.9
	c-45.4,0.9-730.7,62.3-759.1,62.8C-553.1-159.9-550-111.6-549.5-70.4z"/>
<path id="i4" fill="#C42727" d="M624.2-263.7c0.6-14.1,1.5-144.2,2.5-174c-9.2,0.5-0.7,0.5-9.2,0.5c-0.1,85.8,0.1,116.3-0.3,173.7
	C617.2-263.6,617.2-263.6,624.2-263.7z"/>
<path id="i5" fill="#F40808" d="M418.4-238.9c-2.7,40.5-3.5,413.4-8.2,498.9c53.9-1.5,3.8-1.5,53.9-1.5
	c-2.5-246.1-4.5-333.4-4.4-497.9C459.6-239.4,459.6-239.4,418.4-238.9z"/>
<path id="i6" fill="#C42727" d="M-654.3-186.9c40,6.6,704.4-13.6,731.7-11.6c1-22.5-1.3-71.3,0.1-93.7
	c-48.8,5.9-708.4-15.3-736.9-17.3C-659.4-309.5-657.9-226.5-654.3-186.9z"/>
<path id="i7" fill="#C42727" d="M704.2-239.7c0.7-14.4,1.3-147.1,2.5-177.5c-11.9,0.5-0.8,0.5-11.9,0.5
	c0.2,87.6,0.6,118.7,0.3,177.2C695.1-239.5,695.1-239.5,704.2-239.7z"/>
<path id="i8" fill="#C42727" d="M673.8-260.3c0.5-14.8,1.3-150.1,2.2-181.1c-9.4,0.5-0.7,0.5-9.4,0.5c0,89.3,0.2,121.1,0,180.8
	C666.7-260.1,666.7-260.1,673.8-260.3z"/>
<path id="i9" fill="#C42727" d="M657.3-305.9c0.6-14.7,0.6-149.6,1.7-180.6c-12.8,0.6-0.9,0.5-12.8,0.6
	c0.7,89.1,1.2,120.7,1.3,180.2C647.6-305.7,647.6-305.7,657.3-305.9z"/>
<path id="i10" fill="#F40808" d="M-696.6,194.5c40.5,2.8,421.9-5,507.4,0c-1.4-53.9-4.7-44.5-4.6-94.5
	c-201.9,19.5-389.6,34-509.5,41.2C-703.4,141.2-697.1,153.3-696.6,194.5z"/>
<path id="i11" fill="#F40808" d="M-227.9-319.3c40.6,0.3,672,3.9,757.6,3.6c6.1-15.4,3.9-45.1,3.4-60.3
	c-55.5,2.3-714.5-1.3-754.9-0.2C-221.8-376.3-220.6-340.5-227.9-319.3z"/>
<path id="i12" fill="#C42727" d="M216.9,219.3c-0.3,14.7,3.1,149.6,2.7,180.6c12.7-0.9,0.9-0.6,12.7-0.9
	c-2.9-89-4.2-120.6-5.7-180.2C226.7,218.9,226.7,218.9,216.9,219.3z"/>
<path id="i13" fill="#C42727" d="M498.7,233.2c-0.1,14.7,3.3,150,3.3,181.1c9.3-0.8,0.7-0.5,9.3-0.8c-2.8-89.3-3.9-121-5.5-180.7
	C505.8,232.8,505.8,232.8,498.7,233.2z"/>
<path id="i14" fill="#C42727" d="M393.4,206.4c-0.4,14.4,1.5,147.1,0.9,177.5c11.9-0.7,0.8-0.5,11.9-0.7
	c-1.9-87.5-2.8-118.6-3.7-177.2C402.5,206,402.5,206,393.4,206.4z"/>
<path id="i15" fill="#C42727" d="M436.5,241.2c-0.1,14.1,3.2,144.2,3.1,174c9.2-0.8,0.6-0.5,9.2-0.8c-2.7-85.8-3.8-116.3-5.3-173.6
	C443.6,240.8,443.6,240.8,436.5,241.2z"/>
</svg>
