<?xml version="1.0" encoding="utf-8"?>
<!-- Generator: Adobe Illustrator 17.1.0, SVG Export Plug-In . SVG Version: 6.00 Build 0)  -->
<!DOCTYPE svg PUBLIC "-//W3C//DTD SVG 1.1//EN" "http://www.w3.org/Graphics/SVG/1.1/DTD/svg11.dtd">
<svg version="1.1" id="Layer_1" xmlns="http://www.w3.org/2000/svg" xmlns:xlink="http://www.w3.org/1999/xlink" x="0px" y="0px"
	 viewBox="0 0 960 540" enable-background="new 0 0 960 540" xml:space="preserve">
<path id="i1" opacity="0.3" fill="#004393" enable-background="new    " d="M-37.4,44c0.9,3.6,3.5,73.4,3.5,83.2
	c13.8,1.2,59.9,0.1,75.3-1.4c0.8-16.2,0.9-69.4,1.4-84C37.9,42.7-37.4,44-37.4,44z"/>
<path id="i1.1" opacity="0.1" fill="#004393" enable-background="new    " d="M-61.1,15.4c1.6,6,1.9,124.2,1.9,140.8
	c26.9,1.9,122.6,1.3,145.7,1c1.5-27.4,2-120.8,2.6-145.3C79.7,13.3-61.1,15.4-61.1,15.4z"/>
<path id="i1.2" opacity="0.1" fill="#004393" enable-background="new    " d="M-90.2,4.3c-2.6,13.6,1.6,157.4,1.6,178.3
	c33.5,2.5,162.8-11.4,192.4-12c1.9-34.7-8.2-139.6-7.5-170.8C84.7,1.5-90.2,4.3-90.2,4.3z"/>
<path id="i1.3" opacity="0.1" fill="#004393" enable-background="new    " d="M-115.6-34.3c2.6,10.3-9.6,203.3-9.4,231
	c43.4,3.3,208,14.9,243.3,13.3c2.5-46,3.5-208.8,4.1-250.2C107.4-37.8-115.6-34.3-115.6-34.3z"/>
<path id="i1.4" opacity="0.1" fill="#004393" enable-background="new    " d="M-184.8-134.9c-3.6,23.7-6.3,371.6-6.2,420.9
	c75.5,5.8,349.3,12.5,410.2,17.9c4.2-81.7,5.9-375.7,7.5-449C200.4-141-184.8-134.9-184.8-134.9z"/>
<path id="i2" opacity="0.3" fill="#004393" enable-background="new    " d="M-590.5,171.2c0.3,1.4-1.4,29.3-1.4,33
	c3.9,0.5,18.3,2.6,21.4,3.1c0.3-6.4,0.4-31.1,0.4-36.8C-571.2,170.7-590.5,171.2-590.5,171.2z"/>
<path id="i2.1" opacity="0.3" fill="#004393" enable-background="new    " d="M-595.5,164.9c0.4,2.6-1.8,52.8-1.8,59.9
	c5.4,0.9,24.9,4.6,29.4,5.4c0.3-11.6,0.5-56.1,0.6-66.6C-569.3,164.2-595.5,164.9-595.5,164.9z"/>
<path id="i3" opacity="0.3" fill="#004393" enable-background="new    " d="M-646.9,387.4c0.3,2.4-1.4,49.3-1.4,55.9
	c3.9,0.8,18.1,4.3,21.4,5.1c0.3-10.8,0.4-52.5,0.4-62.2C-627.7,386.7-646.9,387.4-646.9,387.4z"/>
<path id="i4" opacity="0.3" fill="#004393" enable-background="new    " d="M716.6-103.3c0.3,0.8-1.7,15.1-1.7,17.2
	c5.1,0.2,23.3,1.4,27.4,1.5c0.3-3.3,0.4-16.1,0.5-19.1C741-103.4,716.6-103.3,716.6-103.3z"/>
<path id="i4.1" opacity="0.3" fill="#004393" enable-background="new    " d="M711.8-110.7c0.4,2-2.1,40.7-2.1,46
	c6.3,0.7,29.4,3.6,34.5,4.1c0.4-8.9,0.5-43.2,0.6-51.3C742.6-111.4,711.8-110.7,711.8-110.7z"/>
<path id="i4.2" opacity="0.3" fill="#004393" enable-background="new    " d="M704.5-112.2c0.8,2.3,0.3,46.7,0.8,52.9
	c8.9,0.5,40.9,2.8,48.1,3.2c-0.3-10.3-2.7-49.6-3.1-58.8C747.2-114.3,704.5-112.2,704.5-112.2z"/>
<path id="i5" opacity="0.2" fill="#004393" enable-background="new    " d="M864.9,62.4c0.2,1.3-0.3,24.5-0.3,27.8
	c2.6,0.3,11.6,2.1,13.8,2.5c0-5.4-0.4-25.9-0.4-31C877.2,61.9,864.9,62.4,864.9,62.4z"/>
<path id="i6" opacity="0.1" fill="#004393" enable-background="new    " d="M-674-248.6c-2.1,0.7-47.9,1.9-53.4,1.9
	c-0.6,11.3,0.6,45.9,0,55c9.2,0.6,46.6,1.9,54.8,2.1C-673-193.6-674-248.6-674-248.6z"/>
<path id="i6.1" opacity="0.1" fill="#004393" enable-background="new    " d="M-633.9-284.7c-16.7,0.1-100.8-0.1-112.9-0.1
	c-1.3,20.2-2.7,87.2-3.8,103.4c20,1.2,102.1,0.9,120,1.4C-631.8-187.1-633.9-284.7-633.9-284.7z"/>
<path id="i6.2" opacity="0.1" fill="#004393" enable-background="new    " d="M-837.7-342.4c0.4,40.1,4.4,171.7,5.5,192.8
	c45.5,0.1,198.3-9,235-8.6c0.9-33.3-19.6-147.3-20.8-198.1C-633.7-354-837.7-342.4-837.7-342.4z"/>
<path id="i6.3" opacity="0.1" fill="#004393" enable-background="new    " d="M-609.4-325.8c-38.5-1.4-164.4-3.2-184.6-3.1
	c-2,41.6-0.2,181.9-2,215.6c31.8,2.2,141.8-11.7,190.4-10.6C-607.3-138.4-609.4-325.8-609.4-325.8z"/>
<path id="i6.4" opacity="0.1" fill="#004393" enable-background="new    " d="M-543.2-408.6c-42.8-6-291.4-7.7-327.7-7.6
	c-3.7,67.8-3.9,299.2-7.5,353.9c60.2,3.7,290.9,4.8,344.8,6.1C-536.7-79.6-543.2-408.6-543.2-408.6z"/>
<path id="i7" opacity="0.2" fill="#004393" enable-background="new    " d="M473.9-40.3c0.2,1-0.8,21.8-0.8,24.8
	c2.5,0.3,11.2,1.9,13.3,2.3c0.2-4.8,0.2-23.1,0.3-27.4C485.7-40.6,473.9-40.3,473.9-40.3z"/>
<path id="i8" opacity="0.2" fill="#004393" enable-background="new    " d="M324.6,56.2c0.4,1-1.9,22.5-1.9,25.4
	c5.7,0.4,26.5,2,31.2,2.3c0.4-4.9,0.5-24,0.6-28.4C352.5,55.8,324.6,56.2,324.6,56.2z"/>
<path id="i8.1" opacity="0.2" fill="#004393" enable-background="new    " d="M330.6,60.8c0.2,0.8-1.2,15.1-1.2,17.2
	c3.5,0.3,16.2,1.4,19,1.6c0.2-3.3,0.3-16.2,0.3-19.1C347.5,60.6,330.6,60.8,330.6,60.8z"/>
</svg>
