<?xml version="1.0" encoding="utf-8"?>
<!-- Generator: Adobe Illustrator 17.1.0, SVG Export Plug-In . SVG Version: 6.00 Build 0)  -->
<!DOCTYPE svg PUBLIC "-//W3C//DTD SVG 1.1//EN" "http://www.w3.org/Graphics/SVG/1.1/DTD/svg11.dtd">
<svg version="1.1" id="Layer_1" xmlns="http://www.w3.org/2000/svg" xmlns:xlink="http://www.w3.org/1999/xlink" x="0px" y="0px"
	 viewBox="0 0 960 540" enable-background="new 0 0 960 540" xml:space="preserve">
<path id="i1" opacity="0.3" fill="#004393" enable-background="new    " d="M-101.8,5.7c0.9,3.7,3.6,74.4,3.6,84.4
	c14,1.2,60.7,0.1,76.4-1.4c0.8-16.4,0.9-70.4,1.4-85.2C-25.5,4.3-101.8,5.7-101.8,5.7z"/>
<path id="i1.1" opacity="0.1" fill="#004393" enable-background="new    " d="M-125.9-23.3c1.6,6.1,1.9,126,1.9,142.8
	c27.3,1.9,124.3,1.3,147.8,1c1.5-27.8,2-122.5,2.6-147.4C16.9-25.5-125.9-23.3-125.9-23.3z"/>
<path id="i1.2" opacity="0.1" fill="#004393" enable-background="new    " d="M-155.4-34.6c-2.6,13.8,1.6,159.6,1.6,180.8
	c34,2.5,165.1-11.6,195.1-12.2C43.2,98.8,33-7.6,33.7-39.2C22-37.4-155.4-34.6-155.4-34.6z"/>
<path id="i1.3" opacity="0.1" fill="#004393" enable-background="new    " d="M-181.1-73.7c2.6,10.4-9.7,206.2-9.5,234.3
	c44,3.3,210.9,15.1,246.7,13.5c2.5-46.6,3.5-211.8,4.2-253.7C45-77.3-181.1-73.7-181.1-73.7z"/>
<path id="i1.4" opacity="0.1" fill="#004393" enable-background="new    " d="M-251.3-175.8c-3.7,24-6.4,376.9-6.3,426.8
	c76.6,5.9,354.2,12.7,416,18.2c4.3-82.9,6-381,7.6-455.3C139.3-182-251.3-175.8-251.3-175.8z"/>
<path id="i2" opacity="0.3" fill="#004393" enable-background="new    " d="M-662.7,134.7c0.3,1.4-1.4,29.7-1.4,33.5
	c4,0.5,18.6,2.6,21.7,3.1c0.3-6.5,0.4-31.5,0.4-37.3C-643.2,134.2-662.7,134.7-662.7,134.7z"/>
<path id="i2.1" opacity="0.3" fill="#004393" enable-background="new    " d="M-667.8,128.3c0.4,2.6-1.8,53.5-1.8,60.7
	c5.5,0.9,25.3,4.7,29.8,5.5c0.3-11.8,0.5-56.9,0.6-67.5C-641.2,127.6-667.8,128.3-667.8,128.3z"/>
<path id="i3" opacity="0.3" fill="#004393" enable-background="new    " d="M-719.9,353.9c0.3,2.4-1.4,50-1.4,56.7
	c4,0.8,18.4,4.4,21.7,5.2c0.3-11,0.4-53.2,0.4-63.1C-700.5,353.2-719.9,353.9-719.9,353.9z"/>
<path id="i4" opacity="0.3" fill="#004393" enable-background="new    " d="M662.8-143.7c0.3,0.8-1.7,15.3-1.7,17.4
	c5.2,0.2,23.6,1.4,27.8,1.5c0.3-3.3,0.4-16.3,0.5-19.4C687.6-143.8,662.8-143.7,662.8-143.7z"/>
<path id="i4.1" opacity="0.3" fill="#004393" enable-background="new    " d="M658-151.2c0.4,2-2.1,41.3-2.1,46.7
	c6.4,0.7,29.8,3.7,35,4.2c0.4-9,0.5-43.8,0.6-52C689.2-151.9,658-151.2,658-151.2z"/>
<path id="i4.2" opacity="0.3" fill="#004393" enable-background="new    " d="M650.6-152.7c0.8,2.3,0.3,47.4,0.8,53.6
	c9,0.5,41.5,2.8,48.8,3.2c-0.3-10.4-2.7-50.3-3.1-59.6C693.9-154.9,650.6-152.7,650.6-152.7z"/>
<path id="i5" opacity="0.2" fill="#004393" enable-background="new    " d="M813.2,24.3c0.2,1.3-0.3,24.8-0.3,28.2
	c2.6,0.3,11.8,2.1,14,2.5c0-5.5-0.4-26.3-0.4-31.4C825.7,23.8,813.2,24.3,813.2,24.3z"/>
<path id="i6" opacity="0.1" fill="#004393" enable-background="new    " d="M-747.4-291.1c-2.1,0.7-48.6,1.9-54.2,1.9
	c-0.6,11.5,0.6,46.5,0,55.8c9.3,0.6,47.3,1.9,55.6,2.1C-746.4-235.3-747.4-291.1-747.4-291.1z"/>
<path id="i6.1" opacity="0.1" fill="#004393" enable-background="new    " d="M-706.8-327.7c-16.9,0.1-102.2-0.1-114.5-0.1
	c-1.3,20.5-2.7,88.4-3.9,104.9c20.3,1.2,103.5,0.9,121.7,1.4C-704.6-228.7-706.8-327.7-706.8-327.7z"/>
<path id="i6.2" opacity="0.1" fill="#004393" enable-background="new    " d="M-913.4-386.2c0.4,40.7,4.5,174.1,5.6,195.5
	c46.1,0.1,201.1-9.1,238.3-8.7c0.9-33.8-19.9-149.4-21.1-200.9C-706.6-398-913.4-386.2-913.4-386.2z"/>
<path id="i6.3" opacity="0.1" fill="#004393" enable-background="new    " d="M-681.9-369.4c-39-1.4-166.7-3.2-187.2-3.1
	c-2,42.2-0.2,184.5-2,218.6c32.3,2.2,143.8-11.9,193.1-10.8C-679.8-179.3-681.9-369.4-681.9-369.4z"/>
<path id="i6.4" opacity="5.000000e-02" fill="#004393" enable-background="new    " d="M-614.8-453.3c-43.4-6.1-295.5-7.8-332.3-7.7
	c-3.8,68.8-4,303.4-7.6,358.9c61.1,3.8,295,4.9,349.7,6.2C-608.2-119.7-614.8-453.3-614.8-453.3z"/>
<path id="i7" opacity="0.2" fill="#004393" enable-background="new    " d="M416.7-79.8c0.2,1-0.8,22.1-0.8,25.1
	c2.5,0.3,11.4,1.9,13.5,2.3c0.2-4.9,0.2-23.4,0.3-27.8C428.7-80.1,416.7-79.8,416.7-79.8z"/>
<path id="i8" opacity="0.2" fill="#004393" enable-background="new    " d="M265.3,18c0.4,1-1.9,22.8-1.9,25.8
	c5.8,0.4,26.9,2,31.6,2.3c0.4-5,0.5-24.3,0.6-28.8C293.6,17.6,265.3,18,265.3,18z"/>
<path id="i8.1" opacity="0.2" fill="#004393" enable-background="new    " d="M271.4,22.7c0.2,0.8-1.2,15.3-1.2,17.4
	c3.6,0.3,16.4,1.4,19.3,1.6c0.2-3.3,0.3-16.4,0.3-19.4C288.5,22.5,271.4,22.7,271.4,22.7z"/>
</svg>
