<?xml version="1.0" encoding="utf-8"?>
<!-- Generator: Adobe Illustrator 17.1.0, SVG Export Plug-In . SVG Version: 6.00 Build 0)  -->
<!DOCTYPE svg PUBLIC "-//W3C//DTD SVG 1.1//EN" "http://www.w3.org/Graphics/SVG/1.1/DTD/svg11.dtd">
<svg version="1.1" id="Layer_1" xmlns="http://www.w3.org/2000/svg" xmlns:xlink="http://www.w3.org/1999/xlink" x="0px" y="0px"
	 viewBox="0 0 960 540" enable-background="new 0 0 960 540" xml:space="preserve">
<path id="i1" opacity="0.3" fill="#004393" enable-background="new    " d="M-39.6-29.4c0.9,3.8,3.7,77.6,3.7,88
	c14.6,1.2,63.3,0.1,79.6-1.4c0.8-17.1,1-73.4,1.4-88.8C40-30.8-39.6-29.4-39.6-29.4z"/>
<path id="i1.1" opacity="0.1" fill="#004393" enable-background="new    " d="M-64.7-59.6c1.7,6.4,2,131.4,2,148.9
	c28.4,2,129.6,1.3,154.1,1.1c1.6-29,2.1-127.7,2.7-153.7C84.3-61.9-64.7-59.6-64.7-59.6z"/>
<path id="i1.1.1" opacity="0.1" fill="#004393" enable-background="new    " d="M-95.5-71.4c-2.7,14.4,1.7,166.4,1.7,188.5
	c35.5,2.6,172.2-12.1,203.5-12.7c2-36.7-8.6-147.6-7.9-180.5C89.5-74.3-95.5-71.4-95.5-71.4z"/>
<path id="i1.1.1.1" opacity="0.1" fill="#004393" enable-background="new    " d="M-122.2-112.1c2.8,10.8-10.1,215-10,244.4
	c45.9,3.5,219.9,15.7,257.2,14c2.6-48.6,3.6-220.8,4.4-264.5C113.5-115.9-122.2-112.1-122.2-112.1z"/>
<path id="i1.1.1.1.1" opacity="0.1" fill="#004393" enable-background="new    " d="M-195.4-218.6c-3.8,25.1-6.7,393-6.6,445.1
	c79.9,6.1,369.3,13.2,433.8,19c4.5-86.5,6.2-397.2,7.9-474.8C211.9-225.1-195.4-218.6-195.4-218.6z"/>
<path id="i2" opacity="0.3" fill="#004393" enable-background="new    " d="M-624.4,105.2c0.3,1.5-1.4,30.9-1.4,34.9
	c4.2,0.5,19.4,2.7,22.7,3.2c0.3-6.8,0.4-32.8,0.4-38.9C-604.1,104.7-624.4,105.2-624.4,105.2z"/>
<path id="i2.1" opacity="0.3" fill="#004393" enable-background="new    " d="M-629.7,98.5c0.4,2.7-1.9,55.8-1.9,63.3
	c5.8,0.9,26.4,4.9,31,5.7c0.3-12.3,0.5-59.4,0.6-70.4C-602,97.7-629.7,98.5-629.7,98.5z"/>
<path id="i3" opacity="0.3" fill="#004393" enable-background="new    " d="M-684,333.7c0.3,2.5-1.4,52.2-1.4,59.1
	c4.2,0.8,19.2,4.6,22.7,5.4c0.3-11.5,0.4-55.5,0.4-65.8C-663.8,333-684,333.7-684,333.7z"/>
<path id="i4" opacity="0.3" fill="#004393" enable-background="new    " d="M757.7-185.1c0.3,0.8-1.8,16-1.8,18.1
	c5.4,0.2,24.6,1.4,29,1.6c0.3-3.5,0.4-17,0.5-20.2C783.6-185.3,757.7-185.1,757.7-185.1z"/>
<path id="i4.1" opacity="0.3" fill="#004393" enable-background="new    " d="M752.7-192.9c0.4,2.1-2.2,43-2.2,48.7
	c6.7,0.7,31,3.8,36.4,4.4c0.4-9.4,0.5-45.7,0.6-54.2C785.2-193.6,752.7-192.9,752.7-192.9z"/>
<path id="i4.1.1" opacity="0.3" fill="#004393" enable-background="new    " d="M745-194.5c0.8,2.4,0.3,49.4,0.8,55.9
	c9.4,0.5,43.3,2.9,50.8,3.3c-0.3-10.8-2.8-52.4-3.2-62.1C790.1-196.8,745-194.5,745-194.5z"/>
<path id="i5" opacity="0.2" fill="#004393" enable-background="new    " d="M914.6-10c0.2,1.3-0.4,25.9-0.3,29.4
	c2.7,0.4,12.4,2.2,14.6,2.6c0-5.7-0.4-27.5-0.4-32.7C927.6-10.5,914.6-10,914.6-10z"/>
<path id="i6" opacity="0.1" fill="#004393" enable-background="new    " d="M-712.7-338.9c-2.2,0.7-50.7,2-56.5,2
	c-0.6,12,0.6,48.5,0,58.2c9.7,0.6,49.3,2,58,2.2C-711.7-280.7-712.7-338.9-712.7-338.9z"/>
<path id="i6.1" opacity="0.1" fill="#004393" enable-background="new    " d="M-670.4-377c-17.6,0.1-106.6-0.1-119.4-0.1
	c-1.3,21.3-2.8,92.2-4.1,109.4c21.2,1.2,107.9,1,126.9,1.4C-668.1-273.7-670.4-377-670.4-377z"/>
<path id="i6.1.1" opacity="0.1" fill="#004393" enable-background="new    " d="M-885.9-438c0.4,42.4,4.7,181.5,5.9,203.8
	c48.1,0.1,209.7-9.5,248.4-9.1c0.9-35.3-20.8-155.8-22-209.5C-670.1-450.3-885.9-438-885.9-438z"/>
<path id="i6.1.1.1" opacity="0.1" fill="#004393" enable-background="new    " d="M-644.4-420.5c-40.6-1.4-173.8-3.3-195.2-3.2
	c-2.2,44-0.2,192.4-2.2,227.9c33.7,2.3,150-12.4,201.4-11.3C-642.2-222.3-644.4-420.5-644.4-420.5z"/>
<path id="i6.1.1.1.1" opacity="5.000000e-02" fill="#004393" enable-background="new    " d="M-574.5-508
	c-45.2-6.3-308.2-8.1-346.5-8c-3.9,71.7-4.2,316.4-7.9,374.2c63.7,3.9,307.6,5.2,364.6,6.5C-567.6-160.1-574.5-508-574.5-508z"/>
<path id="i7" opacity="0.2" fill="#004393" enable-background="new    " d="M501.1-118.5c0.2,1.1-0.8,23-0.8,26.1
	c2.6,0.4,11.9,2,14,2.4c0.2-5.1,0.2-24.4,0.3-29C513.6-118.8,501.1-118.5,501.1-118.5z"/>
<path id="i8" opacity="0.2" fill="#004393" enable-background="new    " d="M343.2-16.6c0.4,1.1-2,23.8-2,26.9
	c6,0.4,28.1,2.1,33,2.4c0.4-5.2,0.5-25.3,0.6-30C372.7-16.9,343.2-16.6,343.2-16.6z"/>
<path id="i8.1" opacity="0.2" fill="#004393" enable-background="new    " d="M349.6-11.6c0.2,0.8-1.2,16-1.2,18.1
	c3.7,0.3,17.1,1.4,20.1,1.7c0.2-3.5,0.3-17.1,0.4-20.2C367.5-11.9,349.6-11.6,349.6-11.6z"/>
</svg>
