<?xml version="1.0" encoding="utf-8"?>
<!-- Generator: Adobe Illustrator 17.1.0, SVG Export Plug-In . SVG Version: 6.00 Build 0)  -->
<!DOCTYPE svg PUBLIC "-//W3C//DTD SVG 1.1//EN" "http://www.w3.org/Graphics/SVG/1.1/DTD/svg11.dtd">
<svg version="1.1" id="Layer_1" xmlns="http://www.w3.org/2000/svg" xmlns:xlink="http://www.w3.org/1999/xlink" x="0px" y="0px"
	 viewBox="0 0 1080 1080" enable-background="new 0 0 1080 1080" xml:space="preserve">
<path id="i1" opacity="0.3" fill="#004393" enable-background="new    " d="M-44.5,203.2c1,4.3,4.2,87.3,4.2,99
	c16.4,1.4,71.2,0.1,89.6-1.6c0.9-19.2,1.1-82.6,1.6-99.9C45,201.6-44.5,203.2-44.5,203.2z"/>
<path id="i1.1" opacity="0.1" fill="#004393" enable-background="new    " d="M-72.8,169.2c1.9,7.2,2.2,147.8,2.2,167.5
	c32,2.2,145.8,1.5,173.4,1.2c1.8-32.6,2.4-143.7,3-172.9C94.8,166.6-72.8,169.2-72.8,169.2z"/>
<path id="i1.2" opacity="0.1" fill="#004393" enable-background="new    " d="M-107.4,155.9c-3,16.2,1.9,187.2,1.9,212.1
	c39.9,2.9,193.7-13.6,228.9-14.3c2.2-41.3-9.7-166.1-8.9-203.1C100.7,152.7-107.4,155.9-107.4,155.9z"/>
<path id="i1.3" opacity="0.1" fill="#004393" enable-background="new    " d="M-137.5,110.1c3.1,12.2-11.4,241.9-11.2,274.9
	c51.6,3.9,247.4,17.7,289.4,15.8c2.9-54.7,4.1-248.4,4.9-297.6C127.7,105.9-137.5,110.1-137.5,110.1z"/>
<path id="i1.4" opacity="0.1" fill="#004393" enable-background="new    " d="M-219.8-9.7c-4.3,28.2-7.5,442.1-7.4,500.7
	c89.9,6.9,415.5,14.9,488,21.4c5.1-97.3,7-446.9,8.9-534.1C238.4-17-219.8-9.7-219.8-9.7z"/>
<path id="i2" opacity="0.3" fill="#004393" enable-background="new    " d="M-702.5,354.6c0.3,1.7-1.6,34.8-1.6,39.3
	c4.7,0.6,21.8,3,25.5,3.6c0.3-7.6,0.5-36.9,0.5-43.8C-679.6,354-702.5,354.6-702.5,354.6z"/>
<path id="i2.1" opacity="0.3" fill="#004393" enable-background="new    " d="M-708.4,347.1c0.5,3-2.1,62.8-2.1,71.2
	c6.5,1,29.7,5.5,34.9,6.4c0.3-13.8,0.6-66.8,0.7-79.2C-677.2,346.2-708.4,347.1-708.4,347.1z"/>
<path id="i3" opacity="0.3" fill="#004393" enable-background="new    " d="M-769.5,611.7c0.3,2.8-1.6,58.7-1.6,66.5
	c4.7,0.9,21.6,5.2,25.5,6.1c0.3-12.9,0.5-62.4,0.5-74C-746.8,610.9-769.5,611.7-769.5,611.7z"/>
<path id="i4" opacity="0.3" fill="#004393" enable-background="new    " d="M852.4,28c0.3,0.9-2,18-2,20.4
	c6.1,0.2,27.7,1.6,32.6,1.8c0.3-3.9,0.5-19.1,0.6-22.7C881.5,27.8,852.4,28,852.4,28z"/>
<path id="i4.1" opacity="0.3" fill="#004393" enable-background="new    " d="M846.8,19.2c0.5,2.4-2.5,48.4-2.5,54.8
	c7.5,0.8,34.9,4.3,41,4.9c0.5-10.6,0.6-51.4,0.7-61C883.4,18.4,846.8,19.2,846.8,19.2z"/>
<path id="i4.2" opacity="0.3" fill="#004393" enable-background="new    " d="M838.1,17.4c0.9,2.7,0.3,55.6,0.9,62.9
	c10.6,0.6,48.7,3.3,57.2,3.7c-0.3-12.2-3.2-59-3.6-69.9C888.9,14.8,838.1,17.4,838.1,17.4z"/>
<path id="i5" opacity="0.2" fill="#004393" enable-background="new    " d="M1028.9,225c0.2,1.5-0.4,29.1-0.3,33.1
	c3,0.4,13.9,2.5,16.4,2.9c0-6.4-0.5-30.9-0.5-36.8C1043.5,224.4,1028.9,225,1028.9,225z"/>
<path id="i6" opacity="0.1" fill="#004393" enable-background="new    " d="M-801.8-145c-2.5,0.8-57,2.2-63.6,2.2
	c-0.7,13.5,0.7,54.6,0,65.5c10.9,0.7,55.5,2.2,65.2,2.5C-800.7-79.5-801.8-145-801.8-145z"/>
<path id="i6.1" opacity="0.1" fill="#004393" enable-background="new    " d="M-754.2-187.9c-19.8,0.1-119.9-0.1-134.3-0.1
	c-1.5,24-3.2,103.7-4.6,123.1c23.8,1.4,121.4,1.1,142.8,1.6C-751.6-71.7-754.2-187.9-754.2-187.9z"/>
<path id="i6.2" opacity="0.1" fill="#004393" enable-background="new    " d="M-996.6-256.5c0.5,47.7,5.3,204.2,6.6,229.3
	c54.1,0.1,235.9-10.7,279.5-10.2c1-39.7-23.4-175.3-24.8-235.7C-753.9-270.3-996.6-256.5-996.6-256.5z"/>
<path id="i6.3" opacity="0.1" fill="#004393" enable-background="new    " d="M-725-236.8c-45.7-1.6-195.5-3.7-219.6-3.6
	C-947-190.9-944.8-24-947,16C-909.1,18.6-778.3,2-720.5,3.3C-722.5-13.8-725-236.8-725-236.8z"/>
<path id="i6.4" opacity="5.000000e-02" fill="#004393" enable-background="new    " d="M-646.3-335.2c-50.9-7.1-346.7-9.1-389.8-9
	c-4.4,80.7-4.7,355.9-8.9,421c71.7,4.4,346.1,5.8,410.2,7.3C-638.5,56.1-646.3-335.2-646.3-335.2z"/>
<path id="i7" opacity="0.2" fill="#004393" enable-background="new    " d="M563.7,102.9c0.2,1.2-0.9,25.9-0.9,29.4
	c2.9,0.4,13.4,2.2,15.8,2.7c0.2-5.7,0.2-27.5,0.3-32.6C577.8,102.6,563.7,102.9,563.7,102.9z"/>
<path id="i8" opacity="0.2" fill="#004393" enable-background="new    " d="M386.1,217.6c0.5,1.2-2.2,26.8-2.2,30.3
	c6.8,0.5,31.6,2.4,37.1,2.7c0.5-5.9,0.6-28.5,0.7-33.8C419.3,217.2,386.1,217.6,386.1,217.6z"/>
<path id="i8.1" opacity="0.2" fill="#004393" enable-background="new    " d="M393.3,223.2c0.2,0.9-1.4,18-1.4,20.4
	c4.2,0.3,19.2,1.6,22.6,1.9c0.2-3.9,0.3-19.2,0.4-22.7C413.4,222.9,393.3,223.2,393.3,223.2z"/>
</svg>
