<?xml version="1.0" encoding="utf-8"?>
<!-- Generator: Adobe Illustrator 17.1.0, SVG Export Plug-In . SVG Version: 6.00 Build 0)  -->
<!DOCTYPE svg PUBLIC "-//W3C//DTD SVG 1.1//EN" "http://www.w3.org/Graphics/SVG/1.1/DTD/svg11.dtd">
<svg version="1.1" id="Layer_1" xmlns="http://www.w3.org/2000/svg" xmlns:xlink="http://www.w3.org/1999/xlink" x="0px" y="0px"
	 viewBox="0 0 960 540" enable-background="new 0 0 960 540" xml:space="preserve">
<path id="i1" opacity="0.85" fill="#62A89F" enable-background="new    " d="M-336.3-455.1c-8.9,26.5,2.1,813.3,23.5,841.5
	c1.1,0,58.9-21.9,60.4-22.2c6.3-34.1-1.4-814.9-1.4-817.7C-261.3-457.7-335.1-455.2-336.3-455.1z"/>
<path id="i2" opacity="0.85" fill="#D6C13C" enable-background="new    " d="M-354.6-67.4c11,2.3,31-0.2,42.1,0.7
	c2.7-8.1,5.1-43.2,4.9-49.8c-1.1,0.1-30.6,5.8-41.1,5.4C-350.6-103.3-352.6-78.9-354.6-67.4z"/>
<path id="i3" opacity="0.85" fill="#D3D637" enable-background="new    " d="M-381.8-89.1c-6.8,0-66.8-3.2-67.5-3.4
	c0.3-15.3,0.5-61.2,1-73.3c9.3,0.7,58.6,2.7,71.5,4.8C-377.1-143.6-378.8-103.9-381.8-89.1z"/>
<path id="i4" opacity="0.85" fill="#AAD03F" enable-background="new    " d="M-572.6-103c11,1.5,59.1-0.5,71.5,0.1
	c4.5-18.5,19.3-48.6,22-64.5c-6.9-2.2-68.5-16.7-83.8-16.7C-562.4-172.9-573.6-116.4-572.6-103z"/>
<path id="i5" opacity="0.85" fill="#4EB5B2" enable-background="new    " d="M-154-295.3c1.6-2.3,1.4-205.7-0.8-213.5
	c-0.3-2.2-26.3-3.8-29.4-4.6c-4.7,0-0.1,219,0.1,221C-181.4-293.3-157.5-293.6-154-295.3z"/>
<path id="i6" opacity="0.85" fill="#4EB5B2" enable-background="new    " d="M-31.8-151.7c0.3-1.5,2.9-142,2.7-143.7
	c-2.8-0.5-36.6,7.2-36.8,8.9c-0.3,1.9,0.3,119.9,1.6,128.1C-60.9-157.4-35.7-152.3-31.8-151.7z"/>
<path id="i7" opacity="0.85" fill="#4EB5B2" enable-background="new    " d="M-372.6,476.9c0.3-2.7,6.9-235.6,6.4-242.7
	c-8.9,0.9-31.7,8.9-37.4,10.8c-7.4,5.9-16.8,228.7-17.5,233.5C-415.5,478.6-379.2,479-372.6,476.9z"/>
<path id="i8" opacity="0.85" fill="#4EB5B2" enable-background="new    " d="M-578,349.9c4.2,1.2,22.7,7.2,27.1,5.1
	c0.1-6.3-9.2-207.8-9.5-217.6c-4.7-2.7-23.4,15.5-24.9,15.6C-591.1,153.8-578.2,346.6-578,349.9z"/>
<path id="i9" opacity="0.85" fill="#098793" enable-background="new    " d="M-544.5,201.3c-3.3-4.3-3-175.9-3.2-182
	c-0.1-0.8,21-8.6,24.2-8c-0.4,2.8-4.6,181-6.9,181.4C-534.9,193.7-543.2,201.6-544.5,201.3z"/>
<path id="i10" opacity="0.85" fill="#098793" enable-background="new    " d="M-328.9,321.7c-0.2,1.8,2.4,137.2,2.4,139.2
	c3.1-1.4,34.8-23.9,38-27.1c0.6-4.7,11.1-121.2,10-124.4C-279.7,309.6-324.2,318.1-328.9,321.7z"/>
<path id="i11" opacity="0.85" fill="#098793" enable-background="new    " d="M-216.4-462.6c-2.2,0.5-47.8,6.4-49,6.5
	c-2.3,0.4,5,91.5,5.2,93.2c1.4-0.2,22.3-1,23-1.3C-234.3-366.4-216.6-459.7-216.4-462.6z"/>
<path id="i12" opacity="0.85" fill="#098793" enable-background="new    " d="M-37.1-116.2c-0.5,4.2,2.6,48.5,2.4,52
	c2,1.3,18.4,1.4,19.6,1.3c1.7-0.2-1.8-38.7-1.2-44C-17.4-108.9-35.4-116-37.1-116.2z"/>
<path id="i13" opacity="0.85" fill="#999900" enable-background="new    " d="M-591-16c0.5-9.9-2.1-78.3-2.5-89.3
	c-16.8-2.6-65.7-9.5-80.1-10.6c-1.5,6.3-4.2,86.7-3,100.3C-666.7-16.9-602.8-14-591-16z"/>
</svg>
