<?xml version="1.0" encoding="utf-8"?>
<!-- Generator: Adobe Illustrator 17.1.0, SVG Export Plug-In . SVG Version: 6.00 Build 0)  -->
<!DOCTYPE svg PUBLIC "-//W3C//DTD SVG 1.1//EN" "http://www.w3.org/Graphics/SVG/1.1/DTD/svg11.dtd">
<svg version="1.1" id="Layer_1" xmlns="http://www.w3.org/2000/svg" xmlns:xlink="http://www.w3.org/1999/xlink" x="0px" y="0px"
	 viewBox="0 0 1080 1080" enable-background="new 0 0 1080 1080" xml:space="preserve">
<path id="i1" opacity="0.85" fill="#62A89F" enable-background="new    " d="M-378.3-275.7c-10,29.8,2.4,915,26.4,946.7
	c1.2,0,66.3-24.6,68-25c7.1-38.4-1.6-916.8-1.6-919.9C-294-278.7-377-275.9-378.3-275.7z"/>
<path id="i1.1" opacity="0.85" fill="#D6C13C" enable-background="new    " d="M-398.9,160.4c12.4,2.6,34.9-0.2,47.4,0.8
	c3-9.1,5.7-48.6,5.5-56c-1.2,0.1-34.4,6.5-46.2,6.1C-394.4,120-396.7,147.5-398.9,160.4z"/>
<path id="i1.2" opacity="0.85" fill="#D3D637" enable-background="new    " d="M-429.5,136c-7.6,0-75.1-3.6-75.9-3.8
	c0.3-17.2,0.6-68.8,1.1-82.5c10.5,0.8,65.9,3,80.4,5.4C-424.2,74.7-426.1,119.4-429.5,136z"/>
<path id="i1.3" opacity="0.85" fill="#AAD03F" enable-background="new    " d="M-644.2,120.4c12.4,1.7,66.5-0.6,80.4,0.1
	c5.1-20.8,21.7-54.7,24.8-72.6c-7.8-2.5-77.1-18.8-94.3-18.8C-632.7,41.7-645.3,105.3-644.2,120.4z"/>
<path id="i2" opacity="0.85" fill="#4EB5B2" enable-background="new    " d="M-173.2-96c1.8-2.6,1.6-231.4-0.9-240.2
	c-0.3-2.5-29.6-4.3-33.1-5.2c-5.3,0-0.1,246.4,0.1,248.6C-204.1-93.7-177.2-94.1-173.2-96z"/>
<path id="i3" opacity="0.85" fill="#4EB5B2" enable-background="new    " d="M-35.8,65.6c0.3-1.7,3.3-159.8,3-161.7
	c-3.1-0.6-41.2,8.1-41.4,10c-0.3,2.1,0.3,134.9,1.8,144.1C-68.5,59.2-40.2,64.9-35.8,65.6z"/>
<path id="i4" opacity="0.85" fill="#4EB5B2" enable-background="new    " d="M-419.2,772.8c0.3-3,7.8-265.1,7.2-273
	c-10,1-35.7,10-42.1,12.1c-8.3,6.6-18.9,257.3-19.7,262.7C-467.4,774.7-426.6,775.1-419.2,772.8z"/>
<path id="i5" opacity="0.85" fill="#4EB5B2" enable-background="new    " d="M-650.2,629.9c4.7,1.3,25.5,8.1,30.5,5.7
	c0.1-7.1-10.4-233.8-10.7-244.8c-5.3-3-26.3,17.4-28,17.6C-665,409.3-650.5,626.2-650.2,629.9z"/>
<path id="i6" opacity="0.85" fill="#098793" enable-background="new    " d="M-612.6,462.7c-3.7-4.8-3.4-197.9-3.6-204.8
	c-0.1-0.9,23.6-9.7,27.2-9c-0.5,3.1-5.2,203.6-7.8,204.1C-601.8,454.2-611.1,463.1-612.6,462.7z"/>
<path id="i7" opacity="0.85" fill="#098793" enable-background="new    " d="M-370,598.2c-0.2,2,2.7,154.3,2.7,156.6
	c3.5-1.6,39.1-26.9,42.8-30.5c0.7-5.3,12.5-136.3,11.2-140C-314.7,584.5-364.7,594.1-370,598.2z"/>
<path id="i8" opacity="0.85" fill="#098793" enable-background="new    " d="M-243.4-284.2c-2.5,0.6-53.8,7.2-55.1,7.3
	c-2.6,0.5,5.6,102.9,5.9,104.8c1.6-0.2,25.1-1.1,25.9-1.5C-263.6-175.9-243.7-280.9-243.4-284.2z"/>
<path id="i9" opacity="0.85" fill="#098793" enable-background="new    " d="M-41.7,105.5c-0.6,4.7,2.9,54.6,2.7,58.5
	c2.2,1.5,20.7,1.6,22.1,1.5c1.9-0.2-2-43.5-1.4-49.5C-19.6,113.7-39.8,105.8-41.7,105.5z"/>
<path id="i1.4" opacity="0.85" fill="#999900" enable-background="new    " d="M-664.9,218.2c0.6-11.1-2.4-88.1-2.8-100.5
	c-18.9-2.9-73.9-10.7-90.1-11.9c-1.7,7.1-4.7,97.5-3.4,112.8C-750,217.2-678.1,220.5-664.9,218.2z"/>
</svg>
