<?xml version="1.0" encoding="utf-8"?>
<!-- Generator: Adobe Illustrator 17.1.0, SVG Export Plug-In . SVG Version: 6.00 Build 0)  -->
<!DOCTYPE svg PUBLIC "-//W3C//DTD SVG 1.1//EN" "http://www.w3.org/Graphics/SVG/1.1/DTD/svg11.dtd">
<svg version="1.1" id="Layer_1" xmlns="http://www.w3.org/2000/svg" xmlns:xlink="http://www.w3.org/1999/xlink" x="0px" y="0px"
	 viewBox="0 0 960 540" enable-background="new 0 0 960 540" xml:space="preserve">
<path id="i1" opacity="0.85" fill="#62A89F" enable-background="new    " d="M-20.3-483c-2.5,40.1,1,808.3,7.6,846.4
	c1.1,0,76.9-6.1,78.5-6.5c1.6-38.5-1.5-835.5-1.5-838.3C56.6-485.7-19.1-483.1-20.3-483z"/>
<path id="i1.4" opacity="0.85" fill="#999900" enable-background="new    " d="M-234-33.9c1.5-24-5.8-189.9-6.7-216.7
	c-45.7-6.3-178.5-23.1-217.7-25.7c-4.1,15.3-11.4,210.2-8.2,243.2C-439.6-36.1-265.9-29-234-33.9z"/>
<path id="i1.3" opacity="0.85" fill="#AAD03F" enable-background="new    " d="M-291.2-80.3c19.8,3.1,106.3-1.1,128.4,0.2
	c8.1-37.4,34.6-98.2,39.6-130.4c-12.5-4.5-123.2-33.8-150.6-33.8C-272.9-221.6-293-107.4-291.2-80.3z"/>
<path id="i1.1" opacity="0.85" fill="#D6C13C" enable-background="new    " d="M-54.7-86.3c14.9,4,42.1-0.3,57.2,1.3
	c3.6-14,6.9-74.8,6.7-86.2c-1.5,0.2-41.6,10-55.8,9.4C-49.2-148.4-52.1-106.1-54.7-86.3z"/>
<path id="i1.2" opacity="0.85" fill="#D3D637" enable-background="new    " d="M-41.8-74c-12.1,0-119.9-5.5-121.2-5.7
	c0.5-26.2,1-104.6,1.7-125.5c16.8,1.2,105.3,4.6,128.4,8.2C-33.3-167.2-36.3-99.2-41.8-74z"/>
<path id="i2" opacity="0.85" fill="#4EB5B2" enable-background="new    " d="M166.6-319.2c1.6-2.4,1.5-210.9-0.8-218.9
	c-0.3-2.3-27-3.9-30.2-4.7c-4.8,0-0.1,224.5,0.1,226.5C138.5-317.1,163-317.5,166.6-319.2z"/>
<path id="i3" opacity="0.85" fill="#4EB5B2" enable-background="new    " d="M291.9-171.9c0.3-1.5,3-145.6,2.7-147.4
	c-2.8-0.5-37.6-1.7-37.8,0c-0.3,1.9-1.5,139-0.1,147.4C260.3-170.8,287.9-172.6,291.9-171.9z"/>
<path id="i4" opacity="0.85" fill="#4EB5B2" enable-background="new    " d="M-57.5,472.5c0.3-2.7,7.1-241.6,6.6-248.8
	c-9.1,0.9-41.1-1.9-46.9,0c-7.6,6-8.7,245.5-9.4,250.4C-101.5,474.3-64.3,474.6-57.5,472.5z"/>
<path id="i5" opacity="0.85" fill="#4EB5B2" enable-background="new    " d="M-269.6,348.7c4.3,1.2,24.8,1,29.3-1.2
	c0.1-6.5-9.5-213.1-9.8-223.1c-4.8-2.7-25.7-0.5-27.2-0.3C-283.3,125-269.9,345.3-269.6,348.7z"/>
<path id="i6" opacity="0.85" fill="#098793" enable-background="new    " d="M-233.8,189.9c-3.4-4.4-3.1-180.3-3.3-186.6
	c-0.1-0.8,21.5-8.8,24.8-8.2c-0.5,2.8,2.4,194.4,0,194.8C-216.8,191-232.4,190.3-233.8,189.9z"/>
<path id="i7" opacity="0.85" fill="#098793" enable-background="new    " d="M-12.7,313.4c-0.2,1.8,2.5,140.6,2.5,142.7
	c3.2-1.5,45.9-6,49.3-9.3c0.6-4.8,1.1-142.7-0.1-146.1C37.7,300.9-7.9,309.7-12.7,313.4z"/>
<path id="i8" opacity="0.85" fill="#098793" enable-background="new    " d="M102.7-490.7c-2.3,0.5-49,6.6-50.2,6.7
	c-2.4,0.5,5.1,93.8,5.4,95.5c1.5-0.2,44.1,0.4,44.8,0C105.5-390.7,102.4-487.7,102.7-490.7z"/>
<path id="i9" opacity="0.85" fill="#098793" enable-background="new    " d="M286.5-135.6c-0.5,4.3,2.6,49.8,2.5,53.3
	c2,1.4,18.9,1.5,20.1,1.4c1.7-0.2-0.1-49.2,0.5-54.7C308.4-137.7,288.2-135.3,286.5-135.6z"/>
</svg>
