<?xml version="1.0" encoding="utf-8"?>
<!-- Generator: Adobe Illustrator 17.1.0, SVG Export Plug-In . SVG Version: 6.00 Build 0)  -->
<!DOCTYPE svg PUBLIC "-//W3C//DTD SVG 1.1//EN" "http://www.w3.org/Graphics/SVG/1.1/DTD/svg11.dtd">
<svg version="1.1" id="Layer_1" xmlns="http://www.w3.org/2000/svg" xmlns:xlink="http://www.w3.org/1999/xlink" x="0px" y="0px"
	 viewBox="0 0 1080 1080" enable-background="new 0 0 1080 1080" xml:space="preserve">
<path id="i1" opacity="0.85" fill="#62A89F" enable-background="new    " d="M-378.3-275.7c-2.7,44,1.1,887,8.3,928.8
	c1.2,0,84.4-6.7,86.1-7.1c1.8-42.3-1.6-916.8-1.6-919.9C-294-278.7-377-275.9-378.3-275.7z"/>
<path id="i1.4" opacity="0.85" fill="#999900" enable-background="new    " d="M-612.9,217.1c1.6-26.3-6.4-208.4-7.4-237.8
	c-50.1-6.9-195.9-25.3-238.9-28.2c-4.5,16.8-12.5,230.7-9,266.9C-838.5,214.7-647.9,222.5-612.9,217.1z"/>
<path id="i1.3" opacity="0.85" fill="#AAD03F" enable-background="new    " d="M-675.6,166.2c21.7,3.4,116.6-1.2,140.9,0.2
	c8.9-41,38-107.8,43.5-143.1c-13.7-4.9-135.2-37.1-165.3-37.1C-655.5,11.1-677.6,136.4-675.6,166.2z"/>
<path id="i1.1" opacity="0.85" fill="#D6C13C" enable-background="new    " d="M-416.1,159.6c16.4,4.4,46.2-0.3,62.8,1.4
	c4-15.4,7.6-82.1,7.3-94.6c-1.6,0.2-45.6,11-61.2,10.3C-410.1,91.4-413.2,137.8-416.1,159.6z"/>
<path id="i1.2" opacity="0.85" fill="#D3D637" enable-background="new    " d="M-401.9,173.1c-13.3,0-131.6-6-133-6.3
	c0.5-28.7,1.1-114.8,1.9-137.7c18.4,1.3,115.5,5,140.9,9C-392.6,70.8-395.9,145.4-401.9,173.1z"/>
<path id="i2" opacity="0.85" fill="#4EB5B2" enable-background="new    " d="M-173.2-96c1.8-2.6,1.6-231.4-0.9-240.2
	c-0.3-2.5-29.6-4.3-33.1-5.2c-5.3,0-0.1,246.4,0.1,248.6C-204.1-93.7-177.2-94.1-173.2-96z"/>
<path id="i3" opacity="0.85" fill="#4EB5B2" enable-background="new    " d="M-35.8,65.6c0.3-1.7,3.3-159.8,3-161.7
	c-3.1-0.6-41.3-1.9-41.5,0c-0.3,2.1-1.6,152.5-0.1,161.7C-70.4,66.8-40.2,64.9-35.8,65.6z"/>
<path id="i4" opacity="0.85" fill="#4EB5B2" enable-background="new    " d="M-419.2,772.8c0.3-3,7.8-265.1,7.2-273
	c-10,1-45.1-2.1-51.5,0c-8.3,6.6-9.5,269.4-10.3,274.8C-467.4,774.7-426.6,775.1-419.2,772.8z"/>
<path id="i5" opacity="0.85" fill="#4EB5B2" enable-background="new    " d="M-651.9,636.9c4.7,1.3,27.2,1.1,32.2-1.3
	c0.1-7.1-10.4-233.8-10.7-244.8c-5.3-3-28.2-0.5-29.9-0.3C-666.9,391.4-652.2,633.2-651.9,636.9z"/>
<path id="i6" opacity="0.85" fill="#098793" enable-background="new    " d="M-612.6,462.7c-3.7-4.8-3.4-197.9-3.6-204.8
	c-0.1-0.9,23.6-9.7,27.2-9c-0.5,3.1,2.6,213.3,0,213.8C-594,463.9-611.1,463.1-612.6,462.7z"/>
<path id="i7" opacity="0.85" fill="#098793" enable-background="new    " d="M-370,598.2c-0.2,2,2.7,154.3,2.7,156.6
	c3.5-1.6,50.4-6.6,54.1-10.2c0.7-5.3,1.2-156.6-0.1-160.3C-314.7,584.5-364.7,594.1-370,598.2z"/>
<path id="i8" opacity="0.85" fill="#098793" enable-background="new    " d="M-243.4-284.2c-2.5,0.6-53.8,7.2-55.1,7.3
	c-2.6,0.5,5.6,102.9,5.9,104.8c1.6-0.2,48.4,0.4,49.2,0C-240.3-174.4-243.7-280.9-243.4-284.2z"/>
<path id="i9" opacity="0.85" fill="#098793" enable-background="new    " d="M-41.7,105.5c-0.6,4.7,2.9,54.6,2.7,58.5
	c2.2,1.5,20.7,1.6,22.1,1.5c1.9-0.2-0.1-54,0.5-60C-17.7,103.2-39.8,105.8-41.7,105.5z"/>
</svg>
